<svg xmlns="http://www.w3.org/2000/svg" xmlns:xlink="http://www.w3.org/1999/xlink" width="500" zoomAndPan="magnify" viewBox="0 0 375 374.999991" height="500" preserveAspectRatio="xMidYMid meet" version="1.0"><defs><clipPath id="b1a58d67c6"><path d="M 30 284 L 345 284 L 345 375 L 30 375 Z M 30 284 " clip-rule="nonzero"/></clipPath></defs><path fill="#000000" d="M 143.191406 17.9375 C 143.191406 17.9375 149.121094 6.074219 177.132812 3.085938 C 205.144531 0.09375 209.378906 10.710938 229.316406 12.40625 C 249.253906 14.101562 285.789062 33.191406 288.28125 66.285156 C 290.820312 99.378906 298.847656 94.195312 304.378906 109.296875 C 309.910156 124.398438 302.234375 138.902344 298 147.777344 C 293.761719 156.648438 300.589844 169.359375 306.273438 180.820312 C 311.953125 192.285156 292.667969 195.226562 293.960938 207.984375 C 295.257812 220.695312 306.921875 229.816406 301.789062 241.726562 C 296.703125 253.589844 287.132812 265.054688 303.480469 279.257812 C 319.828125 293.464844 304.230469 325.460938 271.382812 331.292969 C 238.539062 337.125 78.246094 331.292969 78.246094 331.292969 C 78.246094 331.292969 88.414062 296.15625 78.246094 290.222656 C 68.078125 284.292969 73.8125 268.394531 78.246094 259.472656 C 82.683594 250.550781 62.347656 242.277344 66.136719 222.589844 C 69.972656 202.851562 77.898438 206.539062 68.378906 191.238281 C 58.859375 175.988281 62.644531 155.601562 73.011719 142.542969 C 83.332031 129.535156 79.839844 111.042969 75.257812 97.238281 C 70.671875 83.429688 83.679688 6.722656 143.191406 17.9375 Z M 143.191406 17.9375 " fill-opacity="1" fill-rule="nonzero"/><path fill="#f4e5e0" d="M 343.304688 373.410156 L 31.792969 373.410156 C 31.792969 373.410156 40.367188 346.046875 69.027344 301.488281 C 97.636719 256.929688 187.550781 252.492188 187.550781 252.492188 C 187.550781 252.492188 277.464844 256.929688 306.074219 301.488281 C 334.734375 346.046875 343.304688 373.410156 343.304688 373.410156 Z M 343.304688 373.410156 " fill-opacity="1" fill-rule="nonzero"/><path fill="#f4e5e0" d="M 343.304688 373.410156 L 31.792969 373.410156 C 31.792969 373.410156 37.824219 354.171875 56.617188 321.722656 C 56.617188 321.722656 56.617188 321.722656 56.664062 321.722656 C 60.304688 315.445312 64.390625 308.714844 69.027344 301.488281 C 97.636719 256.929688 187.550781 252.492188 187.550781 252.492188 C 187.550781 252.492188 277.464844 256.929688 306.074219 301.488281 C 310.707031 308.714844 314.796875 315.445312 318.433594 321.722656 C 337.273438 354.171875 343.304688 373.410156 343.304688 373.410156 Z M 343.304688 373.410156 " fill-opacity="1" fill-rule="nonzero"/><path fill="#000000" d="M 343.304688 374.753906 L 31.792969 374.753906 C 31.347656 374.753906 30.996094 374.554688 30.746094 374.207031 C 30.5 373.859375 30.449219 373.410156 30.546875 373.011719 C 30.597656 372.8125 36.828125 353.273438 55.46875 321.074219 C 55.519531 320.976562 55.570312 320.875 55.667969 320.828125 C 59.457031 314.246094 63.59375 307.519531 67.929688 300.789062 C 96.589844 256.183594 183.8125 251.347656 187.5 251.199219 C 191.335938 251.398438 278.5625 256.183594 307.21875 300.789062 C 311.605469 307.617188 315.742188 314.445312 319.628906 321.074219 C 338.320312 353.273438 344.550781 372.8125 344.601562 373.011719 C 344.75 373.410156 344.652344 373.859375 344.402344 374.207031 C 344.152344 374.554688 343.753906 374.753906 343.304688 374.753906 Z M 33.6875 372.113281 L 341.460938 372.113281 C 339.515625 366.730469 332.6875 348.886719 317.289062 322.421875 C 313.449219 315.792969 309.3125 309.015625 304.976562 302.234375 C 277.066406 258.773438 188.398438 253.890625 187.5 253.839844 C 186.753906 253.890625 98.082031 258.773438 70.171875 302.234375 C 65.835938 309.015625 61.648438 315.792969 57.863281 322.421875 C 57.8125 322.519531 57.761719 322.621094 57.664062 322.671875 C 42.359375 349.039062 35.582031 366.730469 33.6875 372.113281 Z M 33.6875 372.113281 " fill-opacity="1" fill-rule="nonzero"/><path fill="#f4e5e0" d="M 164.125 261.714844 C 170.203125 242.972656 167.015625 206.988281 167.015625 206.988281 L 208.085938 206.988281 C 208.085938 206.988281 204.894531 242.972656 210.976562 261.714844 " fill-opacity="1" fill-rule="nonzero"/><path fill="#000000" d="M 165.371094 262.113281 L 162.828125 261.316406 C 168.757812 243.023438 165.667969 207.488281 165.667969 207.136719 L 165.519531 205.691406 L 209.480469 205.691406 L 209.332031 207.136719 C 209.28125 207.488281 206.242188 243.074219 212.171875 261.316406 L 209.628906 262.113281 C 204.148438 245.265625 206.042969 215.3125 206.539062 208.285156 L 168.359375 208.285156 C 168.957031 215.3125 170.851562 245.265625 165.371094 262.113281 Z M 165.371094 262.113281 " fill-opacity="1" fill-rule="nonzero"/><path fill="#f4e5e0" d="M 260.667969 134.816406 C 260.667969 134.816406 274.023438 125.894531 284.191406 135.765625 C 294.359375 145.632812 285.789062 179.523438 254.585938 167.710938 Z M 260.667969 134.816406 " fill-opacity="1" fill-rule="nonzero"/><path fill="#000000" d="M 266.796875 171.550781 C 263.160156 171.550781 258.972656 170.804688 254.136719 169.007812 L 253.089844 168.609375 L 259.421875 134.019531 L 259.871094 133.722656 C 260.019531 133.621094 274.226562 124.351562 285.089844 134.816406 C 290.871094 140.449219 291.070312 152.609375 285.539062 161.382812 C 283.296875 164.921875 277.664062 171.550781 266.796875 171.550781 Z M 256.132812 166.867188 C 267.996094 171.003906 277.863281 168.511719 283.34375 159.9375 C 288.179688 152.3125 288.179688 141.445312 283.296875 136.710938 C 274.921875 128.585938 264.257812 134.21875 261.863281 135.613281 Z M 256.132812 166.867188 " fill-opacity="1" fill-rule="nonzero"/><path fill="#f4e5e0" d="M 267.546875 158.441406 C 267.546875 158.441406 269.042969 141.347656 279.109375 142.640625 " fill-opacity="1" fill-rule="nonzero"/><path fill="#000000" d="M 267.546875 159.789062 C 267.496094 159.789062 267.445312 159.789062 267.445312 159.789062 C 266.699219 159.738281 266.148438 159.089844 266.25 158.34375 C 266.300781 157.894531 267.246094 147.578125 272.628906 143.191406 C 274.574219 141.644531 276.765625 140.996094 279.257812 141.347656 C 280.007812 141.445312 280.503906 142.09375 280.40625 142.839844 C 280.304688 143.589844 279.65625 144.085938 278.910156 143.988281 C 277.117188 143.789062 275.621094 144.1875 274.273438 145.285156 C 269.738281 148.921875 268.839844 158.492188 268.839844 158.589844 C 268.839844 159.289062 268.242188 159.789062 267.546875 159.789062 Z M 267.546875 159.789062 " fill-opacity="1" fill-rule="nonzero"/><path fill="#f4e5e0" d="M 269.9375 150.070312 C 269.9375 150.070312 274.226562 149.371094 276.964844 152.660156 " fill-opacity="1" fill-rule="nonzero"/><path fill="#000000" d="M 277.015625 154.007812 C 276.617188 154.007812 276.269531 153.855469 276.019531 153.507812 C 273.777344 150.816406 270.238281 151.363281 270.1875 151.363281 C 269.488281 151.464844 268.792969 150.964844 268.640625 150.269531 C 268.542969 149.519531 269.042969 148.871094 269.738281 148.722656 C 269.9375 148.671875 274.824219 147.976562 278.011719 151.761719 C 278.460938 152.3125 278.410156 153.160156 277.863281 153.65625 C 277.613281 153.90625 277.316406 154.007812 277.015625 154.007812 Z M 277.015625 154.007812 " fill-opacity="1" fill-rule="nonzero"/><path fill="#f4e5e0" d="M 114.433594 134.816406 C 114.433594 134.816406 101.074219 125.894531 90.90625 135.765625 C 80.738281 145.632812 89.3125 179.523438 120.511719 167.710938 Z M 114.433594 134.816406 " fill-opacity="1" fill-rule="nonzero"/><path fill="#000000" d="M 108.300781 171.550781 C 97.4375 171.550781 91.753906 164.921875 89.511719 161.382812 C 83.929688 152.609375 84.128906 140.449219 89.960938 134.816406 C 100.773438 124.351562 115.03125 133.621094 115.179688 133.722656 L 115.628906 134.019531 L 121.957031 168.609375 L 120.910156 169.007812 C 116.078125 170.804688 111.890625 171.550781 108.300781 171.550781 Z M 102.269531 132.425781 C 98.882812 132.425781 95.144531 133.472656 91.804688 136.710938 C 86.917969 141.445312 86.917969 152.261719 91.753906 159.9375 C 97.1875 168.511719 107.054688 171.003906 118.96875 166.867188 L 113.234375 135.613281 C 111.789062 134.765625 107.402344 132.425781 102.269531 132.425781 Z M 102.269531 132.425781 " fill-opacity="1" fill-rule="nonzero"/><path fill="#f4e5e0" d="M 107.503906 158.441406 C 107.503906 158.441406 106.007812 141.347656 95.941406 142.640625 " fill-opacity="1" fill-rule="nonzero"/><path fill="#000000" d="M 107.503906 159.789062 C 106.804688 159.789062 106.257812 159.289062 106.160156 158.589844 C 106.160156 158.492188 105.261719 148.921875 100.726562 145.285156 C 99.378906 144.1875 97.882812 143.789062 96.089844 143.988281 C 95.390625 144.085938 94.695312 143.539062 94.59375 142.839844 C 94.496094 142.09375 95.042969 141.445312 95.742188 141.347656 C 98.234375 141.046875 100.476562 141.644531 102.371094 143.191406 C 107.804688 147.578125 108.75 157.894531 108.75 158.34375 C 108.800781 159.089844 108.25 159.738281 107.554688 159.789062 C 107.605469 159.789062 107.554688 159.789062 107.503906 159.789062 Z M 107.503906 159.789062 " fill-opacity="1" fill-rule="nonzero"/><path fill="#f4e5e0" d="M 105.113281 150.070312 C 105.113281 150.070312 100.824219 149.371094 98.082031 152.660156 " fill-opacity="1" fill-rule="nonzero"/><path fill="#000000" d="M 98.082031 154.007812 C 97.785156 154.007812 97.484375 153.90625 97.238281 153.707031 C 96.6875 153.257812 96.589844 152.410156 97.085938 151.8125 C 100.277344 147.976562 105.160156 148.722656 105.359375 148.773438 C 106.058594 148.871094 106.558594 149.570312 106.457031 150.269531 C 106.359375 150.964844 105.710938 151.464844 104.960938 151.363281 C 104.8125 151.363281 101.324219 150.867188 99.128906 153.507812 C 98.832031 153.855469 98.484375 154.007812 98.082031 154.007812 Z M 98.082031 154.007812 " fill-opacity="1" fill-rule="nonzero"/><path fill="#f4e5e0" d="M 187.550781 229.914062 C 126.941406 226.375 111.242188 166.316406 108.75 116.375 C 106.855469 78.597656 130.332031 45.203125 163.128906 38.175781 C 179.277344 34.683594 195.824219 34.683594 211.921875 38.175781 C 244.71875 45.25 268.195312 78.597656 266.300781 116.375 C 263.859375 166.316406 248.15625 226.375 187.550781 229.914062 Z M 187.550781 229.914062 " fill-opacity="1" fill-rule="nonzero"/><path fill="#000000" d="M 187.550781 231.261719 L 187.449219 231.261719 C 125.847656 227.671875 109.894531 166.867188 107.402344 116.476562 C 105.511719 78.296875 129.335938 44.105469 162.828125 36.878906 C 179.226562 33.339844 195.824219 33.339844 212.222656 36.878906 C 245.714844 44.105469 269.539062 78.296875 267.644531 116.476562 C 265.152344 166.867188 249.253906 227.671875 187.601562 231.261719 Z M 187.550781 36.878906 C 179.476562 36.878906 171.449219 37.726562 163.425781 39.46875 C 131.179688 46.398438 108.25 79.441406 110.097656 116.324219 C 112.539062 165.621094 127.9375 225.082031 187.550781 228.621094 C 247.160156 225.082031 262.5625 165.621094 265.003906 116.324219 C 266.847656 79.441406 243.921875 46.398438 211.671875 39.46875 C 203.648438 37.726562 195.625 36.878906 187.550781 36.878906 Z M 187.550781 36.878906 " fill-opacity="1" fill-rule="nonzero"/><path fill="#000000" d="M 158.992188 119.316406 C 159.589844 121.359375 155.054688 124.5 148.871094 126.292969 C 142.691406 128.089844 137.210938 127.890625 136.613281 125.847656 C 136.011719 123.800781 140.550781 120.664062 146.730469 118.867188 C 152.859375 117.023438 158.390625 117.273438 158.992188 119.316406 Z M 158.992188 119.316406 " fill-opacity="1" fill-rule="nonzero"/><path fill="#000000" d="M 216.109375 119.316406 C 215.511719 121.359375 220.046875 124.5 226.226562 126.292969 C 232.40625 128.089844 237.890625 127.890625 238.488281 125.847656 C 239.085938 123.800781 234.550781 120.664062 228.371094 118.867188 C 222.191406 117.023438 216.707031 117.273438 216.109375 119.316406 Z M 216.109375 119.316406 " fill-opacity="1" fill-rule="nonzero"/><path fill="#000000" d="M 154.054688 141.496094 C 154.054688 144.984375 151.214844 147.777344 147.777344 147.777344 C 144.289062 147.777344 141.496094 144.933594 141.496094 141.496094 C 141.496094 138.007812 144.335938 135.214844 147.777344 135.214844 C 151.265625 135.214844 154.054688 138.007812 154.054688 141.496094 Z M 154.054688 141.496094 " fill-opacity="1" fill-rule="nonzero"/><path fill="#000000" d="M 233.605469 141.496094 C 233.605469 144.984375 230.761719 147.777344 227.324219 147.777344 C 223.835938 147.777344 221.042969 144.933594 221.042969 141.496094 C 221.042969 138.007812 223.882812 135.214844 227.324219 135.214844 C 230.761719 135.214844 233.605469 138.007812 233.605469 141.496094 Z M 233.605469 141.496094 " fill-opacity="1" fill-rule="nonzero"/><path fill="#f4e5e0" d="M 194.078125 159.789062 C 194.078125 159.789062 180.222656 159.789062 181.070312 168.160156 C 181.816406 175.738281 194.078125 173.097656 194.078125 173.097656 " fill-opacity="1" fill-rule="nonzero"/><path fill="#000000" d="M 189.59375 174.890625 C 187.199219 174.890625 184.410156 174.492188 182.367188 173.046875 C 180.820312 171.898438 179.925781 170.304688 179.726562 168.3125 C 179.523438 166.117188 180.125 164.222656 181.519531 162.679688 C 185.308594 158.492188 193.730469 158.441406 194.078125 158.441406 C 194.828125 158.441406 195.425781 159.039062 195.425781 159.789062 C 195.425781 160.535156 194.828125 161.132812 194.078125 161.132812 C 193.980469 161.132812 186.453125 161.183594 183.460938 164.472656 C 182.566406 165.46875 182.214844 166.617188 182.367188 168.0625 C 182.515625 169.308594 183.015625 170.253906 183.910156 170.902344 C 186.554688 172.847656 191.9375 172.25 193.78125 171.851562 C 194.527344 171.699219 195.226562 172.148438 195.375 172.894531 C 195.523438 173.59375 195.074219 174.339844 194.328125 174.492188 C 194.179688 174.441406 192.136719 174.890625 189.59375 174.890625 Z M 189.59375 174.890625 " fill-opacity="1" fill-rule="nonzero"/><path fill="#f4e5e0" d="M 173.046875 193.980469 C 173.046875 193.980469 174.742188 203.5 187.847656 203.351562 C 200.359375 203.25 202.003906 193.980469 202.003906 193.980469 " fill-opacity="1" fill-rule="nonzero"/><path fill="#000000" d="M 187.601562 204.695312 C 173.792969 204.695312 171.800781 194.328125 171.75 194.230469 C 171.601562 193.480469 172.097656 192.832031 172.847656 192.683594 C 173.542969 192.535156 174.242188 193.03125 174.390625 193.730469 C 174.441406 194.128906 176.136719 202.003906 187.601562 202.003906 C 187.699219 202.003906 187.75 202.003906 187.847656 202.003906 C 199.113281 201.902344 200.707031 193.78125 200.707031 193.730469 C 200.859375 192.984375 201.503906 192.535156 202.253906 192.683594 C 202.949219 192.832031 203.449219 193.480469 203.300781 194.230469 C 203.300781 194.328125 201.304688 204.597656 187.847656 204.695312 C 187.800781 204.695312 187.699219 204.695312 187.601562 204.695312 Z M 187.601562 204.695312 " fill-opacity="1" fill-rule="nonzero"/><path fill="#000000" d="M 95.941406 106.804688 C 95.890625 108.550781 118.96875 115.726562 128.835938 100.773438 C 138.703125 85.824219 131.078125 86.472656 143.789062 82.332031 C 156.5 78.195312 154.054688 56.863281 154.054688 56.863281 C 154.054688 56.863281 172.546875 81.984375 186.503906 81.6875 C 200.457031 81.386719 209.679688 76.253906 218.601562 88.664062 C 227.523438 101.074219 238.339844 104.914062 249.800781 101.074219 C 261.265625 97.238281 277.015625 109.449219 277.015625 109.449219 C 277.015625 109.449219 281.601562 58.160156 241.527344 39.371094 C 201.40625 20.628906 99.328125 12.65625 95.941406 106.804688 Z M 95.941406 106.804688 " fill-opacity="1" fill-rule="nonzero"/><path fill="#000000" d="M 343.304688 373.410156 L 31.792969 373.410156 C 31.792969 373.410156 37.824219 354.171875 56.617188 321.722656 C 56.617188 321.722656 56.617188 321.722656 56.664062 321.722656 C 59.855469 322.371094 181.867188 346.746094 318.433594 321.722656 C 337.273438 354.171875 343.304688 373.410156 343.304688 373.410156 Z M 343.304688 373.410156 " fill-opacity="1" fill-rule="nonzero"/><g clip-path="url(#b1a58d67c6)"><path stroke-linecap="butt" transform="matrix(4.984177, 0, 0, 4.984177, 30.000003, 2.587035)" fill="none" stroke-linejoin="miter" d="M 62.859865 74.400073 L 0.359732 74.400073 C 0.359732 74.400073 1.569811 70.540201 5.340337 64.029754 C 5.340337 64.029754 5.340337 64.029754 5.349742 64.029754 C 5.99005 64.159854 30.469863 69.05033 57.869855 64.029754 C 61.649785 70.540201 62.859865 74.400073 62.859865 74.400073 Z M 62.859865 74.400073 " stroke="#000000" stroke-width="0.532" stroke-opacity="1" stroke-miterlimit="10"/></g><path fill="#000000" d="M 108.648438 270.636719 C 108.648438 270.636719 114.832031 288.578125 108.648438 327.605469 L 125.796875 330.546875 C 125.796875 330.546875 131.277344 300.492188 125.796875 265.703125 C 125.746094 265.703125 113.734375 266.949219 108.648438 270.636719 Z M 108.648438 270.636719 " fill-opacity="1" fill-rule="nonzero"/><path fill="#000000" d="M 266.449219 270.636719 C 266.449219 270.636719 260.269531 288.578125 266.449219 327.605469 L 249.304688 330.546875 C 249.304688 330.546875 243.820312 300.492188 249.304688 265.703125 C 249.304688 265.703125 261.316406 266.949219 266.449219 270.636719 Z M 266.449219 270.636719 " fill-opacity="1" fill-rule="nonzero"/></svg>