<svg xmlns="http://www.w3.org/2000/svg" xmlns:xlink="http://www.w3.org/1999/xlink" width="500" zoomAndPan="magnify" viewBox="0 0 375 374.999991" height="500" preserveAspectRatio="xMidYMid meet" version="1.0"><defs><clipPath id="7347078c49"><path d="M 38.4375 257 L 337.6875 257 L 337.6875 375 L 38.4375 375 Z M 38.4375 257 " clip-rule="nonzero"/></clipPath></defs><path fill="#f4e5e0" d="M 271.292969 94.035156 C 271.292969 94.035156 279.117188 129.015625 261.664062 150.863281 C 261.664062 150.863281 261.476562 107.355469 253.128906 95.886719 Z M 271.292969 94.035156 " fill-opacity="1" fill-rule="nonzero"/><path fill="#000000" d="M 260.335938 154.609375 L 260.335938 150.863281 C 260.335938 150.4375 260.054688 107.640625 252.085938 96.644531 L 250.757812 94.796875 L 272.382812 92.613281 L 272.621094 93.753906 C 272.953125 95.222656 280.398438 129.582031 262.710938 151.667969 Z M 255.359375 96.976562 C 261.382812 108.304688 262.660156 136.40625 262.898438 146.882812 C 275.277344 128.019531 271.292969 101.289062 270.203125 95.507812 Z M 255.359375 96.976562 " fill-opacity="1" fill-rule="nonzero"/><path fill="#f4e5e0" d="M 106.160156 84.652344 C 106.160156 84.652344 95.726562 129.015625 113.226562 150.863281 C 113.226562 150.863281 113.414062 107.355469 121.761719 95.886719 Z M 106.160156 84.652344 " fill-opacity="1" fill-rule="nonzero"/><path fill="#000000" d="M 114.507812 154.609375 L 112.183594 151.667969 C 94.492188 129.582031 104.453125 86.167969 104.878906 84.367188 L 105.355469 82.425781 L 123.613281 95.554688 L 122.851562 96.644531 C 114.886719 107.6875 114.601562 150.4375 114.601562 150.863281 Z M 107.011719 86.929688 C 105.402344 95.175781 100.042969 127.640625 111.945312 146.789062 C 112.230469 135.980469 113.511719 106.976562 119.914062 96.167969 Z M 107.011719 86.929688 " fill-opacity="1" fill-rule="nonzero"/><path fill="#f4e5e0" d="M 336.121094 373.574219 L 39.71875 373.574219 C 39.71875 373.574219 47.875 347.554688 75.144531 305.183594 C 102.367188 262.8125 187.921875 258.59375 187.921875 258.59375 C 187.921875 258.59375 273.472656 262.8125 300.695312 305.183594 C 327.964844 347.554688 336.121094 373.574219 336.121094 373.574219 Z M 336.121094 373.574219 " fill-opacity="1" fill-rule="nonzero"/><path fill="#f4e5e0" d="M 39.71875 373.574219 C 39.71875 373.574219 47.875 347.554688 75.144531 305.183594 C 102.367188 262.8125 187.921875 258.59375 187.921875 258.59375 C 187.921875 258.59375 273.472656 262.8125 300.695312 305.183594 C 327.964844 347.554688 336.121094 373.574219 336.121094 373.574219 " fill-opacity="1" fill-rule="nonzero"/><g clip-path="url(#7347078c49)"><path fill="#000000" d="M 336.121094 374.851562 C 335.601562 374.851562 335.078125 374.519531 334.9375 373.953125 C 334.84375 373.714844 326.496094 347.554688 299.652344 305.84375 C 273.09375 264.515625 188.726562 259.871094 187.871094 259.824219 C 187.160156 259.871094 102.792969 264.515625 76.234375 305.84375 C 49.394531 347.554688 41.046875 373.667969 40.949219 373.953125 C 40.761719 374.617188 40.050781 374.996094 39.386719 374.757812 C 38.722656 374.566406 38.34375 373.855469 38.578125 373.195312 C 38.675781 372.910156 47.117188 346.511719 74.148438 304.519531 C 101.417969 262.101562 184.410156 257.503906 187.921875 257.359375 C 191.570312 257.550781 274.566406 262.101562 301.835938 304.519531 C 328.867188 346.558594 337.308594 372.957031 337.402344 373.195312 C 337.59375 373.855469 337.261719 374.566406 336.597656 374.757812 C 336.359375 374.804688 336.21875 374.851562 336.121094 374.851562 Z M 336.121094 374.851562 " fill-opacity="1" fill-rule="nonzero"/></g><path fill="#f4e5e0" d="M 210.210938 267.359375 C 210.210938 267.359375 210.304688 273.332031 206.605469 281.152344 C 199.300781 296.652344 176.585938 296.652344 169.28125 281.152344 C 165.582031 273.332031 165.679688 267.359375 165.679688 267.359375 C 171.464844 249.539062 168.429688 215.320312 168.429688 215.320312 L 207.507812 215.320312 C 207.460938 215.320312 204.425781 249.539062 210.210938 267.359375 Z M 210.210938 267.359375 " fill-opacity="1" fill-rule="nonzero"/><path fill="#000000" d="M 187.921875 294.042969 C 179.289062 294.042969 171.699219 289.304688 168.097656 281.675781 C 164.300781 273.664062 164.351562 267.597656 164.351562 267.3125 L 164.398438 266.933594 C 170.042969 249.539062 167.101562 215.746094 167.101562 215.414062 L 166.957031 214.042969 L 208.785156 214.042969 L 208.644531 215.414062 C 208.597656 215.746094 205.703125 249.585938 211.347656 266.933594 L 211.394531 267.3125 C 211.394531 267.550781 211.441406 273.664062 207.648438 281.675781 C 204.140625 289.304688 196.550781 294.042969 187.921875 294.042969 Z M 166.863281 267.550781 C 166.910156 268.546875 167.195312 273.902344 170.375 280.632812 C 173.550781 287.359375 180.285156 291.53125 187.921875 291.53125 C 195.554688 291.53125 202.289062 287.359375 205.46875 280.632812 C 208.644531 273.902344 208.929688 268.59375 208.976562 267.550781 C 203.855469 251.484375 205.609375 223.234375 206.132812 216.601562 L 169.804688 216.601562 C 170.230469 223.234375 172.03125 251.484375 166.863281 267.550781 Z M 166.863281 267.550781 " fill-opacity="1" fill-rule="nonzero"/><path fill="#f4e5e0" d="M 257.492188 146.691406 C 257.492188 146.691406 270.203125 138.210938 279.875 147.59375 C 289.550781 156.976562 281.394531 189.207031 251.707031 177.972656 Z M 257.492188 146.691406 " fill-opacity="1" fill-rule="nonzero"/><path fill="#000000" d="M 263.324219 181.621094 C 259.863281 181.621094 255.878906 180.910156 251.28125 179.207031 L 250.285156 178.828125 L 256.308594 145.933594 L 256.734375 145.648438 C 256.875 145.554688 270.4375 136.738281 280.730469 146.691406 C 286.230469 152.046875 286.421875 163.613281 281.15625 171.953125 C 279.023438 175.320312 273.664062 181.621094 263.324219 181.621094 Z M 253.175781 177.167969 C 264.464844 181.101562 273.902344 178.730469 279.070312 170.578125 C 283.671875 163.328125 283.671875 152.996094 279.023438 148.492188 C 271.054688 140.769531 260.90625 146.125 258.628906 147.453125 Z M 253.175781 177.167969 " fill-opacity="1" fill-rule="nonzero"/><path fill="#f4e5e0" d="M 264.035156 169.15625 C 264.035156 169.15625 265.460938 152.902344 275.039062 154.132812 " fill-opacity="1" fill-rule="nonzero"/><path fill="#000000" d="M 264.035156 170.4375 C 263.988281 170.4375 263.941406 170.4375 263.941406 170.4375 C 263.230469 170.390625 262.710938 169.773438 262.804688 169.0625 C 262.851562 168.636719 263.753906 158.824219 268.875 154.65625 C 270.722656 153.1875 272.808594 152.570312 275.183594 152.902344 C 275.894531 152.996094 276.367188 153.613281 276.273438 154.324219 C 276.175781 155.035156 275.511719 155.507812 274.851562 155.414062 C 273.140625 155.222656 271.71875 155.601562 270.4375 156.644531 C 266.125 160.105469 265.269531 169.207031 265.269531 169.300781 C 265.269531 169.964844 264.699219 170.4375 264.035156 170.4375 Z M 264.035156 170.4375 " fill-opacity="1" fill-rule="nonzero"/><path fill="#f4e5e0" d="M 266.3125 161.195312 C 266.3125 161.195312 270.390625 160.53125 273 163.660156 " fill-opacity="1" fill-rule="nonzero"/><path fill="#000000" d="M 273.046875 164.941406 C 272.667969 164.941406 272.335938 164.796875 272.097656 164.464844 C 269.964844 161.90625 266.597656 162.429688 266.550781 162.429688 C 265.886719 162.523438 265.222656 162.050781 265.082031 161.386719 C 264.984375 160.675781 265.460938 160.058594 266.125 159.917969 C 266.3125 159.867188 270.960938 159.207031 273.996094 162.808594 C 274.421875 163.328125 274.375 164.132812 273.855469 164.609375 C 273.617188 164.84375 273.332031 164.941406 273.046875 164.941406 Z M 273.046875 164.941406 " fill-opacity="1" fill-rule="nonzero"/><path fill="#f4e5e0" d="M 118.300781 146.691406 C 118.300781 146.691406 105.589844 138.210938 95.917969 147.59375 C 86.242188 156.976562 94.398438 189.207031 124.085938 177.972656 Z M 118.300781 146.691406 " fill-opacity="1" fill-rule="nonzero"/><path fill="#000000" d="M 112.515625 181.621094 C 102.175781 181.621094 96.769531 175.320312 94.636719 171.953125 C 89.324219 163.613281 89.515625 152.046875 95.0625 146.691406 C 105.355469 136.738281 118.917969 145.554688 119.058594 145.648438 L 119.488281 145.933594 L 125.507812 178.828125 L 124.511719 179.207031 C 119.914062 180.910156 115.929688 181.621094 112.515625 181.621094 Z M 106.777344 144.417969 C 103.550781 144.417969 99.996094 145.414062 96.816406 148.492188 C 92.167969 152.996094 92.167969 163.28125 96.769531 170.578125 C 101.9375 178.730469 111.328125 181.101562 122.664062 177.167969 L 117.210938 147.453125 C 115.835938 146.644531 111.613281 144.417969 106.777344 144.417969 Z M 106.777344 144.417969 " fill-opacity="1" fill-rule="nonzero"/><path fill="#f4e5e0" d="M 111.757812 169.15625 C 111.757812 169.15625 110.332031 152.902344 100.753906 154.132812 " fill-opacity="1" fill-rule="nonzero"/><path fill="#000000" d="M 111.757812 170.4375 C 111.09375 170.4375 110.570312 169.964844 110.476562 169.300781 C 110.476562 169.207031 109.621094 160.105469 105.304688 156.644531 C 104.027344 155.601562 102.601562 155.222656 100.894531 155.414062 C 100.183594 155.507812 99.566406 155.035156 99.472656 154.324219 C 99.378906 153.613281 99.851562 152.996094 100.5625 152.902344 C 102.933594 152.617188 105.070312 153.1875 106.871094 154.65625 C 112.039062 158.824219 112.941406 168.636719 112.941406 169.0625 C 112.988281 169.773438 112.46875 170.390625 111.804688 170.4375 C 111.851562 170.4375 111.804688 170.4375 111.757812 170.4375 Z M 111.757812 170.4375 " fill-opacity="1" fill-rule="nonzero"/><path fill="#f4e5e0" d="M 109.480469 161.195312 C 109.480469 161.195312 105.402344 160.53125 102.792969 163.660156 " fill-opacity="1" fill-rule="nonzero"/><path fill="#000000" d="M 102.792969 164.941406 C 102.507812 164.941406 102.222656 164.84375 101.988281 164.65625 C 101.464844 164.230469 101.371094 163.421875 101.84375 162.855469 C 104.878906 159.207031 109.527344 159.917969 109.71875 159.964844 C 110.429688 160.058594 110.855469 160.722656 110.761719 161.386719 C 110.664062 162.097656 110 162.523438 109.335938 162.429688 C 109.195312 162.429688 105.921875 161.953125 103.789062 164.464844 C 103.503906 164.796875 103.125 164.941406 102.792969 164.941406 Z M 102.792969 164.941406 " fill-opacity="1" fill-rule="nonzero"/><path fill="#f4e5e0" d="M 187.921875 237.121094 C 130.25 233.757812 115.3125 176.648438 112.941406 129.15625 C 111.140625 93.230469 133.476562 61.476562 164.683594 54.792969 C 180.046875 51.476562 195.792969 51.476562 211.109375 54.792969 C 242.316406 61.523438 264.652344 93.230469 262.851562 129.15625 C 260.527344 176.648438 245.589844 233.757812 187.921875 237.121094 Z M 187.921875 237.121094 " fill-opacity="1" fill-rule="nonzero"/><path fill="#000000" d="M 187.921875 238.402344 L 187.824219 238.402344 C 129.207031 234.988281 114.03125 177.121094 111.660156 129.203125 C 109.859375 92.898438 132.527344 60.386719 164.398438 53.515625 C 180 50.148438 195.792969 50.148438 211.394531 53.515625 C 243.265625 60.386719 265.933594 92.898438 264.132812 129.203125 C 261.761719 177.121094 246.632812 234.941406 187.96875 238.355469 Z M 187.921875 53.5625 C 180.238281 53.5625 172.601562 54.367188 164.964844 56.027344 C 134.28125 62.613281 112.46875 94.035156 114.222656 129.109375 C 116.546875 175.984375 131.246094 232.523438 187.921875 235.890625 C 244.640625 232.523438 259.292969 175.984375 261.617188 129.109375 C 263.371094 94.035156 241.558594 62.613281 210.875 56.027344 C 203.238281 54.367188 195.554688 53.5625 187.921875 53.5625 Z M 187.921875 53.5625 " fill-opacity="1" fill-rule="nonzero"/><path fill="#000000" d="M 214.714844 132.472656 C 214.953125 134.511719 220.074219 135.554688 226.144531 134.890625 C 232.214844 134.179688 237.003906 132 236.769531 129.960938 C 236.53125 127.925781 231.410156 126.882812 225.339844 127.546875 C 219.21875 128.257812 214.476562 130.4375 214.714844 132.472656 Z M 214.714844 132.472656 " fill-opacity="1" fill-rule="nonzero"/><path fill="#000000" d="M 161.078125 132.472656 C 160.839844 134.511719 155.71875 135.554688 149.648438 134.890625 C 143.578125 134.179688 138.789062 132 139.023438 129.960938 C 139.261719 127.925781 144.382812 126.882812 150.453125 127.546875 C 156.574219 128.257812 161.316406 130.4375 161.078125 132.472656 Z M 161.078125 132.472656 " fill-opacity="1" fill-rule="nonzero"/><path fill="#000000" d="M 156.050781 153.042969 C 156.050781 156.363281 153.347656 159.015625 150.074219 159.015625 C 146.753906 159.015625 144.101562 156.3125 144.101562 153.042969 C 144.101562 149.726562 146.804688 147.070312 150.074219 147.070312 C 153.394531 147.070312 156.050781 149.726562 156.050781 153.042969 Z M 156.050781 153.042969 " fill-opacity="1" fill-rule="nonzero"/><path fill="#000000" d="M 231.742188 153.042969 C 231.742188 156.363281 229.039062 159.015625 225.765625 159.015625 C 222.445312 159.015625 219.789062 156.3125 219.789062 153.042969 C 219.789062 149.726562 222.492188 147.070312 225.765625 147.070312 C 229.039062 147.070312 231.742188 149.726562 231.742188 153.042969 Z M 231.742188 153.042969 " fill-opacity="1" fill-rule="nonzero"/><path fill="#f4e5e0" d="M 194.132812 170.4375 C 194.132812 170.4375 180.949219 170.4375 181.753906 178.398438 C 182.464844 185.605469 194.132812 183.09375 194.132812 183.09375 " fill-opacity="1" fill-rule="nonzero"/><path fill="#000000" d="M 189.863281 184.796875 C 187.589844 184.796875 184.933594 184.417969 182.988281 183.042969 C 181.519531 181.953125 180.664062 180.4375 180.472656 178.542969 C 180.285156 176.457031 180.855469 174.65625 182.183594 173.1875 C 185.785156 169.207031 193.800781 169.15625 194.132812 169.15625 C 194.84375 169.15625 195.414062 169.726562 195.414062 170.4375 C 195.414062 171.148438 194.84375 171.71875 194.132812 171.71875 C 194.039062 171.71875 186.875 171.765625 184.03125 174.894531 C 183.175781 175.839844 182.847656 176.929688 182.988281 178.304688 C 183.128906 179.492188 183.605469 180.390625 184.457031 181.007812 C 186.972656 182.855469 192.09375 182.285156 193.847656 181.90625 C 194.511719 181.765625 195.222656 182.191406 195.367188 182.902344 C 195.507812 183.566406 195.082031 184.277344 194.371094 184.417969 C 194.226562 184.371094 192.234375 184.796875 189.863281 184.796875 Z M 189.863281 184.796875 " fill-opacity="1" fill-rule="nonzero"/><path fill="#f4e5e0" d="M 279.828125 293.476562 C 279.828125 293.476562 275.371094 323.761719 279.828125 373.574219 " fill-opacity="1" fill-rule="nonzero"/><path fill="#000000" d="M 279.828125 374.851562 C 279.164062 374.851562 278.644531 374.378906 278.550781 373.714844 C 274.136719 324.328125 278.5 293.617188 278.550781 293.332031 C 278.644531 292.621094 279.308594 292.148438 279.972656 292.242188 C 280.683594 292.335938 281.15625 293 281.0625 293.664062 C 281.015625 293.949219 276.699219 324.425781 281.0625 373.476562 C 281.109375 374.1875 280.589844 374.804688 279.925781 374.851562 C 279.925781 374.851562 279.875 374.851562 279.828125 374.851562 Z M 279.828125 374.851562 " fill-opacity="1" fill-rule="nonzero"/><path fill="#f4e5e0" d="M 98.289062 293.476562 C 98.289062 293.476562 102.746094 323.761719 98.289062 373.574219 " fill-opacity="1" fill-rule="nonzero"/><path fill="#000000" d="M 98.289062 374.851562 C 98.238281 374.851562 98.191406 374.851562 98.191406 374.851562 C 97.480469 374.804688 97.007812 374.1875 97.054688 373.476562 C 101.417969 324.375 97.101562 293.996094 97.054688 293.664062 C 96.960938 292.953125 97.433594 292.335938 98.144531 292.242188 C 98.808594 292.148438 99.472656 292.621094 99.566406 293.332031 C 99.617188 293.617188 103.976562 324.328125 99.566406 373.714844 C 99.472656 374.332031 98.953125 374.851562 98.289062 374.851562 Z M 98.289062 374.851562 " fill-opacity="1" fill-rule="nonzero"/><path fill="#000000" d="M 133.097656 91.097656 C 133.097656 91.097656 141.539062 111.953125 153.109375 112.617188 C 164.683594 113.28125 153.109375 88.351562 153.109375 88.351562 C 153.109375 88.351562 162.261719 108.539062 194.65625 112.617188 C 227.046875 116.691406 212.203125 97.542969 212.203125 97.542969 C 212.203125 97.542969 227.664062 116.027344 245.492188 116.027344 C 263.371094 116.027344 247.011719 97.210938 247.011719 97.210938 C 247.011719 97.210938 274.851562 111.574219 284.097656 102.1875 C 293.34375 92.804688 263.988281 75.363281 263.988281 75.363281 C 263.988281 75.363281 281.867188 79.109375 280.019531 68.539062 C 278.21875 57.921875 242.507812 38.441406 209.5 39.816406 C 209.5 39.816406 231.265625 36.738281 230.980469 28.539062 C 230.699219 20.335938 184.648438 25.125 170.753906 37.777344 C 170.753906 37.777344 194.703125 19.675781 190.765625 10.101562 C 186.828125 0.527344 139.308594 12.46875 125.082031 50.101562 C 125.082031 50.101562 113.273438 47.351562 95.394531 69.25 C 77.515625 91.144531 109.859375 84.652344 109.859375 84.652344 C 109.859375 84.652344 91.457031 110.292969 104.785156 116.125 C 118.015625 121.859375 133.097656 91.097656 133.097656 91.097656 Z M 133.097656 91.097656 " fill-opacity="1" fill-rule="nonzero"/><path fill="#000000" d="M 214.714844 261.863281 C 214.714844 261.863281 223.820312 308.214844 219.742188 373.574219 L 233.449219 373.574219 C 233.449219 373.574219 237.714844 304.042969 228.324219 264.613281 Z M 214.714844 261.863281 " fill-opacity="1" fill-rule="nonzero"/><path fill="#000000" d="M 160.792969 261.863281 C 160.792969 261.863281 151.6875 308.214844 155.765625 373.574219 L 142.058594 373.574219 C 142.058594 373.574219 137.792969 304.042969 147.183594 264.613281 Z M 160.792969 261.863281 " fill-opacity="1" fill-rule="nonzero"/><path fill="#000000" d="M 245.589844 146.410156 C 245.160156 155.746094 241.746094 170.011719 225.574219 172.523438 C 224.105469 172.761719 222.683594 172.855469 221.355469 172.855469 C 218.746094 172.902344 216.328125 172.523438 214.195312 171.765625 C 212.816406 171.339844 211.585938 170.816406 210.445312 170.199219 C 207.128906 168.445312 204.425781 165.886719 202.335938 162.996094 C 198.828125 158.304688 196.789062 152.664062 195.839844 147.734375 C 194.890625 142.757812 198.636719 138.257812 203.664062 138.257812 L 237.621094 138.257812 C 238.378906 138.257812 239.089844 138.351562 239.804688 138.589844 C 243.265625 139.488281 245.730469 142.710938 245.589844 146.410156 Z M 245.589844 146.410156 " fill-opacity="1" fill-rule="nonzero"/><path fill="#000000" d="M 220.832031 174.324219 C 218.320312 174.324219 215.902344 173.945312 213.71875 173.140625 C 212.105469 172.617188 210.828125 172.097656 209.734375 171.433594 C 206.511719 169.726562 203.617188 167.167969 201.152344 163.851562 C 197.878906 159.488281 195.507812 153.847656 194.417969 147.972656 C 193.894531 145.175781 194.605469 142.285156 196.410156 140.152344 C 198.210938 138.019531 200.820312 136.789062 203.617188 136.789062 L 237.621094 136.789062 C 238.523438 136.789062 239.375 136.929688 240.230469 137.167969 C 244.355469 138.257812 247.25 142.191406 247.058594 146.457031 C 246.632812 155.554688 243.3125 171.242188 225.8125 173.945312 C 224.058594 174.230469 222.351562 174.324219 220.832031 174.324219 Z M 203.617188 139.679688 C 201.671875 139.679688 199.871094 140.53125 198.636719 142 C 197.40625 143.515625 196.882812 145.507812 197.261719 147.453125 C 198.257812 152.902344 200.488281 158.113281 203.476562 162.144531 C 205.65625 165.128906 208.265625 167.40625 211.109375 168.921875 C 212.105469 169.488281 213.199219 169.964844 214.621094 170.390625 C 216.660156 171.101562 218.9375 171.433594 221.308594 171.433594 C 222.585938 171.433594 223.914062 171.339844 225.339844 171.101562 C 240.039062 168.828125 243.644531 156.363281 244.117188 146.359375 C 244.261719 143.421875 242.269531 140.769531 239.421875 139.960938 C 238.808594 139.773438 238.238281 139.679688 237.621094 139.679688 Z M 203.617188 139.679688 " fill-opacity="1" fill-rule="nonzero"/><path fill="#f4e5e0" d="M 227.710938 138.210938 C 225.289062 142.804688 222.304688 147.214844 219.882812 151.667969 C 216.613281 157.785156 213.433594 163.945312 210.445312 170.152344 C 207.128906 168.398438 204.425781 165.839844 202.335938 162.949219 C 204.519531 158.496094 206.746094 153.992188 209.117188 149.585938 C 211.0625 145.886719 213.578125 142.046875 215.902344 138.160156 L 227.710938 138.160156 Z M 227.710938 138.210938 " fill-opacity="1" fill-rule="nonzero"/><path fill="#f4e5e0" d="M 239.804688 138.539062 C 237.242188 143.945312 233.734375 149.0625 230.980469 154.179688 C 227.664062 160.296875 224.484375 166.550781 221.355469 172.855469 C 218.746094 172.902344 216.328125 172.523438 214.195312 171.765625 C 217.039062 165.699219 220.027344 159.773438 223.203125 153.898438 C 225.859375 148.824219 229.511719 143.660156 232.308594 138.257812 L 237.621094 138.257812 C 238.378906 138.210938 239.089844 138.351562 239.804688 138.539062 Z M 239.804688 138.539062 " fill-opacity="1" fill-rule="nonzero"/><path fill="#000000" d="M 180.046875 147.734375 C 179.097656 152.710938 177.058594 158.304688 173.550781 162.996094 C 171.417969 165.886719 168.761719 168.445312 165.441406 170.199219 C 164.300781 170.863281 163.023438 171.339844 161.695312 171.765625 C 160.222656 172.332031 158.660156 172.617188 156.953125 172.808594 C 156.191406 172.855469 155.386719 172.855469 154.53125 172.855469 C 153.207031 172.855469 151.78125 172.761719 150.3125 172.523438 C 149.742188 172.476562 149.269531 172.382812 148.792969 172.191406 C 147.230469 171.90625 145.757812 171.433594 144.433594 170.863281 C 140.210938 169.109375 137.222656 166.3125 135.089844 163.140625 C 131.578125 157.925781 130.488281 151.433594 130.300781 146.410156 C 130.15625 142.710938 132.621094 139.488281 136.085938 138.539062 C 136.796875 138.304688 137.507812 138.210938 138.265625 138.210938 L 172.269531 138.210938 C 172.695312 138.210938 173.078125 138.257812 173.457031 138.304688 C 177.820312 139.015625 180.902344 143.136719 180.046875 147.734375 Z M 180.046875 147.734375 " fill-opacity="1" fill-rule="nonzero"/><path fill="#f4e5e0" d="M 159.988281 138.210938 C 157.804688 142.425781 155.433594 146.597656 153.488281 150.816406 C 150.359375 157.402344 147.324219 164.132812 144.382812 170.910156 C 140.164062 169.15625 137.175781 166.363281 135.042969 163.1875 C 137.222656 158.164062 139.40625 153.28125 141.777344 148.304688 C 143.292969 145.035156 145.144531 141.714844 146.992188 138.257812 L 159.988281 138.257812 Z M 159.988281 138.210938 " fill-opacity="1" fill-rule="nonzero"/><path fill="#f4e5e0" d="M 173.410156 138.351562 C 170.894531 143.660156 167.953125 148.777344 165.488281 153.898438 C 162.546875 160.105469 159.65625 166.457031 156.855469 172.808594 C 156.097656 172.855469 155.292969 172.855469 154.4375 172.855469 C 153.109375 172.855469 151.6875 172.761719 150.21875 172.523438 C 149.648438 172.476562 149.175781 172.382812 148.699219 172.191406 C 151.308594 165.839844 154.105469 159.632812 157.046875 153.46875 C 159.324219 148.492188 162.40625 143.421875 165.015625 138.210938 L 172.175781 138.210938 C 172.648438 138.210938 173.027344 138.304688 173.410156 138.351562 Z M 173.410156 138.351562 " fill-opacity="1" fill-rule="nonzero"/><path fill="#000000" d="M 150.027344 173.992188 C 132.527344 171.289062 129.207031 155.601562 128.78125 146.503906 C 128.59375 142.238281 131.484375 138.304688 135.609375 137.214844 C 136.464844 136.929688 137.316406 136.835938 138.21875 136.835938 L 172.222656 136.835938 C 175.019531 136.835938 177.675781 138.066406 179.429688 140.199219 C 181.234375 142.378906 181.945312 145.222656 181.421875 148.019531 C 180.332031 153.898438 177.914062 159.488281 174.6875 163.898438 C 172.222656 167.261719 169.328125 169.820312 166.105469 171.480469 C 165.015625 172.097656 163.6875 172.664062 162.121094 173.1875 C 159.941406 173.992188 157.519531 174.371094 155.007812 174.371094 C 153.441406 174.324219 151.78125 174.230469 150.027344 173.992188 Z M 138.171875 139.679688 C 137.554688 139.679688 136.984375 139.773438 136.371094 139.960938 C 133.523438 140.722656 131.53125 143.421875 131.675781 146.359375 C 132.148438 156.410156 135.800781 168.828125 150.453125 171.101562 C 151.828125 171.289062 153.207031 171.433594 154.484375 171.433594 C 156.855469 171.480469 159.132812 171.148438 161.171875 170.390625 C 162.59375 169.917969 163.734375 169.441406 164.683594 168.921875 C 167.527344 167.40625 170.136719 165.128906 172.316406 162.144531 C 175.304688 158.113281 177.535156 152.902344 178.53125 147.453125 C 178.910156 145.507812 178.386719 143.515625 177.15625 142 C 175.921875 140.53125 174.121094 139.679688 172.175781 139.679688 Z M 138.171875 139.679688 " fill-opacity="1" fill-rule="nonzero"/><path fill="#000000" d="M 199.539062 142.046875 C 186.355469 134.796875 177.203125 141.667969 176.824219 141.953125 L 175.257812 139.960938 C 175.683594 139.632812 186.023438 131.761719 200.726562 139.867188 Z M 199.539062 142.046875 " fill-opacity="1" fill-rule="nonzero"/><path fill="#000000" d="M 243.40625 141.90625 L 262.945312 141.90625 L 262.945312 144.417969 L 243.40625 144.417969 Z M 243.40625 141.90625 " fill-opacity="1" fill-rule="nonzero"/><path fill="#000000" d="M 112.847656 141.90625 L 132.386719 141.90625 L 132.386719 144.417969 L 112.847656 144.417969 Z M 112.847656 141.90625 " fill-opacity="1" fill-rule="nonzero"/><path fill="#f4e5e0" d="M 162.925781 199.917969 C 162.925781 199.917969 164.445312 208.070312 180.191406 212.003906 " fill-opacity="1" fill-rule="nonzero"/><path fill="#000000" d="M 180.191406 213.28125 C 180.09375 213.28125 180 213.28125 179.90625 213.234375 C 163.589844 209.160156 161.789062 200.535156 161.695312 200.15625 C 161.550781 199.492188 162.027344 198.828125 162.691406 198.683594 C 163.355469 198.542969 164.019531 199.015625 164.160156 199.679688 C 164.160156 199.773438 165.914062 207.167969 180.472656 210.816406 C 181.136719 211.007812 181.566406 211.671875 181.375 212.335938 C 181.234375 212.902344 180.757812 213.28125 180.191406 213.28125 Z M 180.191406 213.28125 " fill-opacity="1" fill-rule="nonzero"/></svg>