<svg xmlns="http://www.w3.org/2000/svg" xmlns:xlink="http://www.w3.org/1999/xlink" width="500" zoomAndPan="magnify" viewBox="0 0 375 374.999991" height="500" preserveAspectRatio="xMidYMid meet" version="1.0"><defs><clipPath id="0c4b338db2"><path d="M 36.09375 256 L 339 256 L 339 375 L 36.09375 375 Z M 36.09375 256 " clip-rule="nonzero"/></clipPath></defs><path fill="#000000" d="M 272.300781 46.988281 C 272.300781 46.988281 280.460938 54.1875 285.601562 73.382812 C 290.691406 92.578125 298.277344 95.214844 301.925781 97.664062 C 305.625 100.113281 291.316406 105.007812 286.175781 101.121094 C 281.085938 97.230469 294.148438 109.710938 289.441406 127.035156 C 284.734375 144.40625 279.980469 126.027344 279.980469 126.027344 C 279.980469 126.027344 278.636719 148.484375 272.300781 162.785156 C 265.960938 177.085938 272.492188 190.140625 275.566406 191.578125 C 278.636719 193.019531 262.695312 199.929688 245.3125 176.894531 C 227.929688 153.8125 231.433594 50.296875 231.433594 50.296875 Z M 272.300781 46.988281 " fill-opacity="1" fill-rule="nonzero"/><path fill="#000000" d="M 102.550781 46.988281 C 102.550781 46.988281 94.390625 54.1875 89.25 73.382812 C 84.160156 92.578125 76.574219 95.214844 72.925781 97.664062 C 69.226562 100.113281 83.535156 105.007812 88.675781 101.121094 C 93.765625 97.230469 80.703125 109.710938 85.410156 127.035156 C 90.113281 144.40625 94.867188 126.027344 94.867188 126.027344 C 94.867188 126.027344 96.214844 148.484375 102.550781 162.785156 C 108.890625 177.085938 102.359375 190.140625 99.285156 191.578125 C 96.214844 193.019531 112.15625 199.929688 129.539062 176.894531 C 146.921875 153.859375 143.417969 50.296875 143.417969 50.296875 Z M 102.550781 46.988281 " fill-opacity="1" fill-rule="nonzero"/><path fill="#f4e5e0" d="M 337.507812 373.792969 L 37.390625 373.792969 C 37.390625 373.792969 45.648438 347.449219 73.261719 304.546875 C 100.824219 261.644531 187.449219 257.371094 187.449219 257.371094 C 187.449219 257.371094 274.074219 261.644531 301.640625 304.546875 C 329.25 347.449219 337.507812 373.792969 337.507812 373.792969 Z M 337.507812 373.792969 " fill-opacity="1" fill-rule="nonzero"/><path fill="#f4e5e0" d="M 37.390625 373.792969 C 37.390625 373.792969 45.648438 347.449219 73.261719 304.546875 C 100.824219 261.644531 187.449219 257.371094 187.449219 257.371094 C 187.449219 257.371094 274.074219 261.644531 301.640625 304.546875 C 329.25 347.449219 337.507812 373.792969 337.507812 373.792969 " fill-opacity="1" fill-rule="nonzero"/><g clip-path="url(#0c4b338db2)"><path fill="#000000" d="M 337.507812 375.042969 C 336.980469 375.042969 336.453125 374.707031 336.308594 374.128906 C 336.210938 373.890625 327.761719 347.398438 300.582031 305.167969 C 273.691406 263.324219 188.265625 258.621094 187.402344 258.570312 C 186.679688 258.621094 101.253906 263.324219 74.363281 305.167969 C 47.1875 347.398438 38.734375 373.84375 38.640625 374.128906 C 38.445312 374.800781 37.726562 375.1875 37.054688 374.945312 C 36.382812 374.753906 35.996094 374.035156 36.238281 373.363281 C 36.332031 373.121094 44.882812 346.34375 72.253906 303.824219 C 99.863281 260.875 183.894531 256.21875 187.449219 256.078125 C 191.148438 256.269531 275.179688 260.875 302.792969 303.824219 C 330.164062 346.390625 338.710938 373.121094 338.804688 373.363281 C 338.996094 374.035156 338.660156 374.753906 337.988281 374.945312 C 337.75 375.042969 337.605469 375.042969 337.507812 375.042969 Z M 337.507812 375.042969 " fill-opacity="1" fill-rule="nonzero"/></g><path fill="#000000" d="M 224.808594 262.652344 C 222.503906 274.695312 214.484375 299.507812 187.402344 299.9375 C 160.269531 300.417969 152.25 275.03125 149.945312 262.699219 C 170.882812 258.1875 187.402344 257.371094 187.402344 257.371094 C 187.402344 257.371094 203.921875 258.1875 224.808594 262.652344 Z M 224.808594 262.652344 " fill-opacity="1" fill-rule="nonzero"/><path fill="#f4e5e0" d="M 210.019531 266.25 C 210.019531 266.25 210.019531 267.066406 209.875 268.457031 C 206.753906 294.515625 168.195312 294.515625 165.074219 268.457031 C 164.929688 267.066406 164.929688 266.25 164.929688 266.25 C 170.738281 248.207031 167.664062 213.558594 167.664062 213.558594 L 207.234375 213.558594 C 207.234375 213.558594 204.160156 248.207031 210.019531 266.25 Z M 210.019531 266.25 " fill-opacity="1" fill-rule="nonzero"/><path fill="#000000" d="M 187.449219 289.238281 C 176.886719 289.238281 165.457031 282.855469 163.777344 268.554688 C 163.585938 267.066406 163.585938 266.203125 163.585938 266.203125 L 163.632812 265.820312 C 169.347656 248.207031 166.371094 213.988281 166.371094 213.605469 L 166.226562 212.214844 L 208.578125 212.214844 L 208.480469 213.652344 C 208.433594 213.988281 205.503906 248.253906 211.21875 265.867188 L 211.265625 266.25 C 211.265625 266.25 211.265625 267.113281 211.074219 268.601562 C 209.394531 282.855469 197.964844 289.238281 187.449219 289.238281 Z M 166.128906 266.441406 C 166.128906 266.730469 166.175781 267.355469 166.273438 268.265625 C 167.808594 280.984375 177.988281 286.695312 187.402344 286.695312 C 196.8125 286.695312 207.042969 280.984375 208.53125 268.265625 C 208.625 267.355469 208.675781 266.730469 208.675781 266.441406 C 203.488281 250.175781 205.265625 221.523438 205.792969 214.855469 L 169.011719 214.855469 C 169.539062 221.523438 171.316406 250.175781 166.128906 266.441406 Z M 166.128906 266.441406 " fill-opacity="1" fill-rule="nonzero"/><path fill="#f4e5e0" d="M 257.894531 144.070312 C 257.894531 144.070312 270.761719 135.480469 280.558594 144.980469 C 290.355469 154.484375 282.09375 187.117188 252.035156 175.742188 Z M 257.894531 144.070312 " fill-opacity="1" fill-rule="nonzero"/><path fill="#000000" d="M 263.800781 179.4375 C 260.34375 179.4375 256.261719 178.71875 251.652344 176.992188 L 250.644531 176.605469 L 256.742188 143.300781 L 257.171875 143.015625 C 257.316406 142.917969 271.003906 133.992188 281.472656 144.070312 C 287.042969 149.492188 287.234375 161.203125 281.902344 169.648438 C 279.695312 173.054688 274.269531 179.4375 263.800781 179.4375 Z M 253.523438 174.925781 C 264.953125 178.910156 274.507812 176.511719 279.742188 168.257812 C 284.398438 160.867188 284.398438 150.453125 279.695312 145.894531 C 271.722656 138.167969 261.304688 143.542969 259.046875 144.835938 Z M 253.523438 174.925781 " fill-opacity="1" fill-rule="nonzero"/><path fill="#f4e5e0" d="M 264.519531 166.816406 C 264.519531 166.816406 265.960938 150.355469 275.660156 151.605469 " fill-opacity="1" fill-rule="nonzero"/><path fill="#000000" d="M 264.519531 168.113281 C 264.472656 168.113281 264.425781 168.113281 264.425781 168.113281 C 263.703125 168.0625 263.222656 167.441406 263.273438 166.71875 C 263.320312 166.289062 264.230469 156.355469 269.417969 152.132812 C 271.289062 150.644531 273.453125 150.019531 275.804688 150.308594 C 276.523438 150.402344 277.003906 151.027344 276.910156 151.746094 C 276.8125 152.46875 276.140625 152.898438 275.46875 152.851562 C 273.738281 152.660156 272.300781 153.042969 271.003906 154.097656 C 266.632812 157.652344 265.769531 166.816406 265.769531 166.914062 C 265.71875 167.585938 265.191406 168.113281 264.519531 168.113281 Z M 264.519531 168.113281 " fill-opacity="1" fill-rule="nonzero"/><path fill="#f4e5e0" d="M 266.824219 158.753906 C 266.824219 158.753906 270.953125 158.082031 273.597656 161.25 " fill-opacity="1" fill-rule="nonzero"/><path fill="#000000" d="M 273.597656 162.546875 C 273.210938 162.546875 272.875 162.402344 272.636719 162.066406 C 270.472656 159.472656 267.066406 160.003906 267.015625 160.003906 C 266.34375 160.144531 265.671875 159.617188 265.578125 158.945312 C 265.480469 158.273438 265.960938 157.601562 266.632812 157.507812 C 266.824219 157.457031 271.53125 156.785156 274.605469 160.433594 C 275.035156 160.960938 274.988281 161.777344 274.460938 162.257812 C 274.21875 162.449219 273.882812 162.546875 273.597656 162.546875 Z M 273.597656 162.546875 " fill-opacity="1" fill-rule="nonzero"/><path fill="#f4e5e0" d="M 116.957031 144.070312 C 116.957031 144.070312 104.089844 135.480469 94.292969 144.980469 C 84.496094 154.484375 92.757812 187.117188 122.816406 175.742188 Z M 116.957031 144.070312 " fill-opacity="1" fill-rule="nonzero"/><path fill="#000000" d="M 111.097656 179.4375 C 100.632812 179.4375 95.15625 173.054688 92.996094 169.648438 C 87.617188 161.203125 87.808594 149.492188 93.429688 144.070312 C 103.847656 133.945312 117.582031 142.917969 117.726562 143.015625 L 118.160156 143.300781 L 124.257812 176.605469 L 123.25 176.992188 C 118.589844 178.71875 114.558594 179.4375 111.097656 179.4375 Z M 105.289062 141.765625 C 102.023438 141.765625 98.421875 142.773438 95.207031 145.894531 C 90.5 150.453125 90.5 160.867188 95.15625 168.257812 C 100.390625 176.511719 109.898438 178.910156 121.375 174.925781 L 115.851562 144.835938 C 114.460938 144.023438 110.1875 141.765625 105.289062 141.765625 Z M 105.289062 141.765625 " fill-opacity="1" fill-rule="nonzero"/><path fill="#f4e5e0" d="M 110.332031 166.816406 C 110.332031 166.816406 108.890625 150.355469 99.191406 151.605469 " fill-opacity="1" fill-rule="nonzero"/><path fill="#000000" d="M 110.332031 168.113281 C 109.660156 168.113281 109.128906 167.632812 109.035156 166.960938 C 109.035156 166.863281 108.171875 157.652344 103.800781 154.148438 C 102.503906 153.089844 101.0625 152.707031 99.335938 152.898438 C 98.664062 152.949219 97.992188 152.46875 97.894531 151.796875 C 97.796875 151.074219 98.328125 150.453125 99 150.355469 C 101.398438 150.066406 103.558594 150.644531 105.386719 152.179688 C 110.621094 156.402344 111.53125 166.335938 111.53125 166.769531 C 111.578125 167.488281 111.050781 168.113281 110.378906 168.160156 C 110.425781 168.113281 110.378906 168.113281 110.332031 168.113281 Z M 110.332031 168.113281 " fill-opacity="1" fill-rule="nonzero"/><path fill="#f4e5e0" d="M 108.027344 158.753906 C 108.027344 158.753906 103.898438 158.082031 101.253906 161.25 " fill-opacity="1" fill-rule="nonzero"/><path fill="#000000" d="M 101.253906 162.546875 C 100.96875 162.546875 100.679688 162.449219 100.4375 162.257812 C 99.910156 161.824219 99.816406 161.011719 100.296875 160.433594 C 103.367188 156.738281 108.074219 157.457031 108.265625 157.507812 C 108.988281 157.601562 109.417969 158.273438 109.324219 158.945312 C 109.226562 159.667969 108.554688 160.097656 107.882812 160.003906 C 107.738281 159.953125 104.425781 159.523438 102.265625 162.066406 C 101.976562 162.402344 101.589844 162.546875 101.253906 162.546875 Z M 101.253906 162.546875 " fill-opacity="1" fill-rule="nonzero"/><path fill="#f4e5e0" d="M 187.449219 235.632812 C 129.011719 232.226562 113.882812 174.398438 111.53125 126.3125 C 109.707031 89.9375 132.324219 57.785156 163.921875 50.96875 C 179.480469 47.609375 195.421875 47.609375 210.929688 50.96875 C 242.527344 57.785156 265.144531 89.890625 263.320312 126.265625 C 260.964844 174.398438 245.839844 232.226562 187.449219 235.632812 Z M 187.449219 235.632812 " fill-opacity="1" fill-rule="nonzero"/><path fill="#000000" d="M 187.449219 236.882812 L 187.355469 236.882812 C 128.003906 233.425781 112.636719 174.878906 110.234375 126.363281 C 108.410156 89.601562 131.363281 56.679688 163.632812 49.722656 C 179.429688 46.316406 195.421875 46.316406 211.21875 49.722656 C 243.488281 56.679688 266.441406 89.601562 264.617188 126.363281 C 262.214844 174.878906 246.847656 233.425781 187.496094 236.882812 Z M 187.449219 49.769531 C 179.671875 49.769531 171.890625 50.585938 164.207031 52.265625 C 133.140625 58.9375 111.050781 90.753906 112.828125 126.265625 C 115.179688 173.726562 130.066406 230.976562 187.449219 234.386719 C 244.878906 230.976562 259.71875 173.726562 262.070312 126.265625 C 263.847656 90.753906 241.757812 58.9375 210.691406 52.265625 C 202.960938 50.585938 195.179688 49.769531 187.449219 49.769531 Z M 187.449219 49.769531 " fill-opacity="1" fill-rule="nonzero"/><path fill="#000000" d="M 159.886719 129.144531 C 160.464844 131.113281 156.09375 134.136719 150.140625 135.863281 C 144.183594 137.589844 138.902344 137.398438 138.328125 135.429688 C 137.75 133.464844 142.121094 130.441406 148.074219 128.714844 C 154.027344 126.9375 159.308594 127.128906 159.886719 129.144531 Z M 159.886719 129.144531 " fill-opacity="1" fill-rule="nonzero"/><path fill="#000000" d="M 214.964844 129.144531 C 214.386719 131.113281 218.757812 134.136719 224.710938 135.863281 C 230.667969 137.589844 235.949219 137.398438 236.523438 135.429688 C 237.101562 133.464844 232.730469 130.441406 226.777344 128.714844 C 220.824219 126.9375 215.539062 127.128906 214.964844 129.144531 Z M 214.964844 129.144531 " fill-opacity="1" fill-rule="nonzero"/><path fill="#000000" d="M 155.179688 150.5 C 155.179688 153.859375 152.445312 156.546875 149.128906 156.546875 C 145.769531 156.546875 143.082031 153.8125 143.082031 150.5 C 143.082031 147.140625 145.816406 144.453125 149.128906 144.453125 C 152.445312 144.40625 155.179688 147.140625 155.179688 150.5 Z M 155.179688 150.5 " fill-opacity="1" fill-rule="nonzero"/><path fill="#000000" d="M 231.820312 150.5 C 231.820312 153.859375 229.082031 156.546875 225.769531 156.546875 C 222.40625 156.546875 219.71875 153.8125 219.71875 150.5 C 219.71875 147.140625 222.457031 144.453125 225.769531 144.453125 C 229.082031 144.40625 231.820312 147.140625 231.820312 150.5 Z M 231.820312 150.5 " fill-opacity="1" fill-rule="nonzero"/><path fill="#f4e5e0" d="M 193.738281 168.113281 C 193.738281 168.113281 180.390625 168.113281 181.207031 176.175781 C 181.925781 183.46875 193.738281 180.925781 193.738281 180.925781 " fill-opacity="1" fill-rule="nonzero"/><path fill="#000000" d="M 189.417969 182.652344 C 187.113281 182.652344 184.425781 182.269531 182.457031 180.878906 C 180.96875 179.773438 180.101562 178.238281 179.910156 176.320312 C 179.71875 174.207031 180.292969 172.382812 181.640625 170.894531 C 185.289062 166.863281 193.402344 166.816406 193.738281 166.816406 C 194.460938 166.816406 195.035156 167.390625 195.035156 168.113281 C 195.035156 168.832031 194.460938 169.40625 193.738281 169.40625 C 193.691406 169.40625 186.394531 169.457031 183.511719 172.625 C 182.648438 173.582031 182.3125 174.6875 182.457031 176.078125 C 182.550781 177.277344 183.078125 178.191406 183.945312 178.8125 C 186.488281 180.683594 191.675781 180.109375 193.453125 179.726562 C 194.125 179.582031 194.84375 180.011719 194.988281 180.734375 C 195.132812 181.40625 194.699219 182.125 193.980469 182.269531 C 193.835938 182.222656 191.820312 182.652344 189.417969 182.652344 Z M 189.417969 182.652344 " fill-opacity="1" fill-rule="nonzero"/><path fill="#f4e5e0" d="M 173.476562 201.03125 C 173.476562 201.03125 175.109375 210.199219 187.738281 210.054688 C 199.789062 209.957031 201.375 201.03125 201.375 201.03125 " fill-opacity="1" fill-rule="nonzero"/><path fill="#000000" d="M 187.496094 211.351562 C 174.195312 211.351562 172.277344 201.367188 172.226562 201.273438 C 172.082031 200.601562 172.5625 199.929688 173.285156 199.785156 C 173.957031 199.640625 174.628906 200.121094 174.773438 200.792969 C 174.820312 201.175781 176.453125 208.757812 187.496094 208.757812 C 187.59375 208.757812 187.640625 208.757812 187.738281 208.757812 C 198.492188 208.664062 200.078125 201.082031 200.125 200.746094 C 200.269531 200.074219 200.894531 199.59375 201.617188 199.738281 C 202.289062 199.882812 202.769531 200.554688 202.625 201.226562 C 202.625 201.320312 200.65625 211.207031 187.738281 211.300781 C 187.640625 211.351562 187.546875 211.351562 187.496094 211.351562 Z M 187.496094 211.351562 " fill-opacity="1" fill-rule="nonzero"/><path fill="#f4e5e0" d="M 279.359375 292.691406 C 279.359375 292.691406 274.84375 323.359375 279.359375 373.792969 " fill-opacity="1" fill-rule="nonzero"/><path fill="#000000" d="M 279.359375 375.042969 C 278.6875 375.042969 278.15625 374.5625 278.0625 373.890625 C 273.597656 323.886719 278.011719 292.835938 278.0625 292.5 C 278.15625 291.828125 278.78125 291.300781 279.503906 291.445312 C 280.222656 291.539062 280.703125 292.210938 280.558594 292.882812 C 280.511719 293.171875 276.140625 323.980469 280.558594 373.652344 C 280.605469 374.371094 280.078125 374.996094 279.40625 375.042969 C 279.40625 375.042969 279.40625 375.042969 279.359375 375.042969 Z M 279.359375 375.042969 " fill-opacity="1" fill-rule="nonzero"/><path fill="#f4e5e0" d="M 95.492188 292.691406 C 95.492188 292.691406 100.007812 323.359375 95.492188 373.792969 " fill-opacity="1" fill-rule="nonzero"/><path fill="#000000" d="M 95.492188 375.042969 C 95.445312 375.042969 95.398438 375.042969 95.398438 375.042969 C 94.675781 374.996094 94.195312 374.371094 94.246094 373.652344 C 98.664062 323.980469 94.292969 293.171875 94.246094 292.882812 C 94.148438 292.164062 94.628906 291.539062 95.300781 291.445312 C 96.019531 291.347656 96.644531 291.828125 96.742188 292.5 C 96.789062 292.789062 101.207031 323.886719 96.742188 373.890625 C 96.742188 374.5625 96.164062 375.042969 95.492188 375.042969 Z M 95.492188 375.042969 " fill-opacity="1" fill-rule="nonzero"/><path fill="#000000" d="M 302.070312 63.640625 C 295.15625 75.589844 280.75 72.710938 279.695312 72.519531 C 280.414062 73.285156 289.394531 82.835938 278.78125 84.179688 C 267.6875 85.570312 256.5 78.371094 256.5 78.371094 C 258.183594 83.746094 269.898438 91.714844 269.898438 91.714844 L 268.792969 92.480469 C 274.554688 95.503906 256.980469 108.703125 226.488281 86.050781 C 195.949219 63.351562 187.402344 85.425781 187.402344 85.425781 C 187.402344 85.425781 178.902344 63.351562 148.3125 86.050781 C 117.820312 108.703125 100.199219 95.503906 105.960938 92.480469 L 104.90625 91.714844 C 104.90625 91.714844 116.574219 83.746094 118.253906 78.371094 C 118.253906 78.371094 107.066406 85.570312 96.023438 84.179688 C 85.410156 82.835938 94.390625 73.285156 95.109375 72.519531 C 94.050781 72.710938 79.597656 75.589844 72.730469 63.640625 C 71.773438 61.816406 72.589844 59.464844 74.652344 58.554688 C 80.847656 55.769531 93.667969 49.003906 100.773438 38.253906 C 110.332031 23.710938 154.699219 0.246094 187.449219 21.695312 C 220.246094 0.246094 264.617188 23.710938 274.125 38.253906 C 281.136719 49.003906 294.050781 55.769531 300.246094 58.554688 C 302.261719 59.464844 303.128906 61.816406 302.070312 63.640625 Z M 302.070312 63.640625 " fill-opacity="1" fill-rule="nonzero"/></svg>