<svg xmlns="http://www.w3.org/2000/svg" xmlns:xlink="http://www.w3.org/1999/xlink" width="500" zoomAndPan="magnify" viewBox="0 0 375 374.999991" height="500" preserveAspectRatio="xMidYMid meet" version="1.0"><defs><clipPath id="885aa236b8"><path d="M 34.0625 260 L 349 260 L 349 375 L 34.0625 375 Z M 34.0625 260 " clip-rule="nonzero"/></clipPath></defs><path stroke-linecap="round" transform="matrix(4.992076, 0, 0, 4.989695, 34.062505, 0.521208)" fill="none" stroke-linejoin="round" d="M 11.619977 59.710225 C 11.619977 59.710225 12.559747 66.099957 11.619977 76.609899 " stroke="#ffffff" stroke-width="0.533" stroke-opacity="1" stroke-miterlimit="10"/><path fill="#000000" d="M 115.433594 146.46875 C 115.433594 146.46875 100.308594 128.507812 105.050781 85.546875 C 109.792969 42.535156 139.945312 28.3125 166.003906 21.925781 C 192.0625 15.539062 190.714844 1.46875 192.0625 0.621094 C 193.410156 -0.226562 198.5 8.40625 197.652344 16.6875 C 197.652344 16.6875 202.046875 12.644531 202.046875 6.859375 C 202.046875 1.070312 209.984375 10.050781 209.683594 18.882812 C 209.683594 18.882812 259.804688 21.226562 270.988281 61.894531 C 282.167969 102.511719 268.738281 146.519531 268.738281 146.519531 C 268.738281 146.519531 253.363281 58.5 201.246094 56.457031 C 149.078125 54.410156 109.242188 88.9375 115.433594 146.46875 Z M 115.433594 146.46875 " fill-opacity="1" fill-rule="nonzero"/><path fill="#f4e5e0" d="M 347.414062 382.78125 L 35.410156 382.78125 C 35.410156 382.78125 43.996094 355.386719 72.703125 310.78125 C 101.355469 266.171875 191.414062 261.730469 191.414062 261.730469 C 191.414062 261.730469 281.46875 266.171875 310.125 310.78125 C 338.828125 355.386719 347.414062 382.78125 347.414062 382.78125 Z M 347.414062 382.78125 " fill-opacity="1" fill-rule="nonzero"/><path fill="#000000" d="M 35.410156 382.78125 C 35.410156 382.78125 43.996094 355.386719 72.703125 310.78125 C 101.355469 266.171875 191.414062 261.730469 191.414062 261.730469 C 191.414062 261.730469 281.46875 266.171875 310.125 310.78125 C 338.828125 355.386719 347.414062 382.78125 347.414062 382.78125 " fill-opacity="1" fill-rule="nonzero"/><g clip-path="url(#885aa236b8)"><path stroke-linecap="round" transform="matrix(4.992076, 0, 0, 4.989695, 34.062505, 0.521208)" fill="none" stroke-linejoin="round" d="M 0.269958 76.609899 C 0.269958 76.609899 1.989871 71.119677 7.740391 62.180159 C 13.479956 53.239859 31.520265 52.349743 31.520265 52.349743 C 31.520265 52.349743 49.559791 53.239859 55.300139 62.180159 C 61.049876 71.119677 62.769789 76.609899 62.769789 76.609899 " stroke="#000000" stroke-width="0.533" stroke-opacity="1" stroke-miterlimit="10"/></g><path fill="#f4e5e0" d="M 214.875 270.960938 C 214.875 270.960938 215.125 291.671875 191.414062 307.289062 C 167.699219 291.667969 167.949219 270.960938 167.949219 270.960938 C 174.039062 252.203125 170.84375 216.175781 170.84375 216.175781 L 211.980469 216.175781 C 211.980469 216.175781 208.785156 252.203125 214.875 270.960938 Z M 214.875 270.960938 " fill-opacity="1" fill-rule="nonzero"/><path fill="#000000" d="M 191.414062 308.882812 L 190.664062 308.386719 C 166.601562 292.566406 166.601562 271.8125 166.601562 270.960938 L 166.652344 270.5625 C 172.59375 252.25 169.496094 216.675781 169.496094 216.277344 L 169.347656 214.828125 L 213.378906 214.828125 L 213.226562 216.277344 C 213.179688 216.625 210.132812 252.25 216.074219 270.5625 L 216.125 270.960938 C 216.125 271.8125 216.125 292.566406 192.0625 308.386719 Z M 169.246094 271.164062 C 169.296875 273.207031 170.496094 291.519531 191.363281 305.691406 C 212.328125 291.46875 213.429688 273.207031 213.476562 271.164062 C 208.085938 254.246094 209.933594 224.457031 210.484375 217.523438 L 172.242188 217.523438 C 172.792969 224.507812 174.640625 254.246094 169.246094 271.164062 Z M 169.246094 271.164062 " fill-opacity="1" fill-rule="nonzero"/><path fill="#f4e5e0" d="M 264.648438 143.925781 C 264.648438 143.925781 278.023438 134.992188 288.210938 144.875 C 298.394531 154.753906 289.804688 188.683594 258.554688 176.855469 Z M 264.648438 143.925781 " fill-opacity="1" fill-rule="nonzero"/><path fill="#000000" d="M 270.785156 180.699219 C 267.140625 180.699219 262.949219 179.949219 258.105469 178.15625 L 257.058594 177.753906 L 263.398438 143.125 L 263.847656 142.828125 C 263.996094 142.726562 278.226562 133.445312 289.109375 143.925781 C 294.898438 149.5625 295.097656 161.738281 289.558594 170.519531 C 287.308594 174.0625 281.667969 180.699219 270.785156 180.699219 Z M 260.105469 176.007812 C 271.984375 180.148438 281.871094 177.65625 287.359375 169.074219 C 292.203125 161.4375 292.203125 150.5625 287.308594 145.820312 C 279.023438 137.789062 268.191406 143.375 265.84375 144.722656 Z M 260.105469 176.007812 " fill-opacity="1" fill-rule="nonzero"/><path fill="#f4e5e0" d="M 271.535156 167.578125 C 271.535156 167.578125 273.03125 150.460938 283.117188 151.757812 " fill-opacity="1" fill-rule="nonzero"/><path fill="#000000" d="M 271.535156 168.921875 C 271.484375 168.921875 271.4375 168.921875 271.4375 168.921875 C 270.6875 168.875 270.1875 168.226562 270.238281 167.476562 C 270.289062 167.027344 271.234375 156.699219 276.628906 152.308594 C 278.574219 150.761719 280.769531 150.113281 283.265625 150.460938 C 284.015625 150.5625 284.515625 151.210938 284.414062 151.957031 C 284.316406 152.707031 283.667969 153.15625 282.917969 153.105469 C 281.171875 152.90625 279.621094 153.304688 278.273438 154.402344 C 273.730469 158.046875 272.832031 167.625 272.832031 167.726562 C 272.785156 168.425781 272.234375 168.921875 271.535156 168.921875 Z M 271.535156 168.921875 " fill-opacity="1" fill-rule="nonzero"/><path fill="#f4e5e0" d="M 273.933594 159.195312 C 273.933594 159.195312 278.226562 158.496094 280.96875 161.789062 " fill-opacity="1" fill-rule="nonzero"/><path fill="#000000" d="M 281.019531 163.136719 C 280.621094 163.136719 280.273438 162.984375 280.023438 162.636719 C 277.777344 159.992188 274.332031 160.492188 274.179688 160.492188 C 273.484375 160.589844 272.785156 160.089844 272.683594 159.394531 C 272.582031 158.695312 273.082031 157.996094 273.78125 157.894531 C 273.980469 157.847656 278.875 157.148438 282.070312 160.941406 C 282.519531 161.488281 282.46875 162.335938 281.917969 162.835938 C 281.621094 163.035156 281.320312 163.136719 281.019531 163.136719 Z M 281.019531 163.136719 " fill-opacity="1" fill-rule="nonzero"/><path fill="#f4e5e0" d="M 118.128906 143.925781 C 118.128906 143.925781 104.75 134.992188 94.566406 144.875 C 84.382812 154.753906 92.96875 188.683594 124.21875 176.855469 Z M 118.128906 143.925781 " fill-opacity="1" fill-rule="nonzero"/><path fill="#000000" d="M 112.039062 180.699219 C 101.15625 180.699219 95.464844 174.0625 93.21875 170.519531 C 87.628906 161.738281 87.828125 149.5625 93.667969 143.925781 C 104.5 133.445312 118.777344 142.726562 118.929688 142.828125 L 119.378906 143.125 L 125.71875 177.753906 L 124.667969 178.15625 C 119.828125 179.949219 115.632812 180.699219 112.039062 180.699219 Z M 106 141.53125 C 102.605469 141.53125 98.859375 142.578125 95.515625 145.820312 C 90.621094 150.5625 90.621094 161.390625 95.464844 169.074219 C 100.90625 177.65625 110.789062 180.199219 122.722656 176.007812 L 116.929688 144.722656 C 115.53125 143.875 111.089844 141.53125 106 141.53125 Z M 106 141.53125 " fill-opacity="1" fill-rule="nonzero"/><path fill="#f4e5e0" d="M 111.238281 167.578125 C 111.238281 167.578125 109.742188 150.460938 99.660156 151.757812 " fill-opacity="1" fill-rule="nonzero"/><path fill="#000000" d="M 111.238281 168.921875 C 110.542969 168.921875 109.992188 168.425781 109.890625 167.726562 C 109.890625 167.625 108.992188 158.046875 104.449219 154.402344 C 103.101562 153.304688 101.554688 152.90625 99.808594 153.105469 C 99.058594 153.15625 98.410156 152.65625 98.308594 151.957031 C 98.210938 151.210938 98.710938 150.5625 99.457031 150.460938 C 101.953125 150.164062 104.199219 150.761719 106.097656 152.308594 C 111.488281 156.699219 112.488281 167.027344 112.488281 167.476562 C 112.539062 168.226562 111.988281 168.875 111.289062 168.921875 C 111.339844 168.921875 111.289062 168.921875 111.238281 168.921875 Z M 111.238281 168.921875 " fill-opacity="1" fill-rule="nonzero"/><path fill="#f4e5e0" d="M 108.84375 159.195312 C 108.84375 159.195312 104.550781 158.496094 101.804688 161.789062 " fill-opacity="1" fill-rule="nonzero"/><path fill="#000000" d="M 101.804688 163.136719 C 101.503906 163.136719 101.207031 163.035156 100.957031 162.835938 C 100.40625 162.386719 100.308594 161.539062 100.804688 160.941406 C 104 157.097656 108.894531 157.847656 109.09375 157.894531 C 109.84375 157.996094 110.292969 158.695312 110.191406 159.394531 C 110.09375 160.140625 109.394531 160.589844 108.695312 160.492188 C 108.542969 160.441406 105.101562 159.992188 102.851562 162.636719 C 102.554688 162.984375 102.15625 163.136719 101.804688 163.136719 Z M 101.804688 163.136719 " fill-opacity="1" fill-rule="nonzero"/><path fill="#f4e5e0" d="M 191.414062 239.128906 C 130.710938 235.585938 114.984375 175.460938 112.488281 125.464844 C 110.589844 87.640625 134.105469 54.210938 166.953125 47.175781 C 183.125 43.683594 199.699219 43.683594 215.824219 47.175781 C 248.671875 54.261719 272.183594 87.640625 270.289062 125.464844 C 267.839844 175.460938 252.117188 235.585938 191.414062 239.128906 Z M 191.414062 239.128906 " fill-opacity="1" fill-rule="nonzero"/><path fill="#000000" d="M 191.414062 240.476562 L 191.3125 240.476562 C 129.609375 236.882812 113.636719 176.007812 111.140625 125.5625 C 109.242188 87.34375 133.105469 53.113281 166.652344 45.878906 C 183.074219 42.335938 199.699219 42.335938 216.125 45.878906 C 249.671875 53.113281 273.53125 87.34375 271.636719 125.5625 C 269.140625 176.007812 253.164062 236.882812 191.460938 240.476562 Z M 191.414062 45.878906 C 183.324219 45.878906 175.238281 46.726562 167.25 48.472656 C 134.953125 55.40625 111.988281 88.488281 113.835938 125.414062 C 116.28125 174.761719 131.757812 234.289062 191.414062 237.832031 C 251.117188 234.289062 266.542969 174.761719 268.988281 125.414062 C 270.835938 88.488281 247.875 55.40625 215.574219 48.472656 C 207.539062 46.726562 199.449219 45.878906 191.414062 45.878906 Z M 191.414062 45.878906 " fill-opacity="1" fill-rule="nonzero"/><path fill="#000000" d="M 220.015625 134.945312 C 219.417969 132.898438 223.960938 129.753906 230.152344 127.957031 C 236.339844 126.160156 241.832031 126.359375 242.433594 128.40625 C 243.03125 130.453125 238.488281 133.597656 232.296875 135.394531 C 226.109375 137.1875 220.617188 136.988281 220.015625 134.945312 Z M 220.015625 134.945312 " fill-opacity="1" fill-rule="nonzero"/><path fill="#000000" d="M 162.757812 134.945312 C 163.355469 132.898438 158.816406 129.753906 152.625 127.957031 C 146.433594 126.160156 140.941406 126.359375 140.34375 128.40625 C 139.746094 130.453125 144.289062 133.597656 150.476562 135.394531 C 156.667969 137.1875 162.160156 136.988281 162.757812 134.945312 Z M 162.757812 134.945312 " fill-opacity="1" fill-rule="nonzero"/><path fill="#000000" d="M 157.867188 150.609375 C 157.867188 154.105469 155.019531 156.898438 151.574219 156.898438 C 148.082031 156.898438 145.285156 154.054688 145.285156 150.609375 C 145.285156 147.117188 148.132812 144.324219 151.574219 144.324219 C 155.070312 144.324219 157.867188 147.117188 157.867188 150.609375 Z M 157.867188 150.609375 " fill-opacity="1" fill-rule="nonzero"/><path fill="#000000" d="M 237.539062 150.609375 C 237.539062 154.105469 234.695312 156.898438 231.25 156.898438 C 227.753906 156.898438 224.960938 154.054688 224.960938 150.609375 C 224.960938 147.117188 227.804688 144.324219 231.25 144.324219 C 234.695312 144.324219 237.539062 147.117188 237.539062 150.609375 Z M 237.539062 150.609375 " fill-opacity="1" fill-rule="nonzero"/><path fill="#f4e5e0" d="M 197.953125 168.921875 C 197.953125 168.921875 184.074219 168.921875 184.921875 177.304688 C 185.671875 184.890625 197.953125 182.246094 197.953125 182.246094 " fill-opacity="1" fill-rule="nonzero"/><path fill="#000000" d="M 193.460938 184.042969 C 191.0625 184.042969 188.269531 183.644531 186.222656 182.195312 C 184.671875 181.046875 183.773438 179.453125 183.574219 177.457031 C 183.375 175.261719 183.972656 173.363281 185.371094 171.816406 C 189.167969 167.625 197.601562 167.578125 197.953125 167.578125 C 198.699219 167.578125 199.300781 168.175781 199.300781 168.921875 C 199.300781 169.671875 198.699219 170.269531 197.953125 170.269531 C 197.851562 170.269531 190.316406 170.320312 187.320312 173.613281 C 186.421875 174.613281 186.070312 175.757812 186.222656 177.15625 C 186.371094 178.402344 186.871094 179.351562 187.769531 180 C 190.414062 181.945312 195.804688 181.347656 197.652344 180.949219 C 198.351562 180.800781 199.101562 181.246094 199.25 181.996094 C 199.398438 182.695312 198.949219 183.445312 198.203125 183.59375 C 198.050781 183.59375 195.957031 184.042969 193.460938 184.042969 Z M 193.460938 184.042969 " fill-opacity="1" fill-rule="nonzero"/><path fill="#f4e5e0" d="M 205.890625 203.152344 C 205.890625 203.152344 204.242188 212.433594 191.710938 212.535156 C 178.582031 212.683594 176.886719 203.152344 176.886719 203.152344 C 176.886719 203.152344 190.363281 197.8125 205.890625 203.152344 Z M 205.890625 203.152344 " fill-opacity="1" fill-rule="nonzero"/><path fill="#000000" d="M 191.460938 213.878906 C 177.632812 213.878906 175.636719 203.503906 175.585938 203.402344 C 175.488281 202.753906 175.835938 202.15625 176.386719 201.957031 C 176.9375 201.753906 190.464844 196.515625 206.289062 201.957031 C 206.886719 202.15625 207.289062 202.804688 207.1875 203.453125 C 207.1875 203.550781 205.140625 213.832031 191.710938 213.929688 C 191.613281 213.878906 191.5625 213.878906 191.460938 213.878906 Z M 178.53125 204 C 179.382812 206.246094 182.328125 211.234375 191.460938 211.234375 C 191.5625 211.234375 191.613281 211.234375 191.710938 211.234375 C 200.5 211.136719 203.394531 206.296875 204.242188 204.050781 C 192.410156 200.359375 181.929688 202.953125 178.53125 204 Z M 178.53125 204 " fill-opacity="1" fill-rule="nonzero"/><path stroke-linecap="round" transform="matrix(4.992076, 0, 0, 4.989695, 34.062505, 0.521208)" fill="none" stroke-linejoin="round" d="M 50.900197 59.710225 C 50.900197 59.710225 49.959644 66.099957 50.900197 76.609899 " stroke="#ffffff" stroke-width="0.533" stroke-opacity="1" stroke-miterlimit="10"/><path fill="#000000" d="M 270.585938 134.695312 C 270.585938 132.949219 270.335938 93.480469 248.570312 86.09375 C 226.207031 78.460938 194.058594 87.839844 192.0625 87.839844 C 190.164062 87.839844 157.964844 78.460938 135.652344 86.09375 C 113.9375 93.480469 113.636719 132.949219 113.636719 134.695312 C 85.878906 30.707031 192.0625 42.085938 192.0625 42.085938 C 192.0625 42.085938 298.242188 30.707031 270.585938 134.695312 Z M 270.585938 134.695312 " fill-opacity="1" fill-rule="nonzero"/><path stroke-linecap="butt" transform="matrix(4.992076, 0, 0, 4.989695, 34.062505, 0.521208)" fill="none" stroke-linejoin="miter" d="M 29.5703 29.249791 C 29.5703 32.580092 26.869926 35.280188 23.539648 35.280188 C 20.210153 35.280188 17.50978 32.580092 17.50978 29.249791 C 17.50978 25.920273 20.210153 23.220177 23.539648 23.220177 C 26.869926 23.220177 29.5703 25.920273 29.5703 29.249791 Z M 29.5703 29.249791 " stroke="#000000" stroke-width="0.532" stroke-opacity="1" stroke-miterlimit="10"/><path stroke-linecap="butt" transform="matrix(4.992076, 0, 0, 4.989695, 34.062505, 0.521208)" fill="none" stroke-linejoin="miter" d="M 45.529967 29.249791 C 45.529967 32.580092 42.830377 35.280188 39.500099 35.280188 C 36.169821 35.280188 33.47023 32.580092 33.47023 29.249791 C 33.47023 25.920273 36.169821 23.220177 39.500099 23.220177 C 42.830377 23.220177 45.529967 25.920273 45.529967 29.249791 Z M 45.529967 29.249791 " stroke="#000000" stroke-width="0.532" stroke-opacity="1" stroke-miterlimit="10"/><path stroke-linecap="butt" transform="matrix(4.992076, 0, 0, 4.989695, 34.062505, 0.521208)" fill="none" stroke-linejoin="miter" d="M 29.089851 26.890241 C 29.089851 26.890241 31.359854 25.78014 33.949897 26.890241 " stroke="#000000" stroke-width="0.532" stroke-opacity="1" stroke-miterlimit="10"/><path stroke-linecap="butt" transform="matrix(4.992076, 0, 0, 4.989695, 34.062505, 0.521208)" fill="none" stroke-linejoin="miter" d="M 45.400074 28.000341 L 47.099643 28.000341 " stroke="#000000" stroke-width="0.532" stroke-opacity="1" stroke-miterlimit="10"/><path stroke-linecap="butt" transform="matrix(4.992076, 0, 0, 4.989695, 34.062505, 0.521208)" fill="none" stroke-linejoin="miter" d="M 15.689708 28.000341 L 17.390059 28.000341 " stroke="#000000" stroke-width="0.532" stroke-opacity="1" stroke-miterlimit="10"/><path stroke-linecap="round" transform="matrix(4.992076, 0, 0, 4.989695, 34.062505, 0.521208)" fill-opacity="1" fill="#000000" fill-rule="nonzero" stroke-linejoin="round" d="M 37.939814 50.269675 C 37.880344 51.000086 37.240267 50.880308 37.180016 51.320278 C 37.110374 51.769641 37.180016 53.049623 37.180016 53.049623 C 37.330254 59.809649 31.510093 63.55017 31.510093 63.55017 C 31.510093 63.55017 25.700104 59.809649 25.850342 53.049623 C 25.850342 53.049623 25.919983 51.769641 25.850342 51.320278 C 25.79009 50.880308 25.150013 51.000086 25.089761 50.269675 C 25.02012 49.540046 31.510093 49.69975 31.510093 49.69975 C 31.510093 49.69975 38.010238 49.540046 37.939814 50.269675 Z M 37.939814 50.269675 " stroke="#000000" stroke-width="0.533" stroke-opacity="1" stroke-miterlimit="10"/></svg>