<svg xmlns="http://www.w3.org/2000/svg" xmlns:xlink="http://www.w3.org/1999/xlink" width="500" zoomAndPan="magnify" viewBox="0 0 375 374.999991" height="500" preserveAspectRatio="xMidYMid meet" version="1.0"><defs><clipPath id="8187e44b68"><path d="M 34.6875 255 L 337.6875 255 L 337.6875 375 L 34.6875 375 Z M 34.6875 255 " clip-rule="nonzero"/></clipPath></defs><path fill="#000000" d="M 163.441406 24.550781 C 163.300781 24.550781 163.058594 24.550781 162.820312 24.601562 L 162.820312 24.503906 C 162.820312 24.503906 163.058594 24.503906 163.441406 24.550781 Z M 163.441406 24.550781 " fill-opacity="1" fill-rule="nonzero"/><path fill="#000000" d="M 164.164062 24.503906 L 164.164062 24.601562 C 163.921875 24.550781 163.683594 24.550781 163.539062 24.550781 C 163.921875 24.503906 164.164062 24.503906 164.164062 24.503906 Z M 164.164062 24.503906 " fill-opacity="1" fill-rule="nonzero"/><path fill="#000000" d="M 240.3125 181.554688 C 240.3125 181.554688 257.828125 190.953125 264.402344 213.777344 C 270.976562 236.652344 272.988281 191.71875 247.703125 177.859375 " fill-opacity="1" fill-rule="nonzero"/><path fill="#000000" d="M 131.773438 181.554688 C 131.773438 181.554688 114.261719 190.953125 107.6875 213.777344 C 101.113281 236.652344 99.097656 191.71875 124.382812 177.859375 " fill-opacity="1" fill-rule="nonzero"/><path fill="#000000" d="M 230.957031 30.402344 C 230.957031 47.1875 210.851562 60.804688 186.042969 60.804688 C 161.234375 60.804688 141.128906 47.1875 141.128906 30.402344 C 141.128906 13.617188 161.234375 0 186.042969 0 C 210.851562 0 230.957031 13.617188 230.957031 30.402344 Z M 230.957031 30.402344 " fill-opacity="1" fill-rule="nonzero"/><path fill="#000000" d="M 253.507812 181.121094 L 118.53125 181.121094 C 97.609375 160.5 87.292969 98.449219 104.902344 63.347656 C 120.976562 31.265625 175.96875 26.46875 185.324219 25.894531 C 185.5625 25.847656 185.804688 25.847656 185.949219 25.847656 C 185.996094 25.847656 185.996094 25.847656 186.042969 25.847656 C 186.1875 25.847656 186.425781 25.847656 186.667969 25.894531 C 196.023438 26.46875 251.0625 31.265625 267.089844 63.347656 C 284.746094 98.449219 274.527344 160.5 253.507812 181.121094 Z M 253.507812 181.121094 " fill-opacity="1" fill-rule="nonzero"/><path fill="#f4e5e0" d="M 335.992188 373.417969 L 36.09375 373.417969 C 36.09375 373.417969 44.347656 347.089844 71.9375 304.21875 C 99.480469 261.347656 186.042969 257.082031 186.042969 257.082031 C 186.042969 257.082031 272.605469 261.347656 300.148438 304.21875 C 327.738281 347.089844 335.992188 373.417969 335.992188 373.417969 Z M 335.992188 373.417969 " fill-opacity="1" fill-rule="nonzero"/><path fill="#f4e5e0" d="M 36.09375 373.417969 C 36.09375 373.417969 44.347656 347.089844 71.9375 304.21875 C 99.480469 261.347656 186.042969 257.082031 186.042969 257.082031 C 186.042969 257.082031 272.605469 261.347656 300.148438 304.21875 C 327.738281 347.089844 335.992188 373.417969 335.992188 373.417969 " fill-opacity="1" fill-rule="nonzero"/><g clip-path="url(#8187e44b68)"><path fill="#000000" d="M 36.09375 374.664062 C 35.949219 374.664062 35.855469 374.664062 35.710938 374.617188 C 35.039062 374.425781 34.65625 373.707031 34.894531 373.035156 C 34.992188 372.792969 43.53125 346.035156 70.882812 303.546875 C 98.472656 260.628906 182.445312 255.976562 185.996094 255.835938 C 189.691406 256.027344 273.660156 260.628906 301.253906 303.546875 C 328.601562 346.082031 337.144531 372.792969 337.238281 373.035156 C 337.433594 373.707031 337.097656 374.425781 336.425781 374.617188 C 335.753906 374.855469 335.03125 374.472656 334.839844 373.800781 C 334.746094 373.5625 326.300781 347.089844 299.140625 304.890625 C 272.269531 263.074219 186.90625 258.375 186.042969 258.328125 C 185.324219 258.375 99.960938 263.074219 73.089844 304.890625 C 45.929688 347.089844 37.484375 373.511719 37.390625 373.800781 C 37.148438 374.328125 36.621094 374.664062 36.09375 374.664062 Z M 36.09375 374.664062 " fill-opacity="1" fill-rule="nonzero"/></g><path fill="#000000" d="M 219.199219 312.035156 C 210.898438 301.820312 199.046875 297.84375 186.667969 301.054688 C 186.425781 301.101562 186.234375 301.246094 186.089844 301.34375 C 185.898438 301.246094 185.707031 301.101562 185.515625 301.054688 C 173.136719 297.84375 161.285156 301.820312 152.984375 312.035156 C 145.257812 321.53125 142.136719 334.910156 145.882812 342.535156 C 147.753906 346.371094 151.207031 348.480469 155.621094 348.480469 C 155.765625 348.480469 155.910156 348.480469 156.054688 348.480469 C 166.035156 348.195312 173.28125 339.417969 178.269531 329.730469 C 177.597656 338.988281 177.644531 350.253906 179.710938 361.8125 C 179.902344 362.964844 180.910156 363.777344 182.0625 363.777344 C 182.203125 363.777344 182.347656 363.777344 182.492188 363.730469 C 183.789062 363.492188 184.652344 362.246094 184.410156 360.949219 C 179.902344 335.917969 185.515625 311.507812 186.140625 308.96875 C 186.761719 311.507812 192.378906 335.917969 187.867188 360.949219 C 187.628906 362.246094 188.492188 363.492188 189.785156 363.730469 C 189.929688 363.730469 190.074219 363.777344 190.21875 363.777344 C 191.371094 363.777344 192.378906 362.964844 192.570312 361.8125 C 194.632812 350.253906 194.679688 338.988281 194.007812 329.683594 C 199 339.371094 206.292969 348.144531 216.273438 348.480469 C 216.417969 348.480469 216.5625 348.480469 216.707031 348.480469 C 221.070312 348.480469 224.527344 346.371094 226.445312 342.535156 C 230.042969 334.957031 226.925781 321.53125 219.199219 312.035156 Z M 155.765625 343.636719 C 152.984375 343.78125 151.207031 342.679688 150.054688 340.378906 C 147.511719 335.199219 149.238281 324.023438 156.582031 315.058594 C 160.515625 310.261719 168.867188 302.828125 181.917969 305.226562 C 179.855469 313.761719 171.457031 343.207031 155.765625 343.636719 Z M 221.984375 340.425781 C 220.878906 342.679688 219.105469 343.828125 216.273438 343.6875 C 200.582031 343.207031 192.183594 313.8125 190.074219 305.273438 C 203.125 302.878906 211.476562 310.308594 215.410156 315.105469 C 222.800781 324.074219 224.574219 335.199219 221.984375 340.425781 Z M 221.984375 340.425781 " fill-opacity="1" fill-rule="nonzero"/><path fill="#f4e5e0" d="M 208.597656 265.953125 C 208.597656 265.953125 208.835938 285.855469 186.042969 300.863281 C 163.25 285.855469 163.492188 265.953125 163.492188 265.953125 C 169.34375 247.921875 166.273438 213.300781 166.273438 213.300781 L 205.8125 213.300781 C 205.8125 213.300781 202.742188 247.921875 208.597656 265.953125 Z M 208.597656 265.953125 " fill-opacity="1" fill-rule="nonzero"/><path fill="#000000" d="M 186.042969 302.398438 L 185.324219 301.917969 C 162.195312 286.714844 162.195312 266.769531 162.195312 265.953125 L 162.242188 265.570312 C 167.953125 247.96875 164.980469 213.777344 164.980469 213.394531 L 164.835938 212.003906 L 207.15625 212.003906 L 207.058594 213.394531 C 207.011719 213.730469 204.085938 247.96875 209.796875 265.570312 L 209.84375 265.953125 C 209.84375 266.769531 209.84375 286.714844 186.714844 301.917969 Z M 164.738281 266.144531 C 164.785156 268.109375 165.9375 285.710938 185.996094 299.328125 C 206.148438 285.660156 207.203125 268.109375 207.253906 266.144531 C 202.070312 249.886719 203.84375 221.257812 204.375 214.59375 L 167.617188 214.59375 C 168.144531 221.257812 169.96875 249.839844 164.738281 266.144531 Z M 164.738281 266.144531 " fill-opacity="1" fill-rule="nonzero"/><path fill="#f4e5e0" d="M 256.4375 143.863281 C 256.4375 143.863281 269.296875 135.277344 279.082031 144.773438 C 288.871094 154.269531 280.621094 186.875 250.582031 175.511719 Z M 256.4375 143.863281 " fill-opacity="1" fill-rule="nonzero"/><path fill="#000000" d="M 262.335938 179.15625 C 258.882812 179.15625 254.804688 178.4375 250.199219 176.710938 L 249.191406 176.328125 L 255.285156 143.046875 L 255.714844 142.757812 C 255.859375 142.664062 269.535156 133.742188 279.996094 143.8125 C 285.5625 149.234375 285.753906 160.933594 280.425781 169.375 C 278.21875 172.777344 272.796875 179.15625 262.335938 179.15625 Z M 252.070312 174.695312 C 263.539062 178.675781 273.039062 176.277344 278.269531 168.03125 C 282.921875 160.644531 282.921875 150.238281 278.21875 145.683594 C 270.253906 137.964844 259.84375 143.335938 257.585938 144.628906 Z M 252.070312 174.695312 " fill-opacity="1" fill-rule="nonzero"/><path fill="#f4e5e0" d="M 263.058594 166.59375 C 263.058594 166.59375 264.496094 150.144531 274.191406 151.390625 " fill-opacity="1" fill-rule="nonzero"/><path fill="#000000" d="M 263.058594 167.886719 C 263.007812 167.886719 262.960938 167.886719 262.960938 167.886719 C 262.242188 167.839844 261.761719 167.214844 261.808594 166.496094 C 261.859375 166.066406 262.769531 156.136719 267.953125 151.917969 C 269.824219 150.429688 271.980469 149.808594 274.332031 150.144531 C 275.054688 150.238281 275.53125 150.863281 275.4375 151.582031 C 275.339844 152.300781 274.71875 152.734375 273.996094 152.683594 C 272.316406 152.492188 270.832031 152.878906 269.535156 153.933594 C 265.167969 157.433594 264.304688 166.640625 264.304688 166.734375 C 264.257812 167.359375 263.730469 167.886719 263.058594 167.886719 Z M 263.058594 167.886719 " fill-opacity="1" fill-rule="nonzero"/><path fill="#f4e5e0" d="M 265.359375 158.535156 C 265.359375 158.535156 269.488281 157.863281 272.125 161.03125 " fill-opacity="1" fill-rule="nonzero"/><path fill="#000000" d="M 272.125 162.324219 C 271.742188 162.324219 271.40625 162.179688 271.167969 161.84375 C 269.007812 159.253906 265.601562 159.78125 265.550781 159.78125 C 264.878906 159.925781 264.207031 159.398438 264.113281 158.726562 C 264.015625 158.054688 264.496094 157.386719 265.167969 157.289062 C 265.359375 157.242188 270.0625 156.570312 273.132812 160.214844 C 273.566406 160.742188 273.519531 161.558594 272.988281 162.035156 C 272.75 162.226562 272.460938 162.324219 272.125 162.324219 Z M 272.125 162.324219 " fill-opacity="1" fill-rule="nonzero"/><path fill="#f4e5e0" d="M 115.605469 143.863281 C 115.605469 143.863281 102.742188 135.277344 92.957031 144.773438 C 83.167969 154.269531 91.417969 186.875 121.457031 175.511719 Z M 115.605469 143.863281 " fill-opacity="1" fill-rule="nonzero"/><path fill="#000000" d="M 109.75 179.15625 C 99.289062 179.15625 93.820312 172.777344 91.660156 169.375 C 86.285156 160.933594 86.476562 149.234375 92.089844 143.8125 C 102.503906 133.695312 116.226562 142.664062 116.371094 142.757812 L 116.804688 143.046875 L 122.898438 176.328125 L 121.890625 176.710938 C 117.234375 178.484375 113.203125 179.15625 109.75 179.15625 Z M 103.945312 141.558594 C 100.679688 141.558594 97.082031 142.566406 93.867188 145.683594 C 89.164062 150.238281 89.164062 160.644531 93.820312 168.03125 C 99.050781 176.277344 108.550781 178.722656 120.019531 174.695312 L 114.5 144.628906 C 113.109375 143.8125 108.835938 141.558594 103.945312 141.558594 Z M 103.945312 141.558594 " fill-opacity="1" fill-rule="nonzero"/><path fill="#f4e5e0" d="M 108.980469 166.59375 C 108.980469 166.59375 107.542969 150.144531 97.847656 151.390625 " fill-opacity="1" fill-rule="nonzero"/><path fill="#000000" d="M 108.980469 167.886719 C 108.308594 167.886719 107.78125 167.40625 107.6875 166.734375 C 107.6875 166.640625 106.824219 157.433594 102.457031 153.933594 C 101.160156 152.878906 99.671875 152.492188 97.992188 152.683594 C 97.273438 152.734375 96.648438 152.253906 96.554688 151.582031 C 96.457031 150.863281 96.9375 150.238281 97.65625 150.144531 C 100.058594 149.855469 102.214844 150.429688 104.039062 151.917969 C 109.269531 156.136719 110.179688 166.066406 110.179688 166.496094 C 110.230469 167.214844 109.703125 167.839844 109.03125 167.886719 C 109.078125 167.886719 109.03125 167.886719 108.980469 167.886719 Z M 108.980469 167.886719 " fill-opacity="1" fill-rule="nonzero"/><path fill="#f4e5e0" d="M 106.679688 158.535156 C 106.679688 158.535156 102.550781 157.863281 99.914062 161.03125 " fill-opacity="1" fill-rule="nonzero"/><path fill="#000000" d="M 99.914062 162.324219 C 99.625 162.324219 99.335938 162.226562 99.097656 162.035156 C 98.570312 161.605469 98.472656 160.789062 98.953125 160.214844 C 102.023438 156.523438 106.726562 157.242188 106.917969 157.289062 C 107.636719 157.386719 108.070312 158.054688 107.972656 158.726562 C 107.878906 159.445312 107.160156 159.925781 106.488281 159.78125 C 106.292969 159.78125 102.984375 159.304688 100.871094 161.84375 C 100.632812 162.132812 100.25 162.324219 99.914062 162.324219 Z M 99.914062 162.324219 " fill-opacity="1" fill-rule="nonzero"/><path fill="#f4e5e0" d="M 186.042969 235.359375 C 127.695312 231.953125 112.582031 174.167969 110.179688 126.117188 C 108.359375 89.769531 130.957031 57.640625 162.53125 50.878906 C 178.078125 47.523438 194.007812 47.523438 209.507812 50.878906 C 241.082031 57.6875 263.679688 89.769531 261.859375 126.117188 C 259.507812 174.167969 244.390625 231.953125 186.042969 235.359375 Z M 186.042969 235.359375 " fill-opacity="1" fill-rule="nonzero"/><path fill="#000000" d="M 186.042969 236.605469 L 185.949219 236.605469 C 126.640625 233.152344 111.285156 174.648438 108.886719 126.167969 C 107.0625 89.433594 130 56.539062 162.242188 49.585938 C 178.03125 46.179688 194.007812 46.179688 209.796875 49.585938 C 242.039062 56.539062 264.976562 89.433594 263.152344 126.167969 C 260.753906 174.648438 245.449219 233.152344 186.089844 236.605469 Z M 186.042969 49.632812 C 178.269531 49.632812 170.542969 50.449219 162.820312 52.125 C 131.773438 58.792969 109.703125 90.585938 111.476562 126.070312 C 113.828125 173.496094 128.703125 230.707031 186.042969 234.109375 C 243.433594 230.707031 258.257812 173.496094 260.609375 126.070312 C 262.386719 90.585938 240.3125 58.792969 209.269531 52.125 C 201.542969 50.449219 193.769531 49.632812 186.042969 49.632812 Z M 186.042969 49.632812 " fill-opacity="1" fill-rule="nonzero"/><path fill="#000000" d="M 158.5 128.898438 C 159.078125 130.867188 154.710938 133.886719 148.761719 135.613281 C 142.808594 137.339844 137.53125 137.148438 136.957031 135.183594 C 136.378906 133.214844 140.746094 130.195312 146.695312 128.46875 C 152.648438 126.742188 157.925781 126.933594 158.5 128.898438 Z M 158.5 128.898438 " fill-opacity="1" fill-rule="nonzero"/><path fill="#000000" d="M 213.539062 128.898438 C 212.960938 130.867188 217.328125 133.886719 223.277344 135.613281 C 229.230469 137.339844 234.507812 137.148438 235.082031 135.183594 C 235.660156 133.214844 231.292969 130.195312 225.34375 128.46875 C 219.390625 126.742188 214.113281 126.933594 213.539062 128.898438 Z M 213.539062 128.898438 " fill-opacity="1" fill-rule="nonzero"/><path fill="#000000" d="M 153.796875 150.289062 C 153.796875 153.644531 151.0625 156.328125 147.753906 156.328125 C 144.394531 156.328125 141.707031 153.597656 141.707031 150.289062 C 141.707031 146.929688 144.441406 144.246094 147.753906 144.246094 C 151.113281 144.199219 153.796875 146.929688 153.796875 150.289062 Z M 153.796875 150.289062 " fill-opacity="1" fill-rule="nonzero"/><path fill="#000000" d="M 230.378906 150.289062 C 230.378906 153.644531 227.644531 156.328125 224.335938 156.328125 C 221.023438 156.328125 218.289062 153.597656 218.289062 150.289062 C 218.289062 146.929688 221.023438 144.246094 224.335938 144.246094 C 227.644531 144.246094 230.378906 146.929688 230.378906 150.289062 Z M 230.378906 150.289062 " fill-opacity="1" fill-rule="nonzero"/><path fill="#f4e5e0" d="M 192.328125 167.886719 C 192.328125 167.886719 178.988281 167.886719 179.804688 175.941406 C 180.527344 183.230469 192.328125 180.691406 192.328125 180.691406 " fill-opacity="1" fill-rule="nonzero"/><path fill="#000000" d="M 188.011719 182.367188 C 185.707031 182.367188 183.019531 181.984375 181.054688 180.59375 C 179.566406 179.492188 178.703125 177.957031 178.511719 176.039062 C 178.316406 173.929688 178.894531 172.105469 180.238281 170.621094 C 183.882812 166.59375 191.992188 166.542969 192.328125 166.542969 C 193.050781 166.542969 193.625 167.121094 193.625 167.839844 C 193.625 168.558594 193.050781 169.132812 192.328125 169.132812 C 192.234375 169.132812 184.988281 169.179688 182.109375 172.347656 C 181.246094 173.304688 180.910156 174.410156 181.054688 175.800781 C 181.195312 177 181.675781 177.910156 182.539062 178.53125 C 185.082031 180.402344 190.265625 179.828125 192.042969 179.445312 C 192.714844 179.300781 193.433594 179.730469 193.578125 180.449219 C 193.722656 181.121094 193.289062 181.839844 192.570312 181.984375 C 192.425781 181.984375 190.457031 182.367188 188.011719 182.367188 Z M 188.011719 182.367188 " fill-opacity="1" fill-rule="nonzero"/><path fill="#f4e5e0" d="M 172.082031 200.785156 C 172.082031 200.785156 173.710938 209.941406 186.332031 209.796875 C 198.375 209.703125 199.957031 200.785156 199.957031 200.785156 " fill-opacity="1" fill-rule="nonzero"/><path fill="#000000" d="M 186.089844 211.09375 C 172.800781 211.09375 170.878906 201.117188 170.832031 201.023438 C 170.6875 200.351562 171.167969 199.679688 171.886719 199.535156 C 172.609375 199.394531 173.230469 199.871094 173.375 200.542969 C 173.472656 200.925781 175.054688 208.503906 186.089844 208.503906 C 186.1875 208.503906 186.234375 208.503906 186.332031 208.503906 C 197.078125 208.40625 198.664062 200.832031 198.710938 200.542969 C 198.855469 199.871094 199.527344 199.390625 200.199219 199.535156 C 200.871094 199.679688 201.351562 200.351562 201.207031 201.023438 C 201.207031 201.117188 199.238281 210.996094 186.332031 211.09375 C 186.234375 211.09375 186.1875 211.09375 186.089844 211.09375 Z M 186.089844 211.09375 " fill-opacity="1" fill-rule="nonzero"/><path fill="#f4e5e0" d="M 277.882812 292.375 C 277.882812 292.375 273.375 323.019531 277.882812 373.417969 " fill-opacity="1" fill-rule="nonzero"/><path fill="#000000" d="M 277.882812 374.664062 C 277.210938 374.664062 276.683594 374.183594 276.589844 373.511719 C 272.125 323.546875 276.539062 292.519531 276.589844 292.183594 C 276.683594 291.511719 277.308594 290.984375 278.027344 291.128906 C 278.746094 291.222656 279.226562 291.894531 279.082031 292.566406 C 279.035156 292.855469 274.667969 323.640625 279.082031 373.273438 C 279.132812 373.992188 278.605469 374.617188 277.933594 374.664062 C 277.933594 374.664062 277.933594 374.664062 277.882812 374.664062 Z M 277.882812 374.664062 " fill-opacity="1" fill-rule="nonzero"/><path fill="#f4e5e0" d="M 94.15625 292.375 C 94.15625 292.375 98.664062 323.019531 94.15625 373.417969 " fill-opacity="1" fill-rule="nonzero"/><path fill="#000000" d="M 94.15625 374.664062 C 94.105469 374.664062 94.058594 374.664062 94.058594 374.664062 C 93.339844 374.617188 92.859375 373.992188 92.90625 373.273438 C 97.320312 323.640625 92.957031 292.855469 92.90625 292.566406 C 92.8125 291.847656 93.292969 291.222656 94.011719 291.128906 C 94.683594 290.984375 95.355469 291.511719 95.449219 292.183594 C 95.5 292.472656 99.914062 323.546875 95.449219 373.511719 C 95.402344 374.183594 94.828125 374.664062 94.15625 374.664062 Z M 94.15625 374.664062 " fill-opacity="1" fill-rule="nonzero"/><path fill="#000000" d="M 153.796875 72.746094 C 153.796875 72.746094 188.296875 119.933594 265.457031 126.933594 C 265.457031 126.933594 274.332031 92.984375 246.261719 63.441406 C 218.191406 33.902344 157.636719 43.160156 157.636719 43.160156 C 157.636719 43.160156 100.394531 39.082031 105.574219 130.625 C 105.574219 130.625 145.6875 128.851562 153.796875 72.746094 Z M 153.796875 72.746094 " fill-opacity="1" fill-rule="nonzero"/><path fill="#000000" d="M 162.101562 271.609375 C 162.101562 271.609375 166.851562 254.300781 166.898438 242.457031 L 158.164062 245.8125 C 158.164062 245.8125 158.117188 261.207031 162.101562 271.609375 Z M 162.101562 271.609375 " fill-opacity="1" fill-rule="nonzero"/><path fill="#000000" d="M 209.699219 271.609375 C 209.699219 271.609375 204.949219 254.300781 204.902344 242.457031 L 213.632812 245.8125 C 213.632812 245.8125 213.730469 261.207031 209.699219 271.609375 Z M 209.699219 271.609375 " fill-opacity="1" fill-rule="nonzero"/><path fill="#f4e5e0" d="M 186.042969 303.117188 C 172.847656 295.875 174.144531 325.65625 162.292969 321.148438 C 150.441406 316.6875 135.132812 270.988281 138.78125 256.074219 C 142.472656 241.160156 167.089844 236.699219 167.089844 236.699219 L 166.851562 246.101562 C 163.058594 245.859375 161.476562 251.375 161.140625 252.71875 C 161.09375 252.910156 161.09375 253.003906 161.09375 253.003906 C 161.09375 253.339844 161.042969 253.675781 161.042969 254.011719 C 160.46875 270.316406 186.042969 303.117188 186.042969 303.117188 Z M 186.042969 303.117188 " fill-opacity="1" fill-rule="nonzero"/><path fill="#000000" d="M 164.691406 322.921875 C 163.828125 322.921875 162.867188 322.730469 161.8125 322.347656 C 149.046875 317.550781 133.789062 271.035156 137.53125 255.785156 C 141.371094 240.25 165.84375 235.644531 166.851562 235.453125 C 167.234375 235.40625 167.617188 235.5 167.90625 235.742188 C 168.195312 235.980469 168.386719 236.363281 168.335938 236.75 L 168.097656 246.148438 C 168.097656 246.484375 167.953125 246.820312 167.664062 247.058594 C 167.425781 247.296875 167.089844 247.441406 166.707031 247.394531 C 166.65625 247.394531 166.609375 247.394531 166.5625 247.394531 C 163.875 247.394531 162.578125 252.09375 162.339844 253.054688 C 162.339844 253.246094 162.292969 253.4375 162.292969 253.628906 L 162.292969 254.058594 C 161.714844 269.742188 186.761719 302.0625 187.003906 302.398438 C 187.386719 302.878906 187.339844 303.546875 186.957031 304.027344 C 186.570312 304.507812 185.898438 304.605469 185.371094 304.316406 C 183.644531 303.355469 182.203125 303.117188 180.910156 303.5 C 178.175781 304.410156 176.253906 308.488281 174.382812 312.46875 C 172.128906 317.40625 169.539062 322.921875 164.691406 322.921875 Z M 165.746094 238.332031 C 160.421875 239.578125 142.90625 244.566406 139.980469 256.410156 C 136.285156 271.46875 152.214844 316.015625 162.675781 319.996094 C 166.945312 321.578125 169.058594 317.839844 172.082031 311.363281 C 174.191406 306.90625 176.304688 302.300781 180.140625 301.054688 C 180.910156 300.816406 181.726562 300.71875 182.589844 300.765625 C 176.160156 292.039062 159.21875 267.726562 159.75 254.011719 C 159.75 253.867188 159.75 253.675781 159.796875 253.484375 L 159.796875 253.054688 C 159.796875 252.957031 159.84375 252.527344 159.890625 252.429688 C 160.324219 250.75 161.859375 245.714844 165.601562 244.949219 Z M 165.746094 238.332031 " fill-opacity="1" fill-rule="nonzero"/><path fill="#f4e5e0" d="M 186.042969 303.117188 C 199.238281 295.875 197.945312 325.65625 209.796875 321.148438 C 221.648438 316.6875 236.953125 270.988281 233.308594 256.074219 C 229.613281 241.160156 204.996094 236.699219 204.996094 236.699219 L 205.238281 246.101562 C 209.027344 245.859375 210.609375 251.375 210.945312 252.71875 C 210.996094 252.910156 210.996094 253.003906 210.996094 253.003906 C 210.996094 253.339844 211.042969 253.675781 211.042969 254.011719 C 211.617188 270.316406 186.042969 303.117188 186.042969 303.117188 Z M 186.042969 303.117188 " fill-opacity="1" fill-rule="nonzero"/><path fill="#000000" d="M 207.394531 322.921875 C 202.550781 322.921875 199.957031 317.40625 197.65625 312.421875 C 195.785156 308.441406 193.863281 304.363281 191.128906 303.453125 C 189.882812 303.019531 188.394531 303.308594 186.667969 304.269531 C 186.140625 304.554688 185.46875 304.460938 185.082031 303.980469 C 184.699219 303.5 184.652344 302.828125 185.035156 302.351562 C 185.277344 302.015625 210.324219 269.742188 209.746094 254.058594 L 209.746094 253.582031 C 209.746094 253.390625 209.699219 253.195312 209.699219 253.003906 C 209.460938 252.046875 208.117188 247.347656 205.429688 247.347656 C 205.382812 247.347656 205.285156 247.347656 205.1875 247.347656 C 204.851562 247.347656 204.566406 247.203125 204.324219 247.011719 C 204.085938 246.769531 203.941406 246.433594 203.894531 246.101562 L 203.652344 236.699219 C 203.652344 236.316406 203.796875 235.933594 204.085938 235.695312 C 204.375 235.453125 204.757812 235.359375 205.140625 235.40625 C 206.195312 235.597656 230.621094 240.203125 234.460938 255.738281 C 238.203125 271.035156 222.941406 317.503906 210.132812 322.296875 C 209.21875 322.777344 208.261719 322.921875 207.394531 322.921875 Z M 189.882812 300.71875 C 190.554688 300.71875 191.226562 300.816406 191.898438 301.054688 C 195.6875 302.300781 197.847656 306.90625 199.957031 311.363281 C 202.980469 317.789062 205.09375 321.628906 209.363281 319.996094 C 219.824219 316.066406 235.753906 271.46875 232.109375 256.410156 C 229.179688 244.566406 211.714844 239.578125 206.339844 238.332031 L 206.53125 244.949219 C 210.226562 245.714844 211.8125 250.75 212.242188 252.429688 C 212.242188 252.527344 212.339844 252.910156 212.339844 253.054688 L 212.339844 253.484375 C 212.339844 253.675781 212.386719 253.867188 212.386719 254.058594 C 212.867188 267.726562 195.976562 292.039062 189.546875 300.765625 C 189.59375 300.71875 189.738281 300.71875 189.882812 300.71875 Z M 189.882812 300.71875 " fill-opacity="1" fill-rule="nonzero"/></svg>