<svg xmlns="http://www.w3.org/2000/svg" xmlns:xlink="http://www.w3.org/1999/xlink" width="500" zoomAndPan="magnify" viewBox="0 0 375 374.999991" height="500" preserveAspectRatio="xMidYMid meet" version="1.0"><defs><clipPath id="0718301612"><path d="M 265 195 L 292.78125 195 L 292.78125 231 L 265 231 Z M 265 195 " clip-rule="nonzero"/></clipPath><clipPath id="519a15a15f"><path d="M 82.03125 195 L 109 195 L 109 231 L 82.03125 231 Z M 82.03125 195 " clip-rule="nonzero"/></clipPath></defs><path fill="#000000" d="M 104.8125 200.660156 L 97.164062 197.664062 L 93.257812 196.832031 L 91.425781 175.78125 L 92.589844 157.058594 C 92.589844 157.058594 95.75 141.082031 96.414062 138.835938 C 97.078125 136.589844 102.734375 122.695312 102.734375 122.695312 L 108.636719 113.207031 L 119.277344 100.644531 L 130.082031 91.90625 L 139.0625 86.414062 L 129.835938 77.84375 L 123.597656 67.695312 L 120.691406 58.042969 C 120.691406 58.042969 120.855469 47.808594 122.101562 45.144531 C 123.351562 42.480469 127.839844 37.074219 127.839844 37.074219 C 127.839844 37.074219 135.988281 31.414062 137.816406 30.167969 C 139.644531 28.917969 143.96875 25.09375 143.96875 25.09375 C 143.96875 25.09375 146.875 20.433594 147.375 17.851562 C 147.875 15.273438 149.785156 10.199219 150.867188 8.449219 C 151.949219 6.703125 156.769531 4.039062 158.433594 3.542969 C 160.09375 3.042969 165.75 1.128906 167.328125 1.210938 C 168.90625 1.292969 176.554688 2.292969 176.554688 2.292969 L 189.523438 7.121094 L 197.253906 10.03125 C 197.253906 10.03125 205.320312 7.203125 207.398438 6.785156 C 209.476562 6.371094 215.710938 5.207031 218.703125 5.871094 C 221.695312 6.535156 226.851562 7.867188 228.679688 10.03125 C 230.507812 12.195312 234.25 16.6875 235.664062 22.597656 C 237.078125 28.503906 237.574219 34.660156 237.574219 34.660156 C 237.574219 34.660156 245.390625 39.570312 247.96875 43.398438 C 250.542969 47.226562 253.203125 51.71875 253.289062 56.128906 C 253.371094 60.539062 251.042969 67.277344 251.125 68.027344 C 251.210938 68.777344 252.371094 72.6875 250.875 75.347656 C 249.378906 78.011719 247.46875 80.925781 243.976562 83.335938 C 240.484375 85.75 236.660156 87.914062 236.660156 87.914062 L 244.808594 93.90625 L 254.203125 100.8125 C 254.203125 100.8125 266.503906 113.625 269.164062 118.285156 C 271.824219 122.945312 278.890625 138.253906 278.890625 138.253906 L 284.214844 157.640625 L 285.128906 178.941406 L 283.214844 197 C 283.214844 197 279.472656 196.914062 277.230469 197.914062 C 274.984375 198.910156 268.832031 201.90625 268.832031 201.90625 L 268.417969 171.121094 L 240.734375 168.875 L 225.1875 137.589844 L 212.386719 165.460938 L 164.085938 166.128906 L 150.785156 134.59375 L 134.15625 168.542969 L 103.480469 168.457031 Z M 104.8125 200.660156 " fill-opacity="1" fill-rule="nonzero"/><path fill="#000000" d="M 141.804688 317.898438 L 117.863281 328.257812 L 106.722656 334.996094 L 98.453125 351.140625 L 93.625 374.730469 L 278.988281 374.730469 L 277.230469 365.867188 L 273.28125 350.847656 L 267.421875 337.617188 C 267.421875 337.617188 263.261719 332.417969 260.355469 330.835938 C 257.445312 329.257812 244.765625 323.929688 244.765625 323.929688 L 231.507812 318.398438 C 231.507812 318.398438 226.269531 322.972656 222.03125 323.890625 C 217.789062 324.804688 204.15625 327.050781 204.15625 327.050781 L 182.789062 328.007812 L 159.511719 325.21875 L 148.332031 322.015625 L 142.554688 320.394531 Z M 141.804688 317.898438 " fill-opacity="1" fill-rule="nonzero"/><path fill="#f4e5e0" d="M 103.148438 168.042969 L 104.726562 200.742188 L 99.242188 198.414062 C 99.242188 198.414062 94.917969 196.914062 93.753906 196.832031 C 92.589844 196.75 89.929688 198.164062 89.433594 199.160156 C 88.933594 200.160156 84.195312 211.144531 84.195312 211.144531 C 84.195312 211.144531 83.03125 219.132812 83.613281 220.460938 C 84.195312 221.792969 86.6875 225.621094 88.101562 226.621094 C 89.515625 227.617188 92.839844 229.199219 92.839844 229.199219 C 92.839844 229.199219 95.917969 229.53125 97.078125 229.449219 C 98.242188 229.367188 103.5625 227.617188 103.5625 227.617188 L 107.886719 226.285156 L 110.214844 238.269531 L 112.957031 246.089844 C 112.957031 246.089844 117.449219 255.078125 121.273438 258.570312 C 125.097656 262.066406 134.15625 269.054688 137.898438 270.886719 C 141.640625 272.714844 148.125 275.960938 148.125 275.960938 C 148.125 275.960938 157.683594 280.121094 159.84375 280.289062 C 162.007812 280.453125 167.992188 281.871094 167.992188 281.871094 L 167.492188 308.746094 L 141.472656 318.730469 L 144.714844 321.144531 L 159.929688 325.054688 L 175.226562 327.21875 C 175.226562 327.21875 187.445312 327.882812 191.851562 327.800781 C 196.257812 327.714844 206.734375 326.800781 206.734375 326.800781 L 219.203125 324.386719 L 227.183594 321.558594 L 232.089844 318.730469 L 204.902344 308.578125 L 204.988281 282.035156 C 204.988281 282.035156 210.722656 281.453125 214.214844 280.371094 C 217.707031 279.289062 227.101562 276.378906 227.101562 276.378906 C 227.101562 276.378906 237.410156 271.550781 241.398438 269.054688 C 245.390625 266.558594 253.371094 259.320312 253.371094 259.320312 L 259.605469 250.5 L 263.929688 240.097656 L 266.671875 225.371094 C 266.671875 225.371094 267.667969 227.035156 270.996094 227.953125 C 274.320312 228.867188 277.394531 229.28125 279.890625 228.949219 C 282.382812 228.617188 286.375 228.035156 288.035156 226.039062 C 289.699219 224.039062 291.195312 218.214844 291.195312 218.214844 C 291.195312 218.214844 290.613281 209.730469 289.617188 207.898438 C 288.617188 206.066406 287.539062 201.324219 285.957031 199.742188 C 284.378906 198.164062 282.050781 196.582031 282.050781 196.582031 L 272.742188 199.246094 L 268.582031 201.324219 L 268.832031 178.441406 L 268.917969 170.789062 L 241.066406 169.207031 L 225.1875 136.921875 L 212.96875 165.710938 L 163.835938 166.292969 L 151.449219 134.757812 L 133.90625 168.207031 Z M 103.148438 168.042969 " fill-opacity="1" fill-rule="nonzero"/><path fill="#000000" d="M 151.144531 130.773438 L 133.378906 167.082031 L 102.117188 166.789062 L 102.101562 168.191406 C 102.101562 168.191406 101.890625 185.480469 103.648438 205.039062 C 104.53125 214.820312 105.902344 225.171875 108.054688 234.265625 C 110.207031 243.359375 113.085938 251.199219 117.304688 256.039062 C 133.886719 275.050781 160.269531 284.523438 186.5 284.972656 C 212.730469 285.421875 238.910156 276.863281 255.117188 259.359375 C 264.121094 249.636719 267.679688 232.21875 269.230469 214.867188 C 270.785156 197.519531 270.210938 180.167969 270.3125 170.84375 L 270.324219 169.5 L 268.988281 169.421875 L 242.144531 167.839844 L 225.082031 133.683594 L 211.652344 164.300781 L 165.257812 164.976562 Z M 150.925781 137.625 L 163.386719 167.820312 L 213.503906 167.09375 L 225.246094 140.316406 L 240.355469 170.558594 L 267.496094 172.15625 C 267.441406 181.816406 267.90625 198.101562 266.429688 214.617188 C 264.894531 231.738281 261.144531 248.707031 253.054688 257.445312 C 237.566406 274.171875 212.132812 282.59375 186.546875 282.15625 C 160.964844 281.714844 135.335938 272.429688 119.425781 254.183594 C 115.800781 250.027344 112.898438 242.503906 110.792969 233.617188 C 108.691406 224.730469 107.328125 214.484375 106.453125 204.789062 C 104.820312 186.632812 104.914062 171.625 104.929688 169.632812 L 135.125 169.914062 Z M 150.925781 137.625 " fill-opacity="1" fill-rule="nonzero"/><g clip-path="url(#0718301612)"><path fill="#000000" d="M 281.019531 195.566406 C 279.03125 195.582031 277.003906 196.195312 275.136719 196.957031 C 271.402344 198.488281 268.253906 200.726562 268.253906 200.726562 L 269.878906 203.027344 C 269.878906 203.027344 272.851562 200.941406 276.203125 199.566406 C 277.882812 198.878906 279.644531 198.394531 281.039062 198.382812 C 282.433594 198.375 283.339844 198.707031 284.019531 199.703125 C 285.820312 202.347656 288.425781 207.6875 289.375 212.90625 C 289.847656 215.515625 289.914062 218.09375 289.363281 220.296875 C 288.8125 222.5 287.703125 224.328125 285.675781 225.707031 C 282.21875 228.0625 278.304688 228.1875 274.753906 227.484375 C 271.207031 226.777344 268.113281 225.21875 266.644531 224.378906 L 265.246094 226.824219 C 266.878906 227.757812 270.195312 229.449219 274.207031 230.25 C 278.21875 231.046875 283.015625 230.921875 287.257812 228.039062 C 289.871094 226.261719 291.410156 223.726562 292.09375 220.980469 C 292.777344 218.238281 292.667969 215.28125 292.144531 212.402344 C 291.097656 206.640625 288.414062 201.152344 286.34375 198.117188 C 285.085938 196.273438 283.007812 195.554688 281.019531 195.566406 Z M 281.019531 195.566406 " fill-opacity="1" fill-rule="nonzero"/></g><path fill="#000000" d="M 277.472656 203.664062 L 275.917969 205.425781 C 281.214844 210.101562 283.210938 214.921875 283.90625 220.007812 L 286.234375 219.6875 C 285.480469 214.1875 283.160156 208.683594 277.472656 203.664062 Z M 277.472656 203.664062 " fill-opacity="1" fill-rule="nonzero"/><path fill="#000000" d="M 281.199219 210.539062 C 277.644531 212.308594 274.335938 214.828125 271.675781 218.695312 L 273.609375 220.027344 C 276.023438 216.515625 278.957031 214.277344 282.246094 212.640625 Z M 281.199219 210.539062 " fill-opacity="1" fill-rule="nonzero"/><g clip-path="url(#519a15a15f)"><path fill="#000000" d="M 92.730469 195.625 C 91.117188 195.820312 89.511719 196.605469 88.480469 198.117188 C 86.410156 201.152344 83.730469 206.640625 82.683594 212.402344 C 82.15625 215.28125 82.046875 218.238281 82.730469 220.980469 C 83.414062 223.726562 84.953125 226.261719 87.566406 228.039062 C 91.398438 230.644531 95.695312 230.996094 99.433594 230.453125 C 103.171875 229.90625 106.417969 228.488281 108.445312 227.4375 L 107.15625 224.9375 C 105.300781 225.894531 102.300781 227.1875 99.027344 227.664062 C 95.753906 228.140625 92.273438 227.832031 89.148438 225.707031 C 87.121094 224.328125 86.011719 222.5 85.460938 220.296875 C 84.914062 218.09375 84.976562 215.515625 85.453125 212.90625 C 86.402344 207.6875 89.003906 202.347656 90.808594 199.703125 C 91.363281 198.886719 92.046875 198.546875 93.070312 198.421875 C 94.089844 198.300781 95.417969 198.492188 96.792969 198.910156 C 99.539062 199.742188 102.445312 201.417969 103.925781 202.355469 L 105.433594 199.972656 C 103.839844 198.964844 100.8125 197.183594 97.605469 196.214844 C 96.003906 195.726562 94.34375 195.429688 92.730469 195.625 Z M 92.730469 195.625 " fill-opacity="1" fill-rule="nonzero"/></g><path fill="#000000" d="M 97.351562 203.664062 C 91.664062 208.683594 89.347656 214.1875 88.59375 219.6875 L 90.917969 220.007812 C 91.617188 214.921875 93.609375 210.101562 98.90625 205.425781 Z M 97.351562 203.664062 " fill-opacity="1" fill-rule="nonzero"/><path fill="#000000" d="M 93.625 210.539062 L 92.582031 212.640625 C 95.867188 214.277344 98.800781 216.515625 101.214844 220.027344 L 103.152344 218.695312 C 100.492188 214.828125 97.179688 212.308594 93.625 210.539062 Z M 93.625 210.539062 " fill-opacity="1" fill-rule="nonzero"/><path fill="#000000" d="M 184.257812 74.070312 C 158.738281 74.320312 133.542969 83.636719 115.660156 102.652344 C 96.582031 122.9375 85.945312 154.214844 91.996094 196.824219 L 94.785156 196.425781 C 88.824219 154.460938 99.261719 124.199219 117.710938 104.585938 C 136.15625 84.96875 162.730469 75.964844 189.257812 76.953125 C 215.785156 77.945312 242.207031 88.945312 260.277344 109.199219 C 278.34375 129.453125 288.160156 158.960938 281.402344 197.371094 L 284.175781 197.859375 C 291.058594 158.742188 281.015625 128.21875 262.375 107.324219 C 243.738281 86.429688 216.597656 75.15625 189.363281 74.140625 C 187.660156 74.074219 185.957031 74.050781 184.257812 74.070312 Z M 184.257812 74.070312 " fill-opacity="1" fill-rule="nonzero"/><path fill="#000000" d="M 166.011719 280.84375 L 166.011719 307.980469 C 164.640625 308.453125 153.417969 312.324219 140.425781 317.355469 C 133.523438 320.027344 126.351562 322.945312 120.347656 325.699219 C 114.339844 328.449219 109.570312 330.929688 107.125 333.183594 C 103.683594 336.351562 101.09375 341.808594 98.902344 348.25 C 96.714844 354.691406 94.992188 362.132812 93.652344 369.207031 C 93.300781 371.082031 92.972656 372.929688 92.671875 374.730469 L 95.527344 374.730469 C 95.804688 373.097656 96.097656 371.425781 96.417969 369.730469 C 97.742188 362.738281 99.449219 355.402344 101.570312 349.160156 C 103.691406 342.914062 106.292969 337.777344 109.03125 335.257812 C 110.832031 333.601562 115.601562 330.972656 121.519531 328.257812 C 127.4375 325.546875 134.570312 322.644531 141.441406 319.980469 C 155.183594 314.660156 167.875 310.3125 167.875 310.3125 L 168.828125 309.984375 L 168.828125 280.84375 Z M 166.011719 280.84375 " fill-opacity="1" fill-rule="nonzero"/><path fill="#000000" d="M 203.601562 281.816406 L 203.601562 309.984375 L 204.554688 310.3125 C 204.554688 310.3125 217.246094 314.660156 230.988281 319.980469 C 237.859375 322.644531 244.992188 325.546875 250.910156 328.257812 C 256.828125 330.972656 261.597656 333.601562 263.394531 335.257812 C 266.136719 337.777344 268.738281 342.914062 270.859375 349.160156 C 272.980469 355.402344 274.6875 362.738281 276.007812 369.730469 C 276.328125 371.425781 276.625 373.097656 276.902344 374.730469 L 279.753906 374.730469 C 279.453125 372.929688 279.128906 371.082031 278.773438 369.207031 C 277.4375 362.132812 275.714844 354.691406 273.523438 348.25 C 271.335938 341.808594 268.746094 336.351562 265.304688 333.183594 C 262.855469 330.929688 258.085938 328.449219 252.082031 325.699219 C 246.078125 322.945312 238.90625 320.027344 232.003906 317.355469 C 219.011719 312.324219 207.789062 308.453125 206.417969 307.980469 L 206.417969 281.816406 Z M 203.601562 281.816406 " fill-opacity="1" fill-rule="nonzero"/><path fill="#000000" d="M 141.007812 317.621094 L 139.738281 320.132812 C 150.847656 325.769531 168.800781 328.992188 186.710938 329.253906 C 204.625 329.519531 222.425781 326.863281 233.222656 320.070312 L 231.726562 317.683594 C 221.847656 323.898438 204.351562 326.699219 186.753906 326.4375 C 169.160156 326.179688 151.398438 322.894531 141.007812 317.621094 Z M 141.007812 317.621094 " fill-opacity="1" fill-rule="nonzero"/><path fill="#000000" d="M 179.863281 216.796875 C 178.0625 220.511719 178.953125 224.738281 181.585938 227.496094 C 184.21875 230.25 188.652344 231.496094 193.507812 229.613281 L 192.492188 226.988281 C 188.527344 228.523438 185.488281 227.503906 183.621094 225.546875 C 181.753906 223.59375 181.117188 220.667969 182.398438 218.027344 Z M 179.863281 216.796875 " fill-opacity="1" fill-rule="nonzero"/><path fill="#000000" d="M 207.902344 248.921875 C 203.667969 252.527344 195.484375 255.21875 187.054688 255.546875 C 178.628906 255.875 170.015625 253.890625 164.605469 248.957031 L 162.441406 251.339844 C 168.765625 257.109375 178.179688 259.113281 187.183594 258.765625 C 196.1875 258.414062 204.84375 255.753906 209.988281 251.375 Z M 207.902344 248.921875 " fill-opacity="1" fill-rule="nonzero"/><path fill="#000000" d="M 128.183594 186.316406 C 139.207031 179.078125 154.503906 180.585938 162.15625 186.257812 C 159.132812 174.292969 132.480469 175.492188 128.183594 186.316406 Z M 128.183594 186.316406 " fill-opacity="1" fill-rule="nonzero"/><path fill="#000000" d="M 151.988281 203.847656 C 151.988281 204.628906 151.945312 205.402344 151.859375 206.167969 C 151.769531 206.933594 151.640625 207.679688 151.46875 208.398438 C 151.296875 209.121094 151.089844 209.808594 150.839844 210.457031 C 150.589844 211.105469 150.308594 211.707031 149.992188 212.261719 C 149.675781 212.8125 149.332031 213.304688 148.957031 213.738281 C 148.585938 214.175781 148.191406 214.539062 147.78125 214.839844 C 147.367188 215.136719 146.941406 215.363281 146.5 215.515625 C 146.0625 215.667969 145.617188 215.746094 145.171875 215.746094 C 144.722656 215.746094 144.277344 215.667969 143.839844 215.515625 C 143.402344 215.363281 142.972656 215.136719 142.5625 214.839844 C 142.148438 214.539062 141.753906 214.175781 141.382812 213.738281 C 141.011719 213.304688 140.664062 212.8125 140.347656 212.261719 C 140.03125 211.707031 139.75 211.105469 139.5 210.457031 C 139.253906 209.808594 139.042969 209.121094 138.871094 208.398438 C 138.699219 207.679688 138.570312 206.933594 138.484375 206.167969 C 138.394531 205.402344 138.351562 204.628906 138.351562 203.847656 C 138.351562 203.066406 138.394531 202.289062 138.484375 201.523438 C 138.570312 200.757812 138.699219 200.015625 138.871094 199.292969 C 139.042969 198.570312 139.253906 197.886719 139.5 197.234375 C 139.75 196.585938 140.03125 195.984375 140.347656 195.433594 C 140.664062 194.878906 141.011719 194.386719 141.382812 193.953125 C 141.753906 193.519531 142.148438 193.152344 142.5625 192.851562 C 142.972656 192.554688 143.402344 192.328125 143.839844 192.175781 C 144.277344 192.023438 144.722656 191.945312 145.171875 191.945312 C 145.617188 191.945312 146.0625 192.023438 146.5 192.175781 C 146.941406 192.328125 147.367188 192.554688 147.78125 192.851562 C 148.191406 193.152344 148.585938 193.519531 148.957031 193.953125 C 149.332031 194.386719 149.675781 194.878906 149.992188 195.433594 C 150.308594 195.984375 150.589844 196.585938 150.839844 197.234375 C 151.089844 197.886719 151.296875 198.570312 151.46875 199.292969 C 151.640625 200.015625 151.769531 200.757812 151.859375 201.523438 C 151.945312 202.289062 151.988281 203.066406 151.988281 203.847656 Z M 151.988281 203.847656 " fill-opacity="1" fill-rule="nonzero"/><path fill="#000000" d="M 234.078125 203.847656 C 234.078125 204.628906 234.035156 205.402344 233.945312 206.167969 C 233.859375 206.933594 233.730469 207.679688 233.558594 208.398438 C 233.386719 209.121094 233.175781 209.808594 232.929688 210.457031 C 232.679688 211.105469 232.398438 211.707031 232.082031 212.261719 C 231.761719 212.8125 231.417969 213.304688 231.046875 213.738281 C 230.675781 214.175781 230.28125 214.539062 229.867188 214.839844 C 229.453125 215.136719 229.027344 215.363281 228.589844 215.515625 C 228.148438 215.667969 227.707031 215.746094 227.257812 215.746094 C 226.8125 215.746094 226.367188 215.667969 225.929688 215.515625 C 225.488281 215.363281 225.0625 215.136719 224.648438 214.839844 C 224.234375 214.539062 223.84375 214.175781 223.46875 213.738281 C 223.097656 213.304688 222.753906 212.8125 222.4375 212.261719 C 222.121094 211.707031 221.839844 211.105469 221.589844 210.457031 C 221.339844 209.808594 221.128906 209.121094 220.960938 208.398438 C 220.789062 207.679688 220.660156 206.933594 220.570312 206.167969 C 220.484375 205.402344 220.441406 204.628906 220.441406 203.847656 C 220.441406 203.066406 220.484375 202.289062 220.570312 201.523438 C 220.660156 200.757812 220.789062 200.015625 220.960938 199.292969 C 221.128906 198.570312 221.339844 197.882812 221.589844 197.234375 C 221.839844 196.585938 222.121094 195.984375 222.4375 195.433594 C 222.753906 194.878906 223.097656 194.386719 223.46875 193.953125 C 223.84375 193.519531 224.234375 193.152344 224.648438 192.851562 C 225.0625 192.554688 225.488281 192.328125 225.929688 192.175781 C 226.367188 192.023438 226.8125 191.945312 227.257812 191.945312 C 227.707031 191.945312 228.148438 192.023438 228.589844 192.175781 C 229.027344 192.328125 229.453125 192.554688 229.867188 192.851562 C 230.28125 193.152344 230.675781 193.519531 231.046875 193.953125 C 231.417969 194.386719 231.761719 194.878906 232.082031 195.433594 C 232.398438 195.984375 232.679688 196.585938 232.929688 197.234375 C 233.175781 197.886719 233.386719 198.570312 233.558594 199.292969 C 233.730469 200.015625 233.859375 200.757812 233.945312 201.523438 C 234.035156 202.289062 234.078125 203.066406 234.078125 203.847656 Z M 234.078125 203.847656 " fill-opacity="1" fill-rule="nonzero"/><path fill="#000000" d="M 244.246094 186.316406 C 233.222656 179.078125 217.925781 180.585938 210.273438 186.257812 C 213.296875 174.292969 239.949219 175.492188 244.246094 186.316406 Z M 244.246094 186.316406 " fill-opacity="1" fill-rule="nonzero"/><path fill="#000000" d="M 171.261719 0.382812 C 167.851562 0.257812 164.082031 0.652344 159.777344 1.828125 C 155.390625 3.023438 152.484375 4.90625 150.539062 7.199219 C 148.589844 9.492188 147.632812 12.113281 146.851562 14.667969 C 145.289062 19.777344 144.480469 24.558594 138.660156 28.140625 C 132.390625 32.007812 127.242188 35.269531 123.742188 39.714844 C 120.242188 44.160156 118.570312 49.773438 119.210938 57.722656 C 119.875 65.921875 124.683594 73.300781 129.25 78.679688 C 133.8125 84.054688 138.234375 87.472656 138.234375 87.472656 L 139.957031 85.242188 C 139.957031 85.242188 135.757812 81.996094 131.394531 76.855469 C 127.027344 71.710938 122.601562 64.71875 122.019531 57.496094 C 121.417969 50.023438 122.878906 45.363281 125.953125 41.457031 C 129.027344 37.554688 133.890625 34.390625 140.136719 30.542969 C 146.839844 26.410156 148.042969 20.390625 149.542969 15.492188 C 150.292969 13.042969 151.128906 10.855469 152.683594 9.023438 C 154.238281 7.191406 156.539062 5.628906 160.519531 4.546875 C 168.640625 2.332031 174.351562 3.035156 179.734375 4.773438 C 185.117188 6.507812 190.167969 9.371094 196.5625 11.390625 L 197.03125 11.539062 L 197.492188 11.359375 C 208.234375 7.207031 217.316406 5.628906 223.773438 8.554688 C 230.230469 11.480469 234.734375 19.007812 236.109375 34.460938 L 236.167969 35.117188 L 236.707031 35.492188 C 241.144531 38.589844 245.855469 42 248.714844 46.839844 C 251.574219 51.679688 252.742188 57.988281 249.835938 67.453125 L 249.726562 67.800781 L 249.804688 68.15625 C 250.535156 71.609375 249.976562 74.347656 248.746094 76.667969 C 247.515625 78.988281 245.558594 80.882812 243.460938 82.363281 C 239.261719 85.320312 234.625 86.542969 234.625 86.542969 L 235.332031 89.269531 C 235.332031 89.269531 240.382812 87.976562 245.082031 84.667969 C 247.429688 83.011719 249.722656 80.835938 251.234375 77.988281 C 252.691406 75.242188 253.335938 71.851562 252.605469 67.972656 C 255.5625 58.113281 254.351562 50.847656 251.136719 45.40625 C 248.011719 40.113281 243.164062 36.582031 238.832031 33.550781 C 237.335938 18.066406 232.496094 9.414062 224.9375 5.988281 C 217.382812 2.566406 207.777344 4.429688 196.980469 8.546875 C 191.113281 6.636719 186.199219 3.894531 180.597656 2.089844 C 177.726562 1.164062 174.675781 0.511719 171.261719 0.382812 Z M 171.261719 0.382812 " fill-opacity="1" fill-rule="nonzero"/></svg>