<svg xmlns="http://www.w3.org/2000/svg" xmlns:xlink="http://www.w3.org/1999/xlink" width="1366" zoomAndPan="magnify" viewBox="0 0 1024.5 576" height="768" preserveAspectRatio="xMidYMid meet" version="1.0"><defs><clipPath id="55d98d6f9c"><path d="M 0 0.140625 L 1024 0.140625 L 1024 566 L 0 566 Z M 0 0.140625 " clip-rule="nonzero"/></clipPath></defs><g clip-path="url(#55d98d6f9c)"><path fill="#252627" d="M 1070.777344 561.488281 C 1056.964844 518.339844 1021.59375 485.980469 977.796875 475.191406 C 930.296875 463.394531 880.4375 474.855469 835.628906 492.382812 C 811.375 502.160156 787.792969 513.621094 763.875 524.746094 C 740.628906 535.53125 717.382812 546.992188 692.453125 554.074219 C 669.546875 560.476562 645.289062 562.5 622.382812 555.757812 C 604.1875 550.363281 588.019531 540.25 572.859375 529.128906 C 542.203125 506.203125 513.902344 476.203125 475.835938 466.425781 C 436.757812 456.3125 396.667969 470.472656 360.621094 484.628906 C 323.898438 499.125 286.167969 516.316406 245.742188 516.65625 C 201.945312 516.992188 167.582031 492.046875 134.90625 466.089844 C 117.722656 452.269531 100.542969 438.449219 80.664062 427.996094 C 61.125 417.886719 40.238281 410.804688 18.679688 406.761719 C -24.441406 398.671875 -70.257812 403.390625 -110.6875 420.917969 C -120.457031 425.300781 -129.890625 430.359375 -138.984375 435.75 C -141.007812 437.101562 -142.691406 436.761719 -144.375 435.75 C -145.386719 434.738281 -146.394531 433.390625 -146.394531 431.03125 C -146.394531 385.523438 -146.394531 70.335938 -146.394531 24.492188 C -146.394531 18.085938 -146.394531 11.679688 -146.394531 5.277344 C -146.394531 2.578125 -144.039062 0.21875 -141.34375 0.21875 C -130.5625 0.21875 -119.445312 0.21875 -108.664062 0.21875 C -79.355469 0.21875 -49.710938 0.21875 -20.398438 0.21875 C 23.394531 0.21875 66.855469 0.21875 110.648438 0.21875 C 163.878906 0.21875 217.105469 0.21875 270.671875 0.21875 C 328.953125 0.21875 386.898438 0.21875 445.179688 0.21875 C 504.132812 0.21875 563.425781 0.21875 622.382812 0.21875 C 676.957031 0.21875 731.871094 0.21875 786.445312 0.21875 C 832.9375 0.21875 879.425781 0.21875 925.578125 0.21875 C 958.929688 0.21875 992.285156 0.21875 1025.636719 0.21875 C 1041.46875 0.21875 1057.304688 -0.117188 1072.800781 0.21875 C 1073.472656 0.21875 1074.148438 0.21875 1074.820312 0.21875 C 1077.515625 0.21875 1079.875 2.578125 1079.875 5.277344 C 1079.875 37.300781 1079.875 339.339844 1079.875 371.367188 C 1079.875 422.265625 1079.875 473.507812 1079.875 524.410156 C 1079.875 536.207031 1079.875 548.003906 1079.875 559.804688 C 1080.546875 566.207031 1072.460938 566.882812 1070.777344 561.488281 Z M 1070.777344 561.488281 " fill-opacity="1" fill-rule="nonzero"/></g></svg>