<svg xmlns="http://www.w3.org/2000/svg" xmlns:xlink="http://www.w3.org/1999/xlink" width="1366" zoomAndPan="magnify" viewBox="0 0 1024.5 576" height="768" preserveAspectRatio="xMidYMid meet" version="1.0"><defs><clipPath id="4ca643620e"><path d="M 514 0.140625 L 1024 0.140625 L 1024 575.859375 L 514 575.859375 Z M 514 0.140625 " clip-rule="nonzero"/></clipPath></defs><g clip-path="url(#4ca643620e)"><path fill="#252627" d="M 517.644531 603.734375 C 560.796875 589.921875 593.15625 554.546875 603.945312 510.753906 C 615.742188 463.253906 604.28125 413.394531 586.75 368.585938 C 576.976562 344.332031 565.515625 320.75 554.390625 296.828125 C 543.601562 273.585938 532.140625 250.339844 525.0625 225.410156 C 518.65625 202.5 516.636719 178.246094 523.378906 155.335938 C 528.769531 137.144531 538.882812 120.972656 550.007812 105.8125 C 572.929688 75.15625 602.933594 46.859375 612.707031 8.789062 C 622.820312 -30.289062 608.664062 -70.378906 594.503906 -106.425781 C 580.007812 -143.144531 562.816406 -180.875 562.480469 -221.304688 C 562.144531 -265.097656 587.089844 -299.460938 613.046875 -332.140625 C 626.867188 -349.320312 640.6875 -366.5 651.136719 -386.378906 C 661.25 -405.917969 668.328125 -426.804688 672.375 -448.367188 C 680.464844 -491.488281 675.746094 -537.304688 658.214844 -577.730469 C 653.835938 -587.5 648.777344 -596.933594 643.382812 -606.027344 C 642.035156 -608.050781 642.371094 -609.734375 643.382812 -611.417969 C 644.394531 -612.429688 645.742188 -613.441406 648.105469 -613.441406 C 693.613281 -613.441406 1008.800781 -613.441406 1054.644531 -613.441406 C 1061.050781 -613.441406 1067.453125 -613.441406 1073.859375 -613.441406 C 1076.554688 -613.441406 1078.914062 -611.082031 1078.914062 -608.386719 C 1078.914062 -597.605469 1078.914062 -586.488281 1078.914062 -575.707031 C 1078.914062 -546.398438 1078.914062 -516.753906 1078.914062 -487.445312 C 1078.914062 -443.648438 1078.914062 -400.191406 1078.914062 -356.394531 C 1078.914062 -303.167969 1078.914062 -249.9375 1078.914062 -196.375 C 1078.914062 -138.09375 1078.914062 -80.148438 1078.914062 -21.867188 C 1078.914062 37.089844 1078.914062 96.382812 1078.914062 155.335938 C 1078.914062 209.914062 1078.914062 264.824219 1078.914062 319.402344 C 1078.914062 365.890625 1078.914062 412.382812 1078.914062 458.535156 C 1078.914062 491.886719 1078.914062 525.238281 1078.914062 558.589844 C 1078.914062 574.425781 1079.253906 590.257812 1078.914062 605.753906 C 1078.914062 606.429688 1078.914062 607.101562 1078.914062 607.777344 C 1078.914062 610.472656 1076.554688 612.832031 1073.859375 612.832031 C 1041.835938 612.832031 739.792969 612.832031 707.769531 612.832031 C 656.867188 612.832031 605.628906 612.832031 554.726562 612.832031 C 542.929688 612.832031 531.128906 612.832031 519.332031 612.832031 C 512.925781 613.503906 512.253906 605.417969 517.644531 603.734375 Z M 517.644531 603.734375 " fill-opacity="1" fill-rule="nonzero"/></g></svg>