<svg xmlns="http://www.w3.org/2000/svg" xmlns:xlink="http://www.w3.org/1999/xlink" width="1366" zoomAndPan="magnify" viewBox="0 0 1024.5 576" height="768" preserveAspectRatio="xMidYMid meet" version="1.0"><defs><clipPath id="367b5547fc"><path d="M 0 0.140625 L 481 0.140625 L 481 575.859375 L 0 575.859375 Z M 0 0.140625 " clip-rule="nonzero"/></clipPath></defs><g clip-path="url(#367b5547fc)"><path fill="#252627" d="M 476.597656 586.527344 C 433.449219 572.714844 401.089844 537.339844 390.300781 493.542969 C 378.503906 446.042969 389.964844 396.183594 407.492188 351.378906 C 417.269531 327.121094 428.730469 303.539062 439.855469 279.621094 C 450.640625 256.375 462.101562 233.128906 469.183594 208.199219 C 475.585938 185.292969 477.609375 161.035156 470.867188 138.128906 C 465.472656 119.9375 455.363281 103.765625 444.238281 88.605469 C 421.316406 57.949219 391.3125 29.652344 381.535156 -8.417969 C 371.425781 -47.496094 385.582031 -87.585938 399.738281 -123.632812 C 414.234375 -160.355469 431.425781 -198.085938 431.765625 -238.511719 C 432.101562 -282.308594 407.15625 -316.667969 381.199219 -349.347656 C 367.378906 -366.527344 353.558594 -383.710938 343.109375 -403.585938 C 332.996094 -423.125 325.914062 -444.011719 321.871094 -465.574219 C 313.78125 -508.695312 318.5 -554.511719 336.027344 -594.9375 C 340.410156 -604.707031 345.46875 -614.140625 350.859375 -623.238281 C 352.210938 -625.257812 351.871094 -626.941406 350.859375 -628.628906 C 349.847656 -629.636719 348.5 -630.648438 346.140625 -630.648438 C 300.632812 -630.648438 -14.554688 -630.648438 -60.398438 -630.648438 C -66.804688 -630.648438 -73.210938 -630.648438 -79.613281 -630.648438 C -82.3125 -630.648438 -84.671875 -628.289062 -84.671875 -625.59375 C -84.671875 -614.816406 -84.671875 -603.699219 -84.671875 -592.917969 C -84.671875 -563.609375 -84.671875 -533.960938 -84.671875 -504.652344 C -84.671875 -460.855469 -84.671875 -417.398438 -84.671875 -373.601562 C -84.671875 -320.375 -84.671875 -267.148438 -84.671875 -213.582031 C -84.671875 -155.300781 -84.671875 -97.355469 -84.671875 -39.074219 C -84.671875 19.882812 -84.671875 79.171875 -84.671875 138.128906 C -84.671875 192.703125 -84.671875 247.617188 -84.671875 302.191406 C -84.671875 348.683594 -84.671875 395.175781 -84.671875 441.328125 C -84.671875 474.679688 -84.671875 508.03125 -84.671875 541.382812 C -84.671875 557.214844 -85.007812 573.050781 -84.671875 588.546875 C -84.671875 589.222656 -84.671875 589.894531 -84.671875 590.570312 C -84.671875 593.261719 -82.3125 595.621094 -79.613281 595.621094 C -47.589844 595.621094 254.449219 595.621094 286.476562 595.621094 C 337.375 595.621094 388.617188 595.621094 439.519531 595.621094 C 451.316406 595.621094 463.113281 595.621094 474.914062 595.621094 C 481.316406 596.296875 481.992188 588.210938 476.597656 586.527344 Z M 476.597656 586.527344 " fill-opacity="1" fill-rule="nonzero"/></g></svg>