<svg xmlns="http://www.w3.org/2000/svg" xmlns:xlink="http://www.w3.org/1999/xlink" width="1366" zoomAndPan="magnify" viewBox="0 0 1024.5 576" height="768" preserveAspectRatio="xMidYMid meet" version="1.0"><defs><clipPath id="0970370996"><path d="M 0 204.53125 L 1024 204.53125 L 1024 575.859375 L 0 575.859375 Z M 0 204.53125 " clip-rule="nonzero"/></clipPath><clipPath id="cda9a8cd02"><path d="M 696.292969 210.546875 C 642.730469 206.914062 581.839844 204.53125 522.078125 204.53125 C 462.3125 204.53125 404.800781 206.574219 351.804688 210.207031 C 350.675781 210.320312 349.550781 210.320312 348.421875 210.433594 C 149.398438 224.972656 2.808594 263.359375 -0.0117188 315.316406 L -0.0117188 780.53125 L 1044.726562 780.53125 L 1044.726562 315.664062 C 1041.90625 263.132812 897.574219 224.746094 696.292969 210.546875 " clip-rule="nonzero"/></clipPath><clipPath id="7735f302de"><path d="M 0 0.140625 L 1024 0.140625 L 1024 341.175781 L 0 341.175781 Z M 0 0.140625 " clip-rule="nonzero"/></clipPath></defs><g clip-path="url(#0970370996)"><g clip-path="url(#cda9a8cd02)"><path fill="#343030" d="M 1044.726562 780.53125 L -0.0117188 780.53125 L -0.0117188 204.53125 L 1044.726562 204.53125 Z M 1044.726562 780.53125 " fill-opacity="1" fill-rule="nonzero"/></g></g><g clip-path="url(#7735f302de)"><path fill="#343030" d="M 0 88.207031 L 45.5625 84.558594 C 91.125 80.910156 182.25 73.617188 273.375 51.492188 C 364.5 29.488281 455.625 -7.46875 546.75 0.675781 C 637.875 8.820312 729 61.824219 820.125 73.984375 C 911.25 86.140625 1002.375 57.449219 1047.9375 42.980469 L 1093.5 28.636719 L 1093.5 341.074219 L 1047.9375 341.074219 C 1002.375 341.074219 911.25 341.074219 820.125 341.074219 C 729 341.074219 637.875 341.074219 546.75 341.074219 C 455.625 341.074219 364.5 341.074219 273.375 341.074219 C 182.25 341.074219 91.125 341.074219 45.5625 341.074219 L 0 341.074219 Z M 0 88.207031 " fill-opacity="1" fill-rule="nonzero"/></g></svg>