<svg xmlns="http://www.w3.org/2000/svg" xmlns:xlink="http://www.w3.org/1999/xlink" width="497" zoomAndPan="magnify" viewBox="0 0 372.75 347.249998" height="463" preserveAspectRatio="xMidYMid meet" version="1.0"><defs><clipPath id="2fa1585b28"><path d="M 27 0.183594 L 343 0.183594 L 343 346 L 27 346 Z M 27 0.183594 " clip-rule="nonzero"/></clipPath><clipPath id="89e19b8bf7"><path d="M 0.523438 198 L 119 198 L 119 220 L 0.523438 220 Z M 0.523438 198 " clip-rule="nonzero"/></clipPath><clipPath id="a0ab26f53c"><path d="M 0.523438 198 L 119 198 L 119 219 L 0.523438 219 Z M 0.523438 198 " clip-rule="nonzero"/></clipPath><clipPath id="432e140d1c"><path d="M 254 193 L 371.96875 193 L 371.96875 217 L 254 217 Z M 254 193 " clip-rule="nonzero"/></clipPath><clipPath id="b62f40d825"><path d="M 255 241 L 371.96875 241 L 371.96875 270 L 255 270 Z M 255 241 " clip-rule="nonzero"/></clipPath><clipPath id="588f71ddaf"><path d="M 210.570312 169.710938 L 223.574219 169.710938 L 223.574219 183.058594 L 210.570312 183.058594 Z M 210.570312 169.710938 " clip-rule="nonzero"/></clipPath><clipPath id="6d9b868173"><path d="M 217.070312 169.710938 L 230.078125 169.710938 L 230.078125 183.058594 L 217.070312 183.058594 Z M 217.070312 169.710938 " clip-rule="nonzero"/></clipPath><clipPath id="8aa286088d"><path d="M 224.507812 173.75 L 237.511719 173.75 L 237.511719 187.09375 L 224.507812 187.09375 Z M 224.507812 173.75 " clip-rule="nonzero"/></clipPath><clipPath id="26ea19dd5f"><path d="M 231.324219 173.75 L 244.328125 173.75 L 244.328125 187.09375 L 231.324219 187.09375 Z M 231.324219 173.75 " clip-rule="nonzero"/></clipPath><clipPath id="bbb9fb1755"><path d="M 241.933594 173.105469 L 254.941406 173.105469 L 254.941406 186.449219 L 241.933594 186.449219 Z M 241.933594 173.105469 " clip-rule="nonzero"/></clipPath><clipPath id="0c68b6cf61"><path d="M 248.4375 169.710938 L 261.441406 169.710938 L 261.441406 183.058594 L 248.4375 183.058594 Z M 248.4375 169.710938 " clip-rule="nonzero"/></clipPath><clipPath id="fd5b33fdd0"><path d="M 258.964844 164.242188 L 271.96875 164.242188 L 271.96875 177.589844 L 258.964844 177.589844 Z M 258.964844 164.242188 " clip-rule="nonzero"/></clipPath><clipPath id="b38c9e07fe"><path d="M 265.46875 157.570312 L 278.472656 157.570312 L 278.472656 170.917969 L 265.46875 170.917969 Z M 265.46875 157.570312 " clip-rule="nonzero"/></clipPath></defs><path fill="#000000" d="M 138.359375 76.59375 C 119.929688 81.035156 102.78125 84.328125 88.128906 98.289062 C 74.386719 111.390625 60.289062 126.058594 53.355469 144.113281 C 45.765625 163.859375 47.011719 185.707031 45.71875 206.457031 C 44.832031 220.605469 47.902344 235.097656 50.601562 248.886719 C 55.09375 271.894531 70.9375 301.703125 98.160156 303.328125 C 122.1875 304.765625 127.085938 271.878906 130.464844 254.628906 C 136.554688 223.535156 152.402344 200.132812 172.066406 177.148438 C 184.5 162.625 192.554688 137.921875 184.84375 119.832031 C 181.425781 111.820312 177.003906 106.832031 177.839844 97.414062 C 178.460938 90.46875 185.363281 80.332031 178.5625 76.59375 C 168.570312 71.105469 149.195312 73.980469 138.359375 76.59375 " fill-opacity="1" fill-rule="nonzero"/><g clip-path="url(#2fa1585b28)"><path fill="#000000" d="M 63.796875 102.21875 C 21.269531 157.328125 11.386719 245.964844 59.832031 300.644531 C 88.921875 333.464844 133.355469 345.183594 175.800781 345.769531 C 198.972656 346.089844 222.5625 344.621094 245.402344 340.628906 C 263.132812 337.527344 280.851562 332.339844 296.382812 323.046875 C 325.601562 305.550781 338.207031 274.085938 341.363281 241.414062 C 343.648438 217.761719 342.628906 192.363281 337.035156 169.261719 C 329.957031 139.996094 315.535156 112.515625 303.148438 85.25 C 303.242188 86.460938 303.34375 87.671875 303.441406 88.878906 C 311.921875 60.710938 311.738281 29.984375 302.300781 2.078125 C 302.097656 1.480469 301.824219 0.617188 301.074219 0.546875 C 296.632812 0.140625 293.703125 3.226562 290.210938 5.832031 C 284.699219 9.945312 279.511719 14.496094 274.480469 19.175781 C 264.851562 28.113281 255.933594 37.882812 247.875 48.253906 C 244.609375 52.460938 241.550781 56.828125 238.851562 61.421875 C 237.773438 63.242188 237.03125 65.542969 235.394531 66.917969 C 233.457031 68.550781 230.265625 68.539062 227.894531 68.617188 C 220.761719 68.859375 213.535156 67.5625 206.414062 67.222656 C 198.335938 66.84375 190.195312 67.011719 182.109375 67.195312 C 169.425781 67.484375 156.796875 68.617188 144.1875 70.039062 C 140.714844 70.429688 127.644531 73.765625 126.015625 70.808594 C 123.1875 65.683594 120.304688 60.582031 117.304688 55.546875 C 105.015625 34.941406 89.390625 12.039062 65.855469 3.519531 C 64.933594 3.183594 64.488281 4.25 64.34375 4.996094 C 57.945312 37.164062 55.371094 68.789062 61.9375 101.140625 C 62.785156 105.324219 65.117188 102.1875 64.554688 99.394531 C 58.332031 68.628906 60.761719 38.714844 66.785156 8.101562 C 66.277344 8.59375 65.777344 9.085938 65.277344 9.578125 C 94.90625 20.160156 111.320312 51.832031 125.390625 77.792969 C 125.582031 78.136719 125.910156 78.777344 126.421875 78.71875 C 143.265625 76.890625 160.0625 74.710938 177.003906 73.96875 C 187.507812 73.503906 198.101562 73.410156 208.601562 73.910156 C 216.324219 74.28125 227.125 77.472656 234.539062 74.203125 C 239.414062 72.0625 241.570312 65.070312 244.421875 60.859375 C 249.046875 54.019531 254.359375 47.632812 259.820312 41.457031 C 266.308594 34.113281 273.277344 27.207031 280.59375 20.699219 C 283.984375 17.679688 287.507812 14.8125 291.113281 12.054688 C 294.195312 9.691406 297.226562 6.535156 301.230469 6.839844 C 300.820312 6.332031 300.410156 5.820312 300.003906 5.308594 C 305.96875 22.492188 308.035156 40.535156 306.523438 58.644531 C 305.804688 67.230469 304.066406 75.691406 301.695312 83.964844 C 299.9375 90.101562 303.976562 96.058594 306.449219 101.605469 C 319.957031 131.832031 334.996094 161.601562 338.125 195.03125 C 341.832031 234.695312 339.304688 281.09375 306.609375 308.726562 C 276.417969 334.242188 231.992188 337.375 194.285156 338.566406 C 149.164062 339.996094 101.335938 333.207031 67.296875 300.835938 C 41.617188 276.417969 30.273438 241.726562 30.222656 206.890625 C 30.167969 170.0625 43.292969 134.472656 64.472656 104.609375 C 64.910156 104 64.503906 101.304688 63.796875 102.21875 " fill-opacity="1" fill-rule="nonzero"/></g><path fill="#000000" d="M 196.660156 200.207031 C 191.269531 199.898438 186.609375 199.734375 178.296875 200.132812 C 173.828125 200.300781 167.523438 200.609375 162.238281 201.441406 C 158.652344 202.007812 159.144531 205.722656 162.605469 211.324219 C 166.871094 218.238281 169.773438 221.664062 175.1875 227.640625 C 183.117188 236.40625 182.777344 239.550781 187.601562 235.730469 C 195.128906 229.753906 203.359375 218.753906 207.039062 212.285156 C 211.214844 204.953125 212.078125 201.09375 196.660156 200.207031 " fill-opacity="1" fill-rule="nonzero"/><path fill="#000000" d="M 75.769531 39.027344 C 73.410156 46.707031 74.40625 55.597656 75.082031 63.476562 C 75.992188 74.066406 78.027344 84.542969 79.46875 95.066406 C 79.515625 95.390625 79.808594 96.578125 80.386719 96.199219 C 88.15625 91.15625 97.195312 88.613281 105.0625 83.824219 L 105.042969 83.570312 C 96.410156 85.613281 87.421875 88.148438 79.925781 93.015625 C 80.234375 93.394531 80.535156 93.769531 80.84375 94.148438 C 79.695312 85.75 78.246094 77.386719 77.171875 68.972656 C 75.902344 59.042969 76.636719 49.554688 76.8125 39.636719 C 76.828125 38.824219 76.152344 37.785156 75.769531 39.027344 " fill-opacity="1" fill-rule="nonzero"/><path fill="#000000" d="M 76.039062 40.636719 C 80.734375 47.429688 87.949219 53.078125 93.445312 59.328125 C 99.4375 66.128906 104.554688 73.523438 107.699219 82.070312 C 108.203125 83.433594 108.769531 80.777344 108.511719 80.074219 C 105.507812 72.011719 100.738281 65.121094 95.109375 58.671875 C 91.933594 55.039062 88.5 51.625 85.117188 48.1875 C 82.085938 45.101562 79.617188 41.363281 76.371094 38.558594 C 75.8125 38.078125 75.792969 40.277344 76.039062 40.636719 " fill-opacity="1" fill-rule="nonzero"/><path fill="#000000" d="M 107.800781 80.859375 L 90.578125 89.65625 L 91.191406 90.855469 L 108.414062 82.058594 " fill-opacity="1" fill-rule="nonzero"/><path fill="#000000" d="M 289.726562 31.863281 C 290.132812 41.066406 291.019531 49.800781 290.324219 59.046875 C 289.632812 68.222656 288.136719 77.324219 287.125 86.46875 C 287.410156 86.078125 287.699219 85.683594 287.984375 85.289062 C 280.371094 80.628906 271.339844 78.332031 262.667969 76.507812 L 262.65625 76.769531 C 270.664062 81.34375 279.773438 83.65625 287.679688 88.496094 C 288.277344 88.863281 288.507812 87.628906 288.542969 87.316406 C 289.632812 77.457031 291.097656 67.648438 291.945312 57.761719 C 292.671875 49.265625 293.476562 39.410156 290.738281 31.199219 C 290.324219 29.945312 289.695312 31.085938 289.726562 31.863281 " fill-opacity="1" fill-rule="nonzero"/><path fill="#000000" d="M 290.125 30.761719 C 287.375 33.257812 285.34375 36.511719 282.871094 39.289062 C 279.65625 42.902344 276.269531 46.359375 273.089844 50.003906 C 267.089844 56.875 262.050781 64.453125 259.089844 73.125 C 258.84375 73.835938 259.53125 76.464844 259.996094 75.070312 C 262.933594 66.386719 267.894531 59.019531 273.640625 51.96875 C 278.917969 45.492188 286.039062 39.773438 290.554688 32.824219 C 290.792969 32.453125 290.675781 30.265625 290.125 30.761719 " fill-opacity="1" fill-rule="nonzero"/><path fill="#000000" d="M 259.261719 75.085938 L 276.703125 83.425781 L 277.285156 82.210938 L 259.84375 73.875 " fill-opacity="1" fill-rule="nonzero"/><g clip-path="url(#89e19b8bf7)"><path fill="#f4e5e0" d="M 0.859375 199.023438 C 19.972656 200.53125 39.316406 204.15625 58.132812 207.816406 C 67.703125 209.679688 77.230469 211.726562 86.777344 213.6875 C 96.886719 215.757812 107.378906 218.78125 117.628906 219.777344 C 119.203125 219.933594 119.179688 214.75 117.496094 214.402344 C 108.070312 212.453125 98.359375 211.632812 88.871094 209.757812 C 79.320312 207.863281 69.789062 205.851562 60.230469 203.976562 C 50.738281 202.117188 41.207031 200.363281 31.601562 199.195312 C 21.21875 197.941406 11.261719 198.015625 0.847656 198.507812 C 0.691406 198.519531 0.703125 199.011719 0.859375 199.023438 " fill-opacity="1" fill-rule="nonzero"/></g><path fill="#f4e5e0" d="M 2.636719 274.058594 C 21.226562 267.765625 40.949219 263.503906 60.144531 259.472656 C 69.683594 257.472656 79.265625 255.628906 88.820312 253.675781 C 98.167969 251.773438 108.152344 250.546875 117.242188 247.703125 C 118.886719 247.191406 118.625 242.023438 117.105469 242.328125 C 107.597656 244.230469 98.257812 247.300781 88.71875 249.296875 C 78.480469 251.441406 68.222656 253.449219 57.992188 255.636719 C 38.613281 259.78125 20.457031 265.023438 2.5625 273.566406 C 2.429688 273.625 2.464844 274.113281 2.636719 274.058594 " fill-opacity="1" fill-rule="nonzero"/><path fill="#f4e5e0" d="M 8.84375 237.34375 C 28.105469 234.933594 48.050781 234.636719 67.457031 234.460938 C 77.015625 234.375 86.582031 234.453125 96.144531 234.445312 C 106.238281 234.441406 116.890625 235.28125 126.90625 234.21875 C 128.582031 234.042969 128.4375 228.84375 126.773438 228.839844 C 117.296875 228.816406 107.761719 229.984375 98.246094 230.058594 C 87.945312 230.140625 77.644531 230.085938 67.347656 230.1875 C 57.847656 230.289062 48.335938 230.511719 38.867188 231.308594 C 28.535156 232.1875 18.847656 234.28125 8.832031 236.828125 C 8.671875 236.867188 8.691406 237.359375 8.84375 237.34375 " fill-opacity="1" fill-rule="nonzero"/><g clip-path="url(#a0ab26f53c)"><path fill="#000000" d="M 0.859375 198.925781 C 20.027344 199.972656 39.289062 203.347656 58.109375 207 C 77.828125 210.824219 97.652344 216.378906 117.601562 218.75 C 118.546875 218.859375 118.582031 215.628906 117.519531 215.433594 C 98.433594 211.882812 79.320312 208.554688 60.253906 204.800781 C 40.480469 200.90625 21.03125 198.144531 0.851562 198.609375 L 0.859375 198.925781 " fill-opacity="1" fill-rule="nonzero"/></g><path fill="#000000" d="M 2.621094 273.964844 C 21.183594 267.195312 40.816406 262.722656 60.121094 258.652344 C 79.027344 254.671875 98.664062 252.074219 117.214844 246.671875 C 118.257812 246.367188 118.03125 243.15625 117.132812 243.355469 C 97.4375 247.730469 77.769531 252.246094 58.015625 256.457031 C 38.855469 260.535156 20.457031 265.609375 2.574219 273.664062 C 2.496094 273.699219 2.511719 274 2.621094 273.964844 " fill-opacity="1" fill-rule="nonzero"/><path fill="#000000" d="M 8.84375 237.242188 C 28.113281 234.355469 47.96875 233.828125 67.433594 233.636719 C 87.117188 233.441406 107.265625 234.855469 126.882812 233.183594 C 127.917969 233.09375 127.816406 229.855469 126.800781 229.871094 C 106.996094 230.234375 87.199219 230.816406 67.371094 231.007812 C 47.515625 231.203125 28.21875 232.484375 8.832031 236.925781 L 8.84375 237.242188 " fill-opacity="1" fill-rule="nonzero"/><g clip-path="url(#432e140d1c)"><path fill="#000000" d="M 371.394531 193.707031 C 351.5625 193.765625 332.582031 196.949219 313.25 201.222656 C 293.910156 205.484375 274.53125 209.480469 255.179688 213.609375 C 254.132812 213.832031 254.308594 217.0625 255.261719 216.921875 C 274.753906 214.089844 294.101562 208.183594 313.3125 203.851562 C 332.363281 199.554688 351.921875 195.601562 371.40625 194.019531 L 371.394531 193.707031 " fill-opacity="1" fill-rule="nonzero"/></g><g clip-path="url(#b62f40d825)"><path fill="#000000" d="M 371.648438 268.773438 C 353.867188 261.335938 335.726562 256.835938 316.8125 253.246094 C 307.054688 251.398438 297.261719 249.75 287.480469 248.015625 C 277.003906 246.152344 266.722656 243.546875 256.300781 241.515625 C 255.410156 241.34375 255.332031 244.558594 256.382812 244.835938 C 274.714844 249.640625 294.050781 251.75 312.699219 255.109375 C 332.453125 258.660156 352.5625 262.695312 371.621094 269.082031 C 371.726562 269.113281 371.734375 268.808594 371.648438 268.773438 " fill-opacity="1" fill-rule="nonzero"/></g><path fill="#000000" d="M 364.429688 232.226562 C 344.914062 228.292969 325.605469 227.570312 305.726562 227.851562 C 296.164062 227.992188 286.609375 228.300781 277.046875 228.515625 C 266.773438 228.753906 256.539062 228.210938 246.285156 228.292969 C 245.273438 228.300781 245.320312 231.542969 246.367188 231.609375 C 266.003906 232.757812 286.125 230.863281 305.796875 230.488281 C 325.234375 230.113281 345.113281 230.167969 364.4375 232.542969 L 364.429688 232.226562 " fill-opacity="1" fill-rule="nonzero"/><path fill="#f4e5e0" d="M 97.132812 159.71875 C 102.644531 169.777344 114.777344 176.972656 125.476562 180.214844 C 134.820312 183.046875 153.335938 184.417969 158.105469 173.5625 C 158.332031 173.0625 157.832031 172.140625 157.316406 172.015625 C 151.898438 170.785156 146.640625 172.894531 141.152344 173.351562 C 135.875 173.796875 130.796875 173.621094 125.578125 172.746094 C 119.839844 171.773438 114.378906 169.558594 109.289062 166.792969 C 104.742188 164.328125 101.835938 160.066406 97.542969 157.34375 C 96.203125 156.496094 96.929688 159.351562 97.132812 159.71875 " fill-opacity="1" fill-rule="nonzero"/><path fill="#000000" d="M 275.210938 161.875 C 269.367188 171.742188 257.007812 178.53125 246.214844 181.421875 C 236.78125 183.941406 218.222656 184.699219 213.8125 173.695312 C 213.609375 173.1875 214.140625 172.285156 214.664062 172.179688 C 220.109375 171.121094 225.292969 173.410156 230.761719 174.050781 C 236.023438 174.667969 241.113281 174.660156 246.355469 173.953125 C 252.121094 173.167969 257.660156 171.136719 262.828125 168.550781 C 267.449219 166.230469 270.5 162.0625 274.878906 159.492188 C 276.253906 158.679688 275.425781 161.515625 275.210938 161.875 " fill-opacity="1" fill-rule="nonzero"/><path fill="#000000" d="M 284.515625 164.621094 L 281.546875 164.621094 C 281.546875 175.101562 277.308594 184.5625 270.441406 191.433594 C 263.574219 198.296875 254.113281 202.535156 243.644531 202.535156 C 233.164062 202.535156 223.707031 198.296875 216.839844 191.433594 C 209.972656 184.5625 205.742188 175.101562 205.734375 164.621094 C 205.742188 154.140625 209.972656 144.683594 216.839844 137.8125 C 223.707031 130.949219 233.164062 126.714844 243.644531 126.710938 C 253.210938 126.703125 262.738281 130.582031 269.816406 137.269531 C 276.898438 143.964844 281.535156 153.363281 281.546875 164.621094 L 287.480469 164.621094 C 287.492188 151.6875 282.066406 140.644531 273.894531 132.949219 C 265.714844 125.242188 254.8125 120.777344 243.644531 120.773438 C 219.425781 120.773438 199.800781 140.402344 199.800781 164.621094 C 199.800781 188.84375 219.425781 208.472656 243.644531 208.476562 C 267.855469 208.472656 287.480469 188.84375 287.480469 164.621094 L 284.515625 164.621094 " fill-opacity="1" fill-rule="nonzero"/><path fill="#000000" d="M 298.710938 157.199219 C 300.152344 157.804688 301.386719 158.832031 302.253906 160.121094 C 303.125 161.40625 303.628906 162.945312 303.632812 164.621094 C 303.628906 166.851562 302.734375 168.851562 301.273438 170.316406 C 299.808594 171.777344 297.8125 172.675781 295.578125 172.675781 C 293.34375 172.675781 291.347656 171.777344 289.886719 170.316406 C 288.425781 168.855469 287.53125 166.851562 287.53125 164.621094 C 287.53125 162.386719 288.425781 160.390625 289.886719 158.925781 C 291.347656 157.46875 293.34375 156.566406 295.578125 156.566406 C 296.699219 156.566406 297.75 156.792969 298.71875 157.199219 L 300.632812 152.65625 C 299.082031 152 297.371094 151.632812 295.578125 151.632812 C 288.402344 151.632812 282.597656 157.449219 282.597656 164.621094 C 282.597656 171.792969 288.402344 177.605469 295.578125 177.609375 C 302.753906 177.609375 308.5625 171.792969 308.5625 164.621094 C 308.5625 161.941406 307.742188 159.429688 306.34375 157.359375 C 304.941406 155.285156 302.96875 153.644531 300.632812 152.65625 L 298.710938 157.199219 " fill-opacity="1" fill-rule="nonzero"/><path fill="#000000" d="M 350.421875 285.308594 C 347.792969 274.636719 338.9375 267.234375 327.808594 266.867188 C 320.429688 266.628906 312.59375 269.292969 307.785156 275.105469 C 304.097656 279.671875 305.984375 281.839844 310.910156 281.324219 C 317.53125 280.632812 321.207031 274.945312 329.109375 279.738281 C 339.949219 286.308594 331.378906 297.824219 323.558594 301.226562 C 315.910156 304.542969 305.582031 304.957031 297.464844 303.308594 C 284.972656 300.769531 275.339844 296.464844 266.296875 287.175781 C 257.414062 278.046875 252.898438 266.988281 245.875 256.605469 C 233.40625 238.195312 204.601562 212.738281 184.710938 236.695312 C 164.824219 212.738281 136.023438 238.195312 123.550781 256.605469 C 116.523438 266.988281 112.015625 278.046875 103.128906 287.175781 C 94.085938 296.464844 84.449219 300.769531 71.960938 303.308594 C 63.84375 304.957031 53.511719 304.542969 45.867188 301.226562 C 38.046875 297.824219 29.476562 286.308594 40.320312 279.738281 C 48.222656 274.945312 51.890625 280.632812 58.511719 281.324219 C 63.441406 281.839844 65.335938 279.671875 61.640625 275.105469 C 56.832031 269.292969 48.996094 266.628906 41.617188 266.867188 C 30.488281 267.234375 21.632812 274.636719 19.007812 285.308594 C 14.128906 305.148438 30.214844 321.84375 47.226562 328.8125 C 78.988281 341.808594 122.808594 330.289062 150.300781 312.886719 C 161.179688 306.007812 175.570312 295.59375 184.710938 283.0625 C 193.855469 295.59375 208.246094 306.007812 219.121094 312.886719 C 246.617188 330.289062 290.4375 341.808594 322.195312 328.8125 C 339.207031 321.84375 355.300781 305.148438 350.421875 285.308594 " fill-opacity="1" fill-rule="nonzero"/><path fill="#f4e5e0" d="M 350.421875 285.308594 L 350.953125 285.175781 C 348.273438 274.285156 339.195312 266.6875 327.828125 266.320312 C 327.515625 266.3125 327.203125 266.304688 326.898438 266.304688 C 319.65625 266.304688 312.105469 269.027344 307.363281 274.75 L 307.359375 274.757812 C 306 276.453125 305.3125 277.859375 305.304688 279.089844 C 305.304688 279.554688 305.410156 279.988281 305.628906 280.367188 C 305.953125 280.933594 306.503906 281.335938 307.175781 281.578125 C 307.84375 281.832031 308.648438 281.945312 309.566406 281.945312 C 310.007812 281.945312 310.472656 281.917969 310.964844 281.867188 C 313.417969 281.613281 315.449219 280.707031 317.371094 279.902344 C 319.292969 279.089844 321.089844 278.378906 323.101562 278.382812 C 324.757812 278.382812 326.585938 278.851562 328.828125 280.207031 C 330.601562 281.285156 331.8125 282.484375 332.582031 283.730469 C 333.34375 284.976562 333.679688 286.277344 333.679688 287.617188 C 333.683594 290.214844 332.378906 292.953125 330.414062 295.316406 C 328.445312 297.675781 325.835938 299.640625 323.34375 300.722656 C 318.628906 302.769531 312.828125 303.703125 307.179688 303.703125 C 303.835938 303.703125 300.550781 303.375 297.570312 302.769531 C 285.140625 300.242188 275.65625 295.992188 266.6875 286.792969 C 257.890625 277.765625 253.390625 266.75 246.328125 256.296875 C 241.871094 249.722656 235.367188 242.273438 227.902344 236.449219 C 220.445312 230.625 212.019531 226.402344 203.695312 226.394531 C 196.871094 226.390625 190.152344 229.277344 184.292969 236.34375 L 184.710938 236.695312 L 185.136719 236.34375 C 179.277344 229.277344 172.554688 226.390625 165.726562 226.394531 C 157.402344 226.398438 148.980469 230.625 141.519531 236.441406 C 134.058594 242.273438 127.554688 249.722656 123.097656 256.296875 C 116.035156 266.75 111.535156 277.765625 102.734375 286.792969 C 93.769531 295.992188 84.28125 300.242188 71.851562 302.769531 C 68.875 303.375 65.585938 303.703125 62.246094 303.703125 C 56.59375 303.703125 50.792969 302.769531 46.089844 300.722656 C 43.589844 299.640625 40.980469 297.675781 39.015625 295.316406 C 37.046875 292.957031 35.746094 290.214844 35.746094 287.617188 C 35.75 286.277344 36.078125 284.976562 36.847656 283.726562 C 37.613281 282.476562 38.824219 281.285156 40.601562 280.210938 C 42.839844 278.851562 44.671875 278.382812 46.324219 278.382812 C 48.335938 278.382812 50.132812 279.089844 52.050781 279.902344 C 53.96875 280.707031 56.003906 281.613281 58.457031 281.867188 C 58.949219 281.917969 59.417969 281.945312 59.855469 281.945312 C 61.082031 281.945312 62.105469 281.746094 62.875 281.285156 C 63.261719 281.050781 63.578125 280.742188 63.792969 280.367188 C 64.011719 279.992188 64.117188 279.554688 64.117188 279.089844 C 64.109375 277.859375 63.429688 276.453125 62.0625 274.757812 L 62.058594 274.75 C 57.316406 269.027344 49.765625 266.304688 42.53125 266.300781 C 42.21875 266.300781 41.90625 266.304688 41.59375 266.320312 C 30.234375 266.6875 21.148438 274.285156 18.476562 285.175781 C 17.863281 287.671875 17.574219 290.125 17.574219 292.515625 C 17.574219 300.980469 21.191406 308.65625 26.671875 314.960938 C 32.152344 321.269531 39.492188 326.230469 47.019531 329.316406 C 56.597656 333.234375 67.246094 334.9375 78.199219 334.9375 C 103.871094 334.933594 131.230469 325.597656 150.59375 313.347656 C 161.496094 306.445312 175.933594 296.015625 185.152344 283.382812 L 184.710938 283.0625 L 184.273438 283.382812 C 193.492188 296.015625 207.925781 306.445312 218.828125 313.347656 C 238.191406 325.597656 265.554688 334.933594 291.222656 334.9375 C 302.175781 334.9375 312.824219 333.234375 322.402344 329.316406 C 329.933594 326.230469 337.273438 321.269531 342.753906 314.960938 C 348.234375 308.65625 351.851562 300.980469 351.851562 292.507812 C 351.851562 290.117188 351.5625 287.671875 350.953125 285.175781 L 350.421875 285.308594 L 349.890625 285.4375 C 350.484375 287.847656 350.757812 290.210938 350.757812 292.507812 C 350.757812 300.660156 347.28125 308.085938 341.925781 314.242188 C 336.582031 320.40625 329.367188 325.28125 321.992188 328.304688 C 312.574219 332.15625 302.066406 333.84375 291.222656 333.84375 C 265.816406 333.851562 238.59375 324.570312 219.414062 312.421875 C 208.5625 305.558594 194.222656 295.171875 185.152344 282.742188 L 184.710938 282.136719 L 184.273438 282.742188 C 175.207031 295.171875 160.859375 305.558594 150.011719 312.421875 C 130.832031 324.570312 103.605469 333.851562 78.199219 333.84375 C 67.359375 333.84375 56.851562 332.15625 47.4375 328.304688 C 40.054688 325.28125 32.84375 320.402344 27.496094 314.242188 C 22.144531 308.085938 18.667969 300.660156 18.667969 292.515625 C 18.667969 290.214844 18.949219 287.851562 19.539062 285.4375 C 22.113281 274.992188 30.746094 267.78125 41.636719 267.414062 C 41.929688 267.398438 42.226562 267.394531 42.53125 267.394531 C 49.503906 267.394531 56.742188 270.039062 61.21875 275.453125 L 61.640625 275.105469 L 61.214844 275.449219 C 62.511719 277.039062 63.035156 278.304688 63.027344 279.089844 C 63.027344 279.390625 62.960938 279.621094 62.851562 279.820312 C 62.679688 280.121094 62.371094 280.367188 61.871094 280.558594 C 61.367188 280.746094 60.6875 280.851562 59.855469 280.851562 C 59.457031 280.851562 59.027344 280.828125 58.570312 280.785156 C 56.328125 280.546875 54.40625 279.707031 52.476562 278.894531 C 50.546875 278.082031 48.597656 277.289062 46.324219 277.289062 C 44.453125 277.289062 42.398438 277.835938 40.035156 279.269531 C 38.136719 280.421875 36.789062 281.734375 35.914062 283.15625 C 35.039062 284.574219 34.652344 286.09375 34.65625 287.617188 C 34.65625 290.585938 36.101562 293.523438 38.175781 296.015625 C 40.253906 298.503906 42.976562 300.5625 45.652344 301.726562 C 50.546875 303.851562 56.476562 304.796875 62.246094 304.796875 C 65.65625 304.796875 69.011719 304.464844 72.070312 303.847656 C 84.621094 301.296875 94.402344 296.929688 103.515625 287.558594 C 112.492188 278.324219 117.011719 267.226562 124.003906 256.90625 C 128.394531 250.421875 134.839844 243.042969 142.191406 237.304688 C 149.542969 231.5625 157.78125 227.484375 165.726562 227.488281 C 172.238281 227.496094 178.585938 230.183594 184.292969 237.042969 L 184.710938 237.550781 L 185.136719 237.042969 C 190.835938 230.183594 197.183594 227.496094 203.695312 227.488281 C 211.640625 227.484375 219.886719 231.5625 227.230469 237.304688 C 234.582031 243.042969 241.03125 250.429688 245.421875 256.90625 C 252.410156 267.226562 256.929688 278.324219 265.90625 287.558594 C 275.023438 296.929688 284.804688 301.296875 297.351562 303.847656 C 300.410156 304.464844 303.769531 304.796875 307.179688 304.796875 C 312.949219 304.796875 318.875 303.851562 323.777344 301.726562 C 326.449219 300.5625 329.171875 298.503906 331.246094 296.011719 C 333.320312 293.523438 334.765625 290.578125 334.773438 287.617188 C 334.773438 286.09375 334.382812 284.574219 333.511719 283.15625 C 332.636719 281.734375 331.289062 280.421875 329.390625 279.269531 C 327.023438 277.832031 324.96875 277.285156 323.101562 277.289062 C 320.824219 277.289062 318.875 278.082031 316.945312 278.894531 C 315.011719 279.707031 313.097656 280.546875 310.851562 280.785156 C 310.394531 280.828125 309.964844 280.851562 309.566406 280.851562 C 308.457031 280.851562 307.617188 280.65625 307.113281 280.34375 C 306.863281 280.191406 306.691406 280.019531 306.578125 279.820312 C 306.460938 279.621094 306.398438 279.390625 306.398438 279.089844 C 306.386719 278.304688 306.910156 277.039062 308.207031 275.449219 L 307.785156 275.105469 L 308.203125 275.453125 C 312.679688 270.035156 319.921875 267.394531 326.898438 267.398438 C 327.195312 267.398438 327.492188 267.402344 327.792969 267.414062 C 338.679688 267.78125 347.308594 274.992188 349.890625 285.4375 L 350.421875 285.308594 " fill-opacity="1" fill-rule="nonzero"/><path fill="#000000" d="M 288.710938 179.257812 C 286.703125 179.257812 285.023438 177.683594 284.882812 175.683594 L 284.84375 175.226562 C 284.75 174.207031 285.054688 173.210938 285.710938 172.414062 C 286.367188 171.625 287.289062 171.136719 288.308594 171.035156 C 288.441406 171.023438 288.566406 171.019531 288.695312 171.019531 C 290.675781 171.019531 292.3125 172.515625 292.5 174.496094 L 292.550781 175.136719 C 292.621094 176.164062 292.292969 177.15625 291.625 177.933594 C 290.945312 178.710938 290.011719 179.175781 288.984375 179.246094 L 288.710938 179.257812 " fill-opacity="1" fill-rule="nonzero"/><path fill="#f4e5e0" d="M 288.695312 170.472656 C 288.546875 170.472656 288.402344 170.480469 288.253906 170.496094 C 287.09375 170.601562 286.035156 171.164062 285.285156 172.066406 C 284.539062 172.976562 284.1875 174.113281 284.300781 175.285156 L 284.34375 175.734375 C 284.5 178.007812 286.421875 179.804688 288.710938 179.804688 C 288.832031 179.804688 288.945312 179.796875 289.070312 179.785156 C 290.191406 179.707031 291.261719 179.175781 292.03125 178.289062 C 292.804688 177.402344 293.179688 176.269531 293.09375 175.097656 L 293.042969 174.464844 C 292.824219 172.179688 290.960938 170.472656 288.695312 170.472656 Z M 288.695312 171.566406 C 290.378906 171.566406 291.792969 172.847656 291.953125 174.546875 L 292.003906 175.175781 C 292.136719 176.996094 290.765625 178.574219 288.949219 178.699219 L 288.710938 178.710938 C 287 178.710938 285.550781 177.378906 285.425781 175.640625 L 285.390625 175.175781 C 285.21875 173.367188 286.546875 171.75 288.363281 171.582031 C 288.472656 171.570312 288.585938 171.566406 288.695312 171.566406 " fill-opacity="1" fill-rule="nonzero"/><path fill="#000000" d="M 287.921875 189.261719 C 287.691406 189.261719 287.46875 189.238281 287.234375 189.195312 C 285.136719 188.816406 283.75 186.804688 284.128906 184.71875 L 284.308594 183.6875 C 284.617188 181.824219 286.210938 180.46875 288.109375 180.46875 C 288.308594 180.46875 288.515625 180.484375 288.71875 180.515625 C 289.734375 180.683594 290.625 181.234375 291.226562 182.066406 C 291.828125 182.902344 292.066406 183.917969 291.894531 184.9375 L 291.695312 186.097656 C 291.363281 187.933594 289.777344 189.261719 287.921875 189.261719 Z M 285.765625 199.074219 C 285.472656 199.074219 285.183594 199.046875 284.910156 198.980469 C 282.847656 198.507812 281.550781 196.449219 282.015625 194.382812 L 282.265625 193.285156 C 282.671875 191.523438 284.207031 190.292969 286 190.292969 C 286.292969 190.292969 286.585938 190.332031 286.871094 190.398438 C 287.871094 190.625 288.722656 191.230469 289.265625 192.101562 C 289.8125 192.972656 289.984375 194.003906 289.757812 195.003906 L 289.511719 196.078125 C 289.121094 197.8125 287.546875 199.074219 285.765625 199.074219 Z M 283.910156 208.953125 C 283.71875 208.953125 283.519531 208.941406 283.320312 208.90625 C 281.234375 208.589844 279.789062 206.628906 280.101562 204.53125 L 280.277344 203.402344 C 280.574219 201.523438 282.164062 200.160156 284.058594 200.160156 C 284.261719 200.160156 284.464844 200.175781 284.671875 200.207031 C 285.6875 200.367188 286.578125 200.914062 287.183594 201.746094 C 287.785156 202.578125 288.03125 203.589844 287.871094 204.605469 L 287.703125 205.683594 C 287.421875 207.546875 285.792969 208.953125 283.910156 208.953125 Z M 278.894531 215.332031 L 279.035156 213.648438 C 279.207031 211.675781 280.878906 210.136719 282.835938 210.136719 C 282.960938 210.136719 283.078125 210.140625 283.203125 210.148438 C 285.308594 210.335938 286.871094 212.207031 286.691406 214.3125 L 286.566406 215.859375 Z M 282.265625 228.976562 C 280.140625 228.953125 278.433594 227.207031 278.460938 225.085938 L 278.484375 223.929688 C 278.527344 221.820312 280.214844 220.207031 282.390625 220.171875 C 284.53125 220.226562 286.210938 221.988281 286.167969 224.105469 L 286.144531 225.183594 C 286.121094 227.269531 284.394531 228.976562 282.304688 228.976562 Z M 282.480469 239.027344 C 280.429688 239.027344 278.746094 237.429688 278.640625 235.382812 L 278.585938 234.222656 C 278.5 232.105469 280.152344 230.3125 282.273438 230.226562 L 282.398438 230.226562 C 284.488281 230.226562 286.191406 231.84375 286.277344 233.914062 L 286.320312 234.988281 C 286.371094 236.015625 286.023438 236.996094 285.335938 237.757812 C 284.648438 238.523438 283.703125 238.96875 282.679688 239.023438 Z M 283.308594 249.046875 C 281.316406 249.046875 279.632812 247.488281 279.484375 245.492188 L 279.363281 244.503906 C 279.253906 243.476562 279.550781 242.476562 280.195312 241.675781 C 280.839844 240.875 281.757812 240.378906 282.773438 240.269531 C 282.914062 240.253906 283.054688 240.242188 283.191406 240.242188 C 285.125 240.242188 286.800781 241.757812 287.007812 243.683594 L 287.148438 244.898438 C 287.222656 245.925781 286.902344 246.921875 286.230469 247.699219 C 285.5625 248.480469 284.632812 248.953125 283.605469 249.03125 C 283.515625 249.039062 283.410156 249.046875 283.308594 249.046875 Z M 342.230469 252.324219 C 340.574219 252.324219 339.109375 251.273438 338.585938 249.699219 L 338.226562 248.613281 C 337.574219 246.582031 338.6875 244.414062 340.703125 243.761719 C 341.085938 243.640625 341.488281 243.582031 341.886719 243.582031 C 343.558594 243.582031 345.027344 244.648438 345.542969 246.238281 L 345.878906 247.265625 C 346.550781 249.28125 345.457031 251.460938 343.445312 252.132812 C 343.050781 252.261719 342.644531 252.324219 342.230469 252.324219 Z M 284.519531 259.023438 C 282.582031 259.023438 280.941406 257.570312 280.707031 255.648438 L 280.570312 254.558594 C 280.304688 252.457031 281.792969 250.527344 283.894531 250.257812 C 284.058594 250.238281 284.214844 250.230469 284.367188 250.230469 C 286.300781 250.230469 287.945312 251.671875 288.195312 253.582031 L 288.335938 254.714844 C 288.457031 255.738281 288.175781 256.75 287.546875 257.558594 C 286.914062 258.363281 286 258.878906 284.984375 258.996094 C 284.828125 259.019531 284.675781 259.023438 284.519531 259.023438 Z M 345.578125 261.804688 C 343.964844 261.804688 342.511719 260.785156 341.960938 259.261719 L 341.585938 258.214844 C 340.871094 256.222656 341.90625 254.011719 343.902344 253.292969 C 344.316406 253.144531 344.753906 253.066406 345.199219 253.066406 C 346.816406 253.066406 348.269531 254.089844 348.820312 255.605469 L 349.199219 256.664062 C 349.542969 257.628906 349.496094 258.675781 349.054688 259.605469 C 348.613281 260.53125 347.839844 261.238281 346.875 261.578125 C 346.457031 261.730469 346.019531 261.804688 345.578125 261.804688 Z M 285.878906 268.984375 C 283.988281 268.984375 282.355469 267.570312 282.078125 265.695312 L 281.921875 264.589844 C 281.613281 262.492188 283.074219 260.535156 285.167969 260.230469 C 285.359375 260.207031 285.539062 260.1875 285.71875 260.1875 C 287.621094 260.1875 289.257812 261.605469 289.527344 263.480469 L 289.6875 264.585938 C 289.839844 265.597656 289.582031 266.609375 288.96875 267.4375 C 288.359375 268.261719 287.460938 268.796875 286.4375 268.945312 C 286.261719 268.972656 286.066406 268.984375 285.878906 268.984375 Z M 348.800781 271.328125 C 347.105469 271.328125 345.589844 270.191406 345.117188 268.566406 L 344.804688 267.554688 C 344.503906 266.582031 344.59375 265.539062 345.066406 264.628906 C 345.546875 263.71875 346.347656 263.046875 347.324219 262.742188 C 347.699219 262.625 348.089844 262.558594 348.484375 262.558594 C 350.167969 262.558594 351.640625 263.648438 352.144531 265.261719 L 352.488281 266.386719 C 352.777344 267.378906 352.664062 268.417969 352.171875 269.320312 C 351.6875 270.21875 350.871094 270.878906 349.886719 271.167969 C 349.515625 271.273438 349.15625 271.328125 348.800781 271.328125 Z M 287.484375 278.910156 C 285.617188 278.910156 284.027344 277.570312 283.699219 275.730469 L 283.507812 274.625 C 283.144531 272.542969 284.546875 270.542969 286.628906 270.175781 C 286.859375 270.132812 287.085938 270.117188 287.304688 270.117188 C 289.171875 270.117188 290.757812 271.453125 291.082031 273.300781 L 291.273438 274.394531 C 291.640625 276.476562 290.246094 278.480469 288.15625 278.851562 C 287.933594 278.890625 287.707031 278.910156 287.484375 278.910156 Z M 350.941406 281.132812 C 349.011719 281.132812 347.371094 279.6875 347.132812 277.769531 L 346.988281 276.726562 C 346.839844 275.714844 347.09375 274.707031 347.710938 273.878906 C 348.320312 273.058594 349.21875 272.519531 350.234375 272.375 C 350.425781 272.34375 350.613281 272.328125 350.800781 272.328125 C 352.691406 272.328125 354.324219 273.742188 354.59375 275.625 L 354.757812 276.796875 C 354.886719 277.820312 354.613281 278.832031 353.980469 279.644531 C 353.351562 280.453125 352.445312 280.96875 351.429688 281.09375 C 351.265625 281.117188 351.101562 281.132812 350.941406 281.132812 Z M 289.410156 288.769531 C 287.605469 288.769531 286.027344 287.488281 285.652344 285.722656 L 285.421875 284.636719 C 284.984375 282.558594 286.308594 280.511719 288.378906 280.074219 C 288.648438 280.019531 288.921875 279.988281 289.195312 279.988281 C 290.992188 279.988281 292.5625 281.265625 292.9375 283.03125 L 293.175781 284.128906 C 293.613281 286.203125 292.28125 288.25 290.210938 288.6875 C 289.933594 288.742188 289.667969 288.769531 289.410156 288.769531 Z M 351.113281 291.164062 C 350.988281 291.164062 350.863281 291.152344 350.746094 291.140625 C 349.734375 291.050781 348.808594 290.5625 348.152344 289.777344 C 347.492188 288.984375 347.1875 287.988281 347.28125 286.964844 L 347.367188 285.925781 C 347.503906 283.890625 349.136719 282.355469 351.160156 282.355469 L 351.46875 282.367188 C 353.574219 282.511719 355.175781 284.347656 355.03125 286.46875 C 355.03125 286.46875 354.964844 287.347656 354.9375 287.664062 C 354.753906 289.660156 353.109375 291.164062 351.113281 291.164062 Z M 291.734375 298.546875 C 289.992188 298.546875 288.464844 297.367188 288.023438 295.675781 L 287.734375 294.578125 C 287.214844 292.519531 288.457031 290.421875 290.507812 289.898438 C 290.820312 289.816406 291.144531 289.769531 291.472656 289.769531 C 293.21875 289.769531 294.746094 290.964844 295.183594 292.667969 L 295.457031 293.726562 C 295.71875 294.714844 295.578125 295.75 295.058594 296.636719 C 294.542969 297.523438 293.707031 298.15625 292.714844 298.414062 C 292.40625 298.5 292.070312 298.546875 291.734375 298.546875 Z M 349.496094 301.082031 C 349.273438 301.082031 349.042969 301.058594 348.816406 301.019531 C 347.8125 300.839844 346.933594 300.28125 346.339844 299.441406 C 345.75 298.601562 345.523438 297.578125 345.703125 296.566406 L 345.902344 295.445312 C 346.234375 293.613281 347.820312 292.285156 349.671875 292.285156 C 349.902344 292.285156 350.136719 292.304688 350.371094 292.347656 C 351.378906 292.53125 352.257812 293.097656 352.84375 293.9375 C 353.429688 294.78125 353.652344 295.804688 353.464844 296.816406 L 353.269531 297.898438 C 352.949219 299.738281 351.359375 301.082031 349.496094 301.082031 Z M 294.566406 308.195312 C 292.90625 308.195312 291.445312 307.136719 290.917969 305.5625 L 290.566406 304.488281 C 290.242188 303.511719 290.320312 302.472656 290.78125 301.554688 C 291.246094 300.636719 292.035156 299.957031 293.011719 299.636719 C 293.402344 299.507812 293.804688 299.445312 294.207031 299.445312 C 295.875 299.445312 297.34375 300.507812 297.863281 302.085938 L 298.214844 303.132812 C 298.882812 305.144531 297.789062 307.324219 295.78125 307.996094 C 295.398438 308.125 294.984375 308.195312 294.566406 308.195312 Z M 347.539062 310.941406 C 347.246094 310.941406 346.9375 310.898438 346.625 310.828125 C 344.570312 310.328125 343.300781 308.242188 343.800781 306.1875 L 344.042969 305.15625 C 344.4375 303.394531 345.984375 302.160156 347.792969 302.160156 C 348.074219 302.160156 348.355469 302.191406 348.636719 302.257812 C 350.699219 302.722656 352.007812 304.78125 351.546875 306.851562 L 351.273438 308 C 350.855469 309.734375 349.316406 310.941406 347.539062 310.941406 Z M 298.4375 317.464844 C 296.992188 317.464844 295.679688 316.671875 295.023438 315.390625 C 294.839844 315.039062 294.660156 314.683594 294.484375 314.324219 C 294.027344 313.402344 293.960938 312.359375 294.289062 311.386719 C 294.621094 310.410156 295.304688 309.628906 296.226562 309.175781 C 296.765625 308.910156 297.335938 308.777344 297.929688 308.777344 C 299.402344 308.777344 300.722656 309.597656 301.375 310.917969 L 301.847656 311.851562 C 302.316406 312.761719 302.40625 313.800781 302.101562 314.78125 C 301.789062 315.757812 301.117188 316.558594 300.207031 317.03125 C 299.664062 317.316406 299.050781 317.464844 298.4375 317.464844 Z M 344.34375 320.453125 C 343.78125 320.453125 343.238281 320.332031 342.722656 320.09375 C 340.796875 319.199219 339.960938 316.90625 340.855469 314.980469 C 340.992188 314.6875 341.132812 314.386719 341.257812 314.085938 C 341.863281 312.664062 343.253906 311.746094 344.800781 311.746094 C 345.320312 311.746094 345.820312 311.84375 346.300781 312.046875 C 347.246094 312.445312 347.976562 313.191406 348.359375 314.144531 C 348.75 315.097656 348.738281 316.140625 348.339844 317.089844 C 348.171875 317.472656 348.003906 317.847656 347.832031 318.226562 C 347.199219 319.582031 345.832031 320.453125 344.34375 320.453125 Z M 304.082031 325.75 C 303 325.75 301.960938 325.289062 301.234375 324.484375 C 300.957031 324.175781 300.683594 323.863281 300.410156 323.550781 C 299.746094 322.765625 299.429688 321.773438 299.511719 320.75 C 299.597656 319.726562 300.070312 318.792969 300.859375 318.128906 C 301.554688 317.542969 302.433594 317.21875 303.347656 317.21875 C 304.476562 317.21875 305.542969 317.714844 306.273438 318.574219 C 306.488281 318.824219 306.707031 319.074219 306.929688 319.316406 C 308.351562 320.882812 308.234375 323.320312 306.667969 324.75 C 305.953125 325.394531 305.035156 325.75 304.082031 325.75 Z M 338.824219 328.800781 C 337.84375 328.800781 336.914062 328.433594 336.199219 327.761719 C 335.449219 327.0625 335.015625 326.113281 334.984375 325.082031 C 334.949219 324.058594 335.3125 323.078125 336.019531 322.328125 C 336.226562 322.101562 336.4375 321.871094 336.640625 321.632812 C 337.375 320.773438 338.445312 320.28125 339.574219 320.28125 C 340.488281 320.28125 341.367188 320.601562 342.054688 321.191406 C 343.671875 322.570312 343.871094 325.003906 342.492188 326.609375 C 342.214844 326.945312 341.921875 327.265625 341.628906 327.582031 C 340.886719 328.367188 339.894531 328.800781 338.824219 328.800781 Z M 312.046875 331.761719 C 311.472656 331.761719 310.902344 331.636719 310.390625 331.386719 C 309.996094 331.203125 309.613281 331.003906 309.234375 330.800781 C 308.320312 330.308594 307.667969 329.492188 307.371094 328.507812 C 307.078125 327.523438 307.1875 326.488281 307.675781 325.585938 C 308.34375 324.34375 309.640625 323.570312 311.058594 323.570312 C 311.691406 323.570312 312.320312 323.726562 312.878906 324.03125 C 313.144531 324.171875 313.421875 324.320312 313.703125 324.445312 C 314.632812 324.894531 315.332031 325.671875 315.675781 326.644531 C 316.015625 327.609375 315.960938 328.652344 315.519531 329.574219 C 314.878906 330.910156 313.515625 331.761719 312.046875 331.761719 Z M 330.476562 334.179688 C 328.773438 334.179688 327.296875 333.078125 326.804688 331.441406 C 326.503906 330.457031 326.609375 329.417969 327.097656 328.511719 C 327.578125 327.609375 328.386719 326.945312 329.375 326.652344 C 329.65625 326.566406 329.9375 326.472656 330.214844 326.371094 C 330.644531 326.214844 331.089844 326.136719 331.546875 326.136719 C 333.144531 326.136719 334.59375 327.144531 335.148438 328.648438 C 335.878906 330.636719 334.859375 332.851562 332.875 333.585938 C 332.445312 333.742188 332.019531 333.882812 331.589844 334.015625 C 331.230469 334.125 330.855469 334.179688 330.476562 334.179688 Z M 321.640625 334.664062 C 321.453125 334.664062 321.265625 334.648438 321.070312 334.621094 C 320.667969 334.5625 320.253906 334.496094 319.832031 334.414062 C 318.824219 334.230469 317.949219 333.660156 317.371094 332.816406 C 316.789062 331.96875 316.566406 330.945312 316.753906 329.9375 C 317.089844 328.109375 318.671875 326.789062 320.507812 326.789062 C 320.75 326.789062 320.992188 326.808594 321.238281 326.859375 C 321.558594 326.914062 321.878906 326.96875 322.203125 327.019531 C 323.210938 327.167969 324.109375 327.703125 324.71875 328.527344 C 325.335938 329.347656 325.585938 330.367188 325.4375 331.382812 C 325.164062 333.253906 323.53125 334.664062 321.640625 334.664062 " fill-opacity="1" fill-rule="nonzero"/><path fill="#f4e5e0" d="M 320.507812 326.242188 C 318.410156 326.242188 316.601562 327.753906 316.21875 329.835938 C 316.003906 330.988281 316.253906 332.160156 316.917969 333.125 C 317.578125 334.09375 318.582031 334.738281 319.734375 334.957031 C 320.160156 335.035156 320.582031 335.105469 320.996094 335.164062 C 321.199219 335.191406 321.417969 335.210938 321.640625 335.210938 C 323.796875 335.210938 325.664062 333.597656 325.980469 331.460938 C 326.148438 330.304688 325.859375 329.140625 325.160156 328.195312 C 324.457031 327.257812 323.4375 326.648438 322.28125 326.476562 C 321.964844 326.429688 321.648438 326.375 321.320312 326.316406 C 321.066406 326.269531 320.789062 326.242188 320.507812 326.242188 Z M 331.546875 325.585938 C 331.027344 325.585938 330.515625 325.679688 330.023438 325.859375 C 329.757812 325.957031 329.492188 326.046875 329.214844 326.128906 C 328.09375 326.464844 327.167969 327.222656 326.613281 328.253906 C 326.058594 329.289062 325.941406 330.480469 326.277344 331.597656 C 326.839844 333.46875 328.527344 334.726562 330.476562 334.726562 C 330.910156 334.726562 331.332031 334.664062 331.746094 334.542969 C 332.191406 334.40625 332.625 334.261719 333.050781 334.101562 C 335.328125 333.257812 336.492188 330.730469 335.660156 328.464844 C 335.027344 326.742188 333.375 325.585938 331.546875 325.585938 Z M 311.058594 323.023438 C 309.441406 323.023438 307.960938 323.90625 307.191406 325.328125 C 306.636719 326.355469 306.515625 327.542969 306.847656 328.667969 C 307.183594 329.792969 307.933594 330.71875 308.972656 331.277344 C 309.363281 331.488281 309.753906 331.691406 310.15625 331.878906 C 310.734375 332.160156 311.394531 332.308594 312.046875 332.308594 C 313.722656 332.308594 315.28125 331.328125 316.011719 329.816406 C 316.515625 328.757812 316.578125 327.566406 316.191406 326.457031 C 315.796875 325.351562 315.003906 324.464844 313.941406 323.953125 C 313.660156 323.828125 313.398438 323.6875 313.132812 323.546875 C 312.5 323.203125 311.78125 323.023438 311.058594 323.023438 Z M 339.574219 319.730469 C 338.28125 319.730469 337.0625 320.292969 336.222656 321.277344 C 336.027344 321.507812 335.824219 321.730469 335.621094 321.949219 C 334.816406 322.8125 334.398438 323.929688 334.433594 325.101562 C 334.472656 326.277344 334.96875 327.367188 335.824219 328.164062 C 336.636719 328.925781 337.703125 329.34375 338.824219 329.34375 C 340.046875 329.34375 341.183594 328.855469 342.027344 327.960938 C 342.328125 327.632812 342.628906 327.308594 342.917969 326.960938 C 344.480469 325.128906 344.253906 322.351562 342.410156 320.777344 C 341.621094 320.105469 340.613281 319.730469 339.574219 319.730469 Z M 303.347656 316.671875 C 302.308594 316.671875 301.300781 317.039062 300.507812 317.710938 C 299.605469 318.472656 299.066406 319.535156 298.964844 320.707031 C 298.871094 321.871094 299.238281 323.011719 299.996094 323.898438 C 300.269531 324.226562 300.546875 324.535156 300.832031 324.847656 C 301.65625 325.769531 302.847656 326.292969 304.082031 326.292969 C 305.171875 326.292969 306.21875 325.886719 307.027344 325.15625 C 308.828125 323.519531 308.960938 320.738281 307.335938 318.949219 C 307.113281 318.707031 306.898438 318.464844 306.6875 318.214844 C 305.855469 317.238281 304.640625 316.671875 303.347656 316.671875 Z M 344.800781 311.195312 C 343.039062 311.195312 341.449219 312.242188 340.757812 313.867188 C 340.632812 314.167969 340.496094 314.460938 340.359375 314.753906 C 339.34375 316.949219 340.296875 319.566406 342.488281 320.585938 C 343.078125 320.859375 343.703125 321 344.34375 321 C 346.042969 321 347.605469 320 348.324219 318.460938 C 348.503906 318.074219 348.671875 317.691406 348.835938 317.308594 C 349.300781 316.222656 349.308594 315.03125 348.871094 313.9375 C 348.433594 312.851562 347.59375 312.003906 346.515625 311.546875 C 345.972656 311.316406 345.394531 311.195312 344.800781 311.195312 Z M 297.929688 308.230469 C 297.253906 308.230469 296.597656 308.382812 295.984375 308.6875 C 294.9375 309.199219 294.148438 310.101562 293.769531 311.210938 C 293.394531 312.324219 293.472656 313.511719 293.992188 314.570312 C 294.171875 314.929688 294.351562 315.292969 294.539062 315.648438 C 295.292969 317.097656 296.785156 318.011719 298.4375 318.011719 C 299.140625 318.011719 299.835938 317.835938 300.457031 317.515625 C 301.5 316.976562 302.269531 316.058594 302.621094 314.945312 C 302.972656 313.824219 302.867188 312.636719 302.332031 311.597656 L 301.855469 310.664062 C 301.121094 309.164062 299.617188 308.230469 297.929688 308.230469 Z M 347.792969 301.617188 C 345.722656 301.617188 343.964844 303.027344 343.507812 305.042969 L 343.269531 306.066406 C 342.699219 308.40625 344.148438 310.785156 346.496094 311.359375 C 346.847656 311.445312 347.199219 311.488281 347.539062 311.488281 C 349.570312 311.488281 351.324219 310.109375 351.804688 308.132812 L 352.074219 306.984375 C 352.601562 304.609375 351.113281 302.257812 348.757812 301.722656 C 348.4375 301.652344 348.113281 301.617188 347.792969 301.617188 Z M 294.207031 298.894531 C 293.746094 298.894531 293.285156 298.972656 292.84375 299.117188 C 291.726562 299.480469 290.820312 300.261719 290.292969 301.308594 C 289.761719 302.355469 289.675781 303.546875 290.046875 304.660156 L 290.398438 305.734375 C 291 307.527344 292.671875 308.738281 294.566406 308.738281 C 295.042969 308.738281 295.515625 308.664062 295.960938 308.507812 C 298.246094 307.75 299.492188 305.257812 298.730469 302.960938 L 298.382812 301.914062 C 297.789062 300.109375 296.113281 298.894531 294.207031 298.894531 Z M 349.667969 291.738281 C 347.550781 291.738281 345.746094 293.253906 345.367188 295.347656 L 345.167969 296.46875 C 344.964844 297.628906 345.222656 298.792969 345.894531 299.753906 C 346.566406 300.714844 347.574219 301.351562 348.730469 301.558594 C 348.964844 301.601562 349.226562 301.628906 349.496094 301.628906 C 351.632812 301.628906 353.449219 300.097656 353.8125 297.992188 L 354.003906 296.910156 C 354.214844 295.757812 353.960938 294.59375 353.292969 293.628906 C 352.625 292.664062 351.621094 292.019531 350.464844 291.808594 C 350.203125 291.765625 349.9375 291.738281 349.667969 291.738281 Z M 291.472656 289.230469 C 291.101562 289.230469 290.726562 289.273438 290.367188 289.367188 C 288.027344 289.964844 286.609375 292.363281 287.207031 294.710938 L 287.492188 295.8125 C 288 297.742188 289.746094 299.089844 291.734375 299.089844 C 292.121094 299.089844 292.5 299.039062 292.859375 298.945312 C 293.992188 298.644531 294.941406 297.921875 295.53125 296.910156 C 296.121094 295.898438 296.28125 294.71875 295.984375 293.582031 L 295.71875 292.53125 C 295.210938 290.585938 293.46875 289.230469 291.472656 289.230469 Z M 351.160156 281.808594 C 348.84375 281.808594 346.976562 283.566406 346.820312 285.898438 L 346.8125 286.03125 L 346.734375 286.921875 C 346.625 288.082031 346.984375 289.21875 347.734375 290.125 C 348.484375 291.027344 349.539062 291.582031 350.707031 291.6875 C 350.824219 291.699219 350.972656 291.707031 351.113281 291.707031 C 353.394531 291.707031 355.273438 289.992188 355.480469 287.714844 C 355.511719 287.398438 355.535156 287.082031 355.558594 286.769531 L 355.578125 286.511719 C 355.742188 284.085938 353.914062 281.984375 351.5 281.820312 C 351.390625 281.8125 351.277344 281.808594 351.160156 281.808594 Z M 289.195312 279.441406 C 288.886719 279.441406 288.570312 279.472656 288.261719 279.542969 C 285.902344 280.039062 284.386719 282.378906 284.886719 284.75 L 285.117188 285.835938 C 285.542969 287.851562 287.347656 289.320312 289.410156 289.320312 C 289.691406 289.320312 289.980469 289.289062 290.296875 289.230469 C 292.691406 288.71875 294.207031 286.382812 293.710938 284.015625 L 293.472656 282.917969 C 293.046875 280.90625 291.25 279.441406 289.195312 279.441406 Z M 350.800781 271.789062 C 350.582031 271.789062 350.371094 271.800781 350.152344 271.832031 C 348.996094 272 347.972656 272.613281 347.273438 273.554688 C 346.570312 274.492188 346.277344 275.652344 346.445312 276.808594 L 346.589844 277.851562 C 346.859375 280.027344 348.734375 281.675781 350.941406 281.675781 C 351.125 281.675781 351.3125 281.664062 351.5 281.636719 C 352.65625 281.492188 353.691406 280.90625 354.414062 279.980469 C 355.132812 279.054688 355.449219 277.894531 355.300781 276.730469 C 355.257812 276.421875 355.21875 276.117188 355.171875 275.808594 L 355.136719 275.550781 C 354.824219 273.402344 352.964844 271.789062 350.800781 271.789062 Z M 287.304688 269.570312 C 287.046875 269.570312 286.785156 269.589844 286.527344 269.636719 C 284.152344 270.0625 282.554688 272.339844 282.96875 274.71875 L 283.164062 275.828125 C 283.535156 277.929688 285.355469 279.457031 287.484375 279.457031 C 287.761719 279.457031 288.015625 279.433594 288.261719 279.386719 C 290.640625 278.960938 292.234375 276.675781 291.808594 274.300781 L 291.621094 273.207031 C 291.25 271.101562 289.4375 269.570312 287.304688 269.570312 Z M 348.484375 262.011719 C 348.035156 262.011719 347.589844 262.085938 347.160156 262.222656 C 346.042969 262.570312 345.125 263.335938 344.582031 264.375 C 344.042969 265.417969 343.933594 266.605469 344.289062 267.726562 L 344.59375 268.726562 C 345.128906 270.578125 346.859375 271.875 348.800781 271.875 C 349.207031 271.875 349.621094 271.808594 350.035156 271.691406 C 351.167969 271.363281 352.097656 270.609375 352.65625 269.578125 C 353.21875 268.546875 353.34375 267.359375 353.015625 266.238281 L 352.671875 265.105469 C 352.09375 263.257812 350.40625 262.011719 348.484375 262.011719 Z M 285.71875 259.644531 C 285.511719 259.644531 285.304688 259.660156 285.09375 259.691406 C 282.699219 260.039062 281.035156 262.269531 281.378906 264.667969 L 281.535156 265.773438 C 281.851562 267.917969 283.71875 269.53125 285.878906 269.53125 C 286.121094 269.53125 286.339844 269.515625 286.542969 269.484375 C 287.679688 269.316406 288.707031 268.707031 289.410156 267.761719 C 290.105469 266.820312 290.398438 265.664062 290.226562 264.503906 L 290.070312 263.40625 C 289.757812 261.257812 287.886719 259.644531 285.71875 259.644531 Z M 345.199219 252.519531 C 344.691406 252.519531 344.195312 252.605469 343.714844 252.777344 C 341.433594 253.601562 340.25 256.121094 341.074219 258.398438 L 341.449219 259.445312 C 342.078125 261.1875 343.734375 262.351562 345.578125 262.351562 C 346.082031 262.351562 346.582031 262.265625 347.058594 262.09375 C 348.160156 261.703125 349.046875 260.898438 349.546875 259.839844 C 350.050781 258.777344 350.109375 257.585938 349.710938 256.476562 L 349.332031 255.425781 C 348.703125 253.6875 347.046875 252.519531 345.199219 252.519531 Z M 284.367188 249.683594 C 284.191406 249.683594 284.011719 249.691406 283.832031 249.71875 C 281.421875 250.019531 279.71875 252.226562 280.027344 254.628906 L 280.164062 255.714844 C 280.433594 257.914062 282.304688 259.570312 284.519531 259.570312 C 284.699219 259.570312 284.875 259.558594 285.046875 259.542969 C 286.210938 259.402344 287.25 258.820312 287.972656 257.894531 C 288.695312 256.964844 289.023438 255.820312 288.878906 254.652344 L 288.738281 253.519531 C 288.457031 251.328125 286.578125 249.683594 284.367188 249.683594 Z M 341.886719 243.03125 C 341.429688 243.03125 340.980469 243.101562 340.539062 243.242188 C 338.230469 243.984375 336.960938 246.460938 337.703125 248.769531 L 338.070312 249.871094 C 338.664062 251.667969 340.335938 252.871094 342.230469 252.871094 C 342.703125 252.871094 343.171875 252.800781 343.621094 252.652344 C 345.910156 251.886719 347.160156 249.394531 346.394531 247.089844 L 346.058594 246.066406 C 345.472656 244.253906 343.792969 243.03125 341.886719 243.03125 Z M 283.191406 239.695312 C 283.03125 239.695312 282.871094 239.707031 282.710938 239.726562 C 281.554688 239.851562 280.507812 240.417969 279.769531 241.332031 C 279.03125 242.246094 278.695312 243.394531 278.816406 244.554688 L 278.945312 245.578125 C 279.109375 247.808594 281.035156 249.59375 283.308594 249.59375 C 283.433594 249.59375 283.550781 249.585938 283.679688 249.574219 C 284.820312 249.488281 285.882812 248.945312 286.644531 248.054688 C 287.410156 247.164062 287.78125 246.03125 287.691406 244.859375 L 287.664062 244.597656 L 287.550781 243.613281 C 287.316406 241.421875 285.398438 239.695312 283.191406 239.695312 Z M 282.398438 229.679688 L 282.257812 229.679688 C 279.832031 229.777344 277.945312 231.824219 278.042969 234.242188 L 278.09375 235.402344 C 278.210938 237.746094 280.140625 239.578125 282.480469 239.578125 L 282.625 239.570312 L 282.65625 239.570312 L 282.707031 239.566406 C 283.875 239.507812 284.953125 238.996094 285.742188 238.125 C 286.527344 237.25 286.925781 236.125 286.867188 234.957031 L 286.816406 233.890625 C 286.722656 231.527344 284.78125 229.679688 282.398438 229.679688 Z M 282.402344 219.625 L 282.386719 219.625 C 279.90625 219.664062 277.992188 221.515625 277.9375 223.914062 L 277.914062 225.074219 C 277.886719 227.5 279.832031 229.492188 282.25 229.523438 C 284.695312 229.523438 286.664062 227.578125 286.691406 225.183594 L 286.714844 224.117188 C 286.769531 221.703125 284.84375 219.6875 282.429688 219.625 Z M 282.835938 209.589844 C 280.59375 209.589844 278.679688 211.351562 278.488281 213.597656 L 278.390625 214.730469 L 278.296875 215.839844 L 279.40625 215.914062 L 285.992188 216.367188 L 287.066406 216.445312 L 287.15625 215.363281 L 287.238281 214.351562 C 287.445312 211.949219 285.65625 209.816406 283.246094 209.605469 C 283.113281 209.59375 282.972656 209.589844 282.835938 209.589844 Z M 284.058594 199.613281 C 281.894531 199.613281 280.078125 201.171875 279.738281 203.316406 L 279.5625 204.445312 C 279.207031 206.84375 280.855469 209.085938 283.246094 209.449219 C 283.453125 209.480469 283.679688 209.503906 283.910156 209.503906 C 286.0625 209.503906 287.925781 207.894531 288.246094 205.761719 L 288.414062 204.691406 C 288.59375 203.53125 288.3125 202.371094 287.625 201.425781 C 286.929688 200.472656 285.914062 199.851562 284.753906 199.671875 C 284.527344 199.636719 284.292969 199.613281 284.058594 199.613281 Z M 286 189.753906 C 283.949219 189.753906 282.191406 191.152344 281.730469 193.160156 L 281.480469 194.257812 C 280.949219 196.621094 282.429688 198.976562 284.789062 199.511719 C 285.101562 199.585938 285.425781 199.625 285.765625 199.625 C 287.796875 199.625 289.597656 198.183594 290.042969 196.199219 L 290.289062 195.121094 C 290.550781 193.980469 290.351562 192.800781 289.730469 191.8125 C 289.109375 190.820312 288.132812 190.128906 286.992188 189.859375 C 286.667969 189.789062 286.335938 189.753906 286 189.753906 Z M 288.109375 179.921875 C 285.945312 179.921875 284.121094 181.46875 283.773438 183.601562 L 283.59375 184.632812 C 283.160156 187.003906 284.742188 189.296875 287.125 189.734375 C 287.410156 189.78125 287.667969 189.808594 287.921875 189.808594 C 290.039062 189.808594 291.855469 188.289062 292.230469 186.195312 L 292.4375 185.035156 C 292.628906 183.863281 292.355469 182.703125 291.667969 181.75 C 290.984375 180.796875 289.972656 180.167969 288.808594 179.980469 C 288.578125 179.9375 288.339844 179.921875 288.109375 179.921875 Z M 320.507812 327.335938 C 320.714844 327.335938 320.925781 327.355469 321.128906 327.394531 C 321.46875 327.457031 321.792969 327.511719 322.121094 327.558594 C 323.921875 327.820312 325.164062 329.5 324.894531 331.300781 C 324.65625 332.9375 323.246094 334.117188 321.640625 334.117188 C 321.480469 334.117188 321.320312 334.105469 321.152344 334.082031 C 320.75 334.023438 320.347656 333.957031 319.9375 333.878906 C 318.140625 333.546875 316.957031 331.828125 317.292969 330.035156 C 317.582031 328.453125 318.960938 327.335938 320.507812 327.335938 M 331.546875 326.683594 C 332.886719 326.683594 334.144531 327.511719 334.636719 328.839844 C 335.257812 330.546875 334.386719 332.441406 332.683594 333.078125 C 332.269531 333.226562 331.851562 333.367188 331.433594 333.492188 C 331.117188 333.585938 330.796875 333.632812 330.476562 333.632812 C 329.0625 333.632812 327.757812 332.714844 327.328125 331.285156 C 326.796875 329.539062 327.789062 327.699219 329.527344 327.175781 C 329.828125 327.085938 330.113281 326.992188 330.398438 326.886719 C 330.777344 326.746094 331.167969 326.683594 331.546875 326.683594 M 311.058594 324.117188 C 311.585938 324.117188 312.121094 324.242188 312.617188 324.511719 C 312.898438 324.660156 313.183594 324.808594 313.46875 324.945312 C 315.117188 325.730469 315.8125 327.699219 315.019531 329.339844 C 314.457031 330.523438 313.277344 331.21875 312.046875 331.21875 C 311.574219 331.21875 311.085938 331.117188 310.625 330.894531 C 310.238281 330.710938 309.863281 330.515625 309.488281 330.316406 C 307.886719 329.449219 307.285156 327.453125 308.152344 325.847656 C 308.75 324.742188 309.890625 324.117188 311.058594 324.117188 M 339.574219 320.824219 C 340.328125 320.824219 341.082031 321.085938 341.703125 321.609375 C 343.089844 322.792969 343.261719 324.871094 342.082031 326.257812 C 341.800781 326.59375 341.515625 326.898438 341.226562 327.210938 C 340.582031 327.902344 339.703125 328.25 338.824219 328.25 C 338.019531 328.25 337.207031 327.957031 336.574219 327.367188 C 335.242188 326.117188 335.167969 324.03125 336.417969 322.699219 C 336.632812 322.472656 336.84375 322.238281 337.058594 321.988281 C 337.707031 321.21875 338.640625 320.824219 339.574219 320.824219 M 303.347656 317.769531 C 304.277344 317.769531 305.203125 318.160156 305.855469 318.929688 C 306.074219 319.183594 306.296875 319.4375 306.523438 319.683594 C 307.746094 321.03125 307.648438 323.117188 306.296875 324.34375 C 305.667969 324.914062 304.875 325.203125 304.082031 325.203125 C 303.1875 325.203125 302.289062 324.835938 301.640625 324.117188 C 301.363281 323.808594 301.09375 323.507812 300.832031 323.195312 C 299.652344 321.808594 299.820312 319.726562 301.210938 318.546875 C 301.835938 318.019531 302.589844 317.769531 303.347656 317.769531 M 344.800781 312.289062 C 345.230469 312.289062 345.667969 312.375 346.089844 312.554688 C 347.765625 313.257812 348.546875 315.203125 347.832031 316.875 C 347.675781 317.253906 347.507812 317.628906 347.335938 318 C 346.773438 319.199219 345.582031 319.90625 344.34375 319.90625 C 343.875 319.90625 343.398438 319.804688 342.953125 319.597656 C 341.304688 318.832031 340.585938 316.863281 341.355469 315.214844 C 341.492188 314.914062 341.632812 314.605469 341.761719 314.296875 C 342.296875 313.042969 343.519531 312.289062 344.800781 312.289062 M 297.929688 309.324219 C 299.144531 309.324219 300.3125 310 300.886719 311.164062 L 301.359375 312.097656 C 302.199219 313.714844 301.570312 315.707031 299.953125 316.542969 C 299.46875 316.800781 298.949219 316.914062 298.4375 316.914062 C 297.246094 316.914062 296.09375 316.273438 295.507812 315.136719 C 295.324219 314.789062 295.148438 314.4375 294.972656 314.082031 C 294.164062 312.445312 294.835938 310.472656 296.472656 309.667969 C 296.941406 309.4375 297.4375 309.324219 297.929688 309.324219 M 347.792969 302.707031 C 348.03125 302.707031 348.273438 302.734375 348.515625 302.789062 C 350.292969 303.191406 351.40625 304.953125 351.011719 306.734375 L 350.742188 307.871094 C 350.375 309.386719 349.023438 310.394531 347.539062 310.394531 C 347.285156 310.394531 347.015625 310.359375 346.757812 310.300781 C 344.984375 309.867188 343.90625 308.082031 344.335938 306.3125 L 344.574219 305.285156 C 344.917969 303.75 346.28125 302.707031 347.792969 302.707031 M 294.207031 299.992188 C 295.59375 299.992188 296.886719 300.867188 297.34375 302.257812 L 297.695312 303.304688 C 298.269531 305.035156 297.335938 306.902344 295.609375 307.476562 C 295.265625 307.59375 294.914062 307.648438 294.566406 307.648438 C 293.1875 307.648438 291.898438 306.773438 291.4375 305.386719 L 291.082031 304.316406 C 290.511719 302.589844 291.453125 300.722656 293.183594 300.15625 C 293.523438 300.042969 293.871094 299.992188 294.207031 299.992188 M 349.667969 292.832031 C 349.863281 292.832031 350.066406 292.847656 350.273438 292.890625 C 352.066406 293.210938 353.257812 294.925781 352.933594 296.714844 L 352.738281 297.804688 C 352.457031 299.40625 351.066406 300.53125 349.496094 300.53125 C 349.304688 300.53125 349.109375 300.515625 348.921875 300.480469 C 347.128906 300.167969 345.925781 298.457031 346.242188 296.660156 L 346.441406 295.542969 C 346.730469 293.949219 348.109375 292.832031 349.667969 292.832031 M 291.472656 290.316406 C 292.9375 290.316406 294.273438 291.316406 294.65625 292.804688 L 294.925781 293.859375 C 295.386719 295.621094 294.339844 297.425781 292.578125 297.886719 C 292.296875 297.964844 292.011719 298 291.734375 298 C 290.277344 298 288.941406 297.019531 288.550781 295.542969 L 288.261719 294.445312 C 287.816406 292.671875 288.878906 290.878906 290.640625 290.425781 C 290.917969 290.355469 291.199219 290.316406 291.472656 290.316406 M 351.160156 282.902344 L 351.429688 282.910156 C 353.242188 283.035156 354.613281 284.617188 354.488281 286.433594 C 354.460938 286.824219 354.429688 287.21875 354.390625 287.617188 C 354.234375 289.328125 352.792969 290.613281 351.113281 290.613281 L 350.804688 290.597656 C 348.992188 290.433594 347.65625 288.824219 347.824219 287.015625 C 347.855469 286.667969 347.882812 286.316406 347.910156 285.972656 C 348.027344 284.242188 349.429688 282.902344 351.160156 282.902344 M 289.195312 280.535156 C 290.714844 280.535156 292.074219 281.597656 292.40625 283.140625 L 292.640625 284.242188 C 293.015625 286.019531 291.878906 287.773438 290.097656 288.152344 C 289.867188 288.195312 289.636719 288.226562 289.410156 288.226562 C 287.878906 288.226562 286.515625 287.160156 286.191406 285.609375 L 285.953125 284.519531 C 285.578125 282.742188 286.714844 280.988281 288.492188 280.613281 C 288.734375 280.558594 288.964844 280.535156 289.195312 280.535156 M 350.800781 272.875 C 352.410156 272.875 353.816406 274.058594 354.054688 275.699219 C 354.105469 276.085938 354.164062 276.476562 354.214844 276.867188 C 354.445312 278.671875 353.167969 280.328125 351.359375 280.558594 C 351.21875 280.570312 351.082031 280.582031 350.941406 280.582031 C 349.304688 280.582031 347.882812 279.363281 347.675781 277.703125 L 347.53125 276.652344 C 347.265625 274.855469 348.507812 273.179688 350.316406 272.914062 C 350.476562 272.890625 350.636719 272.875 350.800781 272.875 M 287.304688 270.664062 C 288.875 270.664062 290.261719 271.796875 290.539062 273.390625 L 290.734375 274.488281 C 291.054688 276.277344 289.851562 277.992188 288.058594 278.3125 C 287.867188 278.347656 287.675781 278.363281 287.484375 278.363281 C 285.910156 278.363281 284.523438 277.238281 284.242188 275.636719 L 284.042969 274.53125 C 283.730469 272.742188 284.933594 271.03125 286.722656 270.714844 C 286.921875 270.679688 287.117188 270.664062 287.304688 270.664062 M 348.484375 263.113281 C 349.886719 263.113281 351.183594 264.015625 351.621094 265.425781 L 351.964844 266.546875 C 352.480469 268.289062 351.476562 270.128906 349.734375 270.640625 C 349.421875 270.734375 349.105469 270.78125 348.800781 270.78125 C 347.375 270.78125 346.058594 269.847656 345.640625 268.410156 L 345.328125 267.394531 C 344.78125 265.660156 345.75 263.808594 347.488281 263.265625 C 347.820312 263.160156 348.152344 263.113281 348.484375 263.113281 M 285.71875 260.738281 C 287.335938 260.738281 288.746094 261.914062 288.984375 263.558594 L 289.144531 264.660156 C 289.414062 266.464844 288.164062 268.140625 286.363281 268.402344 C 286.199219 268.429688 286.039062 268.4375 285.878906 268.4375 C 284.269531 268.4375 282.859375 267.253906 282.621094 265.621094 L 282.460938 264.511719 C 282.199219 262.703125 283.449219 261.03125 285.246094 260.769531 C 285.40625 260.75 285.566406 260.738281 285.71875 260.738281 M 345.199219 253.613281 C 346.550781 253.613281 347.824219 254.449219 348.304688 255.792969 L 348.6875 256.847656 C 349.296875 258.5625 348.402344 260.453125 346.695312 261.066406 C 346.328125 261.195312 345.949219 261.257812 345.578125 261.257812 C 344.226562 261.257812 342.957031 260.417969 342.472656 259.070312 L 342.097656 258.027344 C 341.480469 256.316406 342.371094 254.425781 344.082031 253.808594 C 344.453125 253.671875 344.828125 253.613281 345.199219 253.613281 M 284.367188 250.777344 C 286.003906 250.777344 287.441406 251.980469 287.652344 253.652344 L 287.792969 254.785156 C 288.015625 256.597656 286.722656 258.242188 284.921875 258.453125 C 284.785156 258.472656 284.652344 258.480469 284.519531 258.480469 C 282.875 258.480469 281.457031 257.25 281.246094 255.578125 L 281.113281 254.488281 C 280.882812 252.683594 282.15625 251.027344 283.96875 250.796875 C 284.101562 250.785156 284.234375 250.777344 284.367188 250.777344 M 341.886719 244.128906 C 343.28125 244.128906 344.566406 245.003906 345.023438 246.40625 L 345.359375 247.4375 C 345.933594 249.171875 345.003906 251.035156 343.273438 251.613281 C 342.925781 251.730469 342.578125 251.785156 342.230469 251.785156 C 340.851562 251.785156 339.566406 250.90625 339.105469 249.527344 L 338.742188 248.433594 C 338.1875 246.699219 339.136719 244.84375 340.871094 244.28125 C 341.210938 244.179688 341.550781 244.128906 341.886719 244.128906 M 283.191406 240.792969 C 284.824219 240.792969 286.285156 242.050781 286.464844 243.742188 L 286.578125 244.722656 L 286.601562 244.945312 C 286.742188 246.761719 285.382812 248.347656 283.566406 248.484375 L 283.308594 248.5 C 281.605469 248.5 280.164062 247.183594 280.027344 245.449219 L 279.90625 244.4375 C 279.714844 242.632812 281.027344 241.003906 282.832031 240.8125 C 282.957031 240.800781 283.074219 240.792969 283.191406 240.792969 M 282.398438 230.773438 C 284.199219 230.773438 285.652344 232.144531 285.722656 233.933594 L 285.773438 235.015625 C 285.863281 236.835938 284.46875 238.386719 282.652344 238.476562 L 282.480469 238.484375 C 280.738281 238.484375 279.277344 237.117188 279.1875 235.355469 L 279.132812 234.203125 C 279.0625 232.378906 280.476562 230.84375 282.296875 230.773438 L 282.398438 230.773438 M 282.398438 220.71875 C 284.21875 220.761719 285.660156 222.269531 285.621094 224.09375 L 285.601562 225.167969 C 285.578125 226.976562 284.105469 228.425781 282.304688 228.425781 L 282.265625 228.425781 C 280.441406 228.410156 278.984375 226.917969 279.007812 225.09375 L 279.023438 223.941406 C 279.070312 222.121094 280.507812 220.75 282.398438 220.71875 M 282.835938 210.679688 L 283.148438 210.695312 C 284.960938 210.855469 286.300781 212.453125 286.144531 214.265625 L 286.0625 215.277344 L 279.480469 214.828125 L 279.574219 213.691406 C 279.726562 211.984375 281.167969 210.679688 282.835938 210.679688 M 284.058594 200.707031 C 284.230469 200.707031 284.410156 200.71875 284.585938 200.75 C 286.382812 201.03125 287.617188 202.722656 287.332031 204.519531 L 287.160156 205.605469 C 286.917969 207.238281 285.511719 208.410156 283.910156 208.410156 C 283.746094 208.410156 283.578125 208.394531 283.40625 208.371094 C 281.613281 208.09375 280.371094 206.417969 280.640625 204.613281 L 280.816406 203.488281 C 281.074219 201.867188 282.460938 200.707031 284.058594 200.707031 M 286 190.839844 C 286.25 190.839844 286.496094 190.867188 286.75 190.925781 C 288.523438 191.339844 289.632812 193.105469 289.226562 194.875 L 288.976562 195.960938 C 288.632812 197.488281 287.269531 198.53125 285.765625 198.53125 C 285.519531 198.53125 285.277344 198.503906 285.035156 198.445312 C 283.261719 198.042969 282.144531 196.28125 282.546875 194.5 L 282.796875 193.40625 C 283.148438 191.882812 284.503906 190.839844 286 190.839844 M 288.109375 181.015625 C 288.28125 181.015625 288.457031 181.027344 288.632812 181.054688 C 290.4375 181.351562 291.65625 183.046875 291.359375 184.84375 L 291.15625 186.003906 C 290.871094 187.59375 289.476562 188.707031 287.921875 188.707031 C 287.722656 188.707031 287.527344 188.695312 287.324219 188.660156 C 285.53125 188.328125 284.34375 186.613281 284.667969 184.820312 L 284.847656 183.785156 C 285.113281 182.160156 286.527344 181.015625 288.109375 181.015625 " fill-opacity="1" fill-rule="nonzero"/><path fill="#000000" d="M 339.839844 242.472656 C 337.894531 242.472656 336.257812 241.011719 336.027344 239.078125 L 335.960938 238.488281 C 335.734375 236.375 337.269531 234.476562 339.378906 234.257812 C 339.515625 234.242188 339.652344 234.234375 339.78125 234.234375 C 341.757812 234.234375 343.398438 235.710938 343.597656 237.671875 L 343.664062 238.167969 C 343.78125 239.191406 343.496094 240.199219 342.859375 241.007812 C 342.226562 241.8125 341.316406 242.320312 340.296875 242.4375 C 340.144531 242.457031 339.992188 242.472656 339.839844 242.472656 " fill-opacity="1" fill-rule="nonzero"/><path fill="#f4e5e0" d="M 339.78125 233.6875 C 339.632812 233.6875 339.480469 233.695312 339.320312 233.714844 C 336.914062 233.96875 335.160156 236.132812 335.417969 238.539062 L 335.484375 239.140625 C 335.742188 241.351562 337.617188 243.015625 339.839844 243.015625 C 340.015625 243.015625 340.1875 243.003906 340.363281 242.980469 C 341.527344 242.847656 342.566406 242.261719 343.292969 241.339844 C 344.015625 240.417969 344.34375 239.273438 344.203125 238.105469 L 344.144531 237.601562 C 343.914062 235.375 342.039062 233.6875 339.78125 233.6875 Z M 339.78125 234.78125 C 341.453125 234.78125 342.878906 236.035156 343.058594 237.726562 L 343.117188 238.230469 C 343.332031 240.039062 342.039062 241.683594 340.234375 241.898438 C 340.101562 241.910156 339.972656 241.917969 339.839844 241.917969 C 338.191406 241.917969 336.769531 240.691406 336.574219 239.015625 L 336.503906 238.425781 C 336.3125 236.613281 337.621094 234.988281 339.433594 234.796875 C 339.550781 234.785156 339.667969 234.78125 339.78125 234.78125 " fill-opacity="1" fill-rule="nonzero"/><g clip-path="url(#588f71ddaf)"><path fill="#f4e5e0" d="M 210.570312 169.710938 L 223.574219 169.710938 L 223.574219 183.058594 L 210.570312 183.058594 Z M 210.570312 169.710938 " fill-opacity="1" fill-rule="nonzero"/></g><g clip-path="url(#6d9b868173)"><path fill="#f4e5e0" d="M 217.070312 169.710938 L 230.078125 169.710938 L 230.078125 183.058594 L 217.070312 183.058594 Z M 217.070312 169.710938 " fill-opacity="1" fill-rule="nonzero"/></g><g clip-path="url(#8aa286088d)"><path fill="#f4e5e0" d="M 224.507812 173.75 L 237.511719 173.75 L 237.511719 187.09375 L 224.507812 187.09375 Z M 224.507812 173.75 " fill-opacity="1" fill-rule="nonzero"/></g><g clip-path="url(#26ea19dd5f)"><path fill="#f4e5e0" d="M 231.324219 173.75 L 244.328125 173.75 L 244.328125 187.09375 L 231.324219 187.09375 Z M 231.324219 173.75 " fill-opacity="1" fill-rule="nonzero"/></g><g clip-path="url(#bbb9fb1755)"><path fill="#f4e5e0" d="M 241.933594 173.105469 L 254.941406 173.105469 L 254.941406 186.449219 L 241.933594 186.449219 Z M 241.933594 173.105469 " fill-opacity="1" fill-rule="nonzero"/></g><g clip-path="url(#0c68b6cf61)"><path fill="#f4e5e0" d="M 248.4375 169.710938 L 261.441406 169.710938 L 261.441406 183.058594 L 248.4375 183.058594 Z M 248.4375 169.710938 " fill-opacity="1" fill-rule="nonzero"/></g><g clip-path="url(#fd5b33fdd0)"><path fill="#f4e5e0" d="M 258.964844 164.242188 L 271.96875 164.242188 L 271.96875 177.589844 L 258.964844 177.589844 Z M 258.964844 164.242188 " fill-opacity="1" fill-rule="nonzero"/></g><g clip-path="url(#b38c9e07fe)"><path fill="#f4e5e0" d="M 265.46875 157.570312 L 278.472656 157.570312 L 278.472656 170.917969 L 265.46875 170.917969 Z M 265.46875 157.570312 " fill-opacity="1" fill-rule="nonzero"/></g><path fill="#000000" d="M 241.347656 123.097656 C 239.402344 123.265625 238.640625 123.402344 236.722656 123.816406 C 227.9375 125.71875 219.824219 131.226562 214.308594 138.4375 C 201.421875 155.296875 200.167969 183.464844 217.28125 195.5625 C 231.773438 205.808594 245.835938 207.808594 262.6875 200.246094 C 285.4375 190.03125 288.109375 154.246094 274.527344 137.050781 C 269.9375 131.238281 264.546875 127.296875 257.53125 124.757812 C 251.972656 122.746094 247.070312 122.613281 241.347656 123.097656 " fill-opacity="1" fill-rule="evenodd"/><path fill="#f4e5e0" d="M 241.511719 126.09375 C 239.707031 126.246094 239.003906 126.371094 237.226562 126.757812 C 229.082031 128.519531 221.566406 133.625 216.457031 140.304688 C 204.515625 155.925781 203.355469 182.03125 219.210938 193.238281 C 232.640625 202.734375 245.671875 204.585938 261.285156 197.578125 C 282.367188 188.113281 284.84375 154.953125 272.257812 139.019531 C 268.003906 133.636719 263.007812 129.984375 256.507812 127.628906 C 251.355469 125.765625 246.816406 125.640625 241.511719 126.09375 " fill-opacity="1" fill-rule="evenodd"/><path fill="#f4e5e0" d="M 241.511719 126.09375 C 239.707031 126.246094 239.003906 126.371094 237.226562 126.757812 C 229.082031 128.519531 221.566406 133.625 216.457031 140.304688 C 210.675781 147.867188 207.421875 157.882812 207.402344 167.476562 C 208.179688 176.3125 211.867188 184.453125 219.054688 189.53125 C 232.484375 199.023438 245.515625 200.878906 261.128906 193.871094 C 273.863281 188.152344 279.808594 173.789062 279.746094 159.796875 C 279.109375 151.945312 276.566406 144.472656 272.257812 139.019531 C 268.003906 133.636719 263.007812 129.984375 256.507812 127.628906 C 251.355469 125.765625 246.816406 125.640625 241.511719 126.09375 " fill-opacity="1" fill-rule="evenodd"/><path fill="#000000" d="M 231.4375 143.535156 C 232.246094 143.757812 232.558594 143.878906 233.335938 144.203125 C 236.894531 145.699219 239.886719 148.664062 241.648438 152.144531 C 245.765625 160.273438 244.082031 172.265625 235.910156 176.023438 C 228.988281 179.203125 222.894531 178.941406 216.375 174.417969 C 207.574219 168.3125 209.253906 152.996094 216.339844 146.808594 C 218.730469 144.71875 221.316406 143.480469 224.476562 142.960938 C 226.984375 142.550781 229.0625 142.878906 231.4375 143.535156 " fill-opacity="1" fill-rule="evenodd"/><path fill="#f4e5e0" d="M 228.925781 145.070312 C 228.632812 145.03125 228.175781 144.984375 227.882812 144.972656 C 226.644531 144.914062 225.308594 144.96875 224.167969 145.441406 C 222.15625 146.273438 221.183594 146.085938 223.140625 149.515625 C 223.300781 149.796875 223.449219 150.09375 223.722656 150.277344 C 224.675781 150.902344 227.421875 150.828125 228.699219 150.945312 C 229.574219 151.027344 229.816406 151.132812 230.730469 151 C 232.230469 150.78125 235.125 150.589844 235.292969 148.6875 C 235.472656 146.632812 230.414062 145.28125 228.925781 145.070312 Z M 216.582031 149.632812 C 217.308594 148.445312 218.703125 147.046875 220.1875 147.945312 C 220.953125 148.410156 221.898438 150.210938 221.117188 150.929688 C 220.621094 151.386719 220.464844 150.628906 218.6875 151.367188 C 217.996094 151.652344 217.59375 151.804688 217.039062 151.152344 C 216.628906 150.675781 216.121094 150.382812 216.582031 149.632812 " fill-opacity="1" fill-rule="evenodd"/><path fill="#000000" d="M 122.539062 116.425781 C 120.589844 116.589844 119.832031 116.730469 117.910156 117.144531 C 109.125 119.046875 101.011719 124.554688 95.5 131.765625 C 82.609375 148.625 81.359375 176.792969 98.472656 188.890625 C 112.964844 199.136719 127.027344 201.136719 143.878906 193.570312 C 166.628906 183.359375 169.300781 147.574219 155.714844 130.375 C 151.128906 124.566406 145.734375 120.625 138.71875 118.085938 C 133.160156 116.074219 128.261719 115.941406 122.539062 116.425781 " fill-opacity="1" fill-rule="evenodd"/><path fill="#f4e5e0" d="M 122.703125 119.417969 C 120.898438 119.570312 120.191406 119.699219 118.414062 120.085938 C 110.273438 121.847656 102.753906 126.949219 97.648438 133.632812 C 85.703125 149.253906 84.542969 175.355469 100.402344 186.566406 C 113.832031 196.058594 126.863281 197.914062 142.476562 190.90625 C 163.554688 181.441406 166.03125 148.28125 153.445312 132.34375 C 149.195312 126.960938 144.195312 123.308594 137.695312 120.957031 C 132.546875 119.09375 128.003906 118.96875 122.703125 119.417969 " fill-opacity="1" fill-rule="evenodd"/><path fill="#f4e5e0" d="M 122.703125 119.417969 C 120.898438 119.570312 120.191406 119.699219 118.414062 120.085938 C 110.273438 121.847656 102.753906 126.949219 97.648438 133.632812 C 91.867188 141.195312 88.613281 151.210938 88.589844 160.804688 C 89.367188 169.640625 93.058594 177.777344 100.246094 182.859375 C 113.675781 192.351562 126.707031 194.207031 142.320312 187.195312 C 155.054688 181.480469 160.996094 167.117188 160.933594 153.125 C 160.296875 145.273438 157.753906 137.800781 153.445312 132.34375 C 149.195312 126.960938 144.195312 123.308594 137.695312 120.957031 C 132.546875 119.09375 128.003906 118.96875 122.703125 119.417969 " fill-opacity="1" fill-rule="evenodd"/><path fill="#000000" d="M 112.628906 136.863281 C 113.4375 137.085938 113.746094 137.203125 114.523438 137.53125 C 118.085938 139.027344 121.078125 141.992188 122.839844 145.46875 C 126.957031 153.601562 125.273438 165.59375 117.097656 169.351562 C 110.175781 172.53125 104.082031 172.269531 97.5625 167.746094 C 88.761719 161.640625 90.445312 146.324219 97.527344 140.136719 C 99.921875 138.046875 102.507812 136.808594 105.667969 136.289062 C 108.171875 135.875 110.25 136.207031 112.628906 136.863281 " fill-opacity="1" fill-rule="evenodd"/><path fill="#f4e5e0" d="M 110.113281 138.398438 C 109.824219 138.359375 109.363281 138.3125 109.070312 138.296875 C 107.835938 138.238281 106.5 138.296875 105.359375 138.769531 C 103.34375 139.601562 102.375 139.414062 104.328125 142.839844 C 104.492188 143.125 104.636719 143.421875 104.914062 143.605469 C 105.863281 144.230469 108.613281 144.15625 109.890625 144.273438 C 110.765625 144.355469 111.007812 144.457031 111.917969 144.324219 C 113.417969 144.109375 116.316406 143.917969 116.480469 142.015625 C 116.660156 139.960938 111.601562 138.605469 110.113281 138.398438 Z M 97.769531 142.957031 C 98.496094 141.769531 99.890625 140.375 101.375 141.273438 C 102.144531 141.734375 103.085938 143.539062 102.308594 144.257812 C 101.8125 144.714844 101.652344 143.953125 99.875 144.695312 C 99.183594 144.980469 98.785156 145.132812 98.226562 144.480469 C 97.820312 144.003906 97.3125 143.710938 97.769531 142.957031 " fill-opacity="1" fill-rule="evenodd"/></svg>