<svg xmlns="http://www.w3.org/2000/svg" xmlns:xlink="http://www.w3.org/1999/xlink" width="500" zoomAndPan="magnify" viewBox="0 0 375 374.999991" height="500" preserveAspectRatio="xMidYMid meet" version="1.0"><defs><clipPath id="e2a93b9baa"><path d="M 48.28125 0 L 326.53125 0 L 326.53125 375 L 48.28125 375 Z M 48.28125 0 " clip-rule="nonzero"/></clipPath></defs><g clip-path="url(#e2a93b9baa)"><path fill="#f8961e" d="M 326.207031 51.460938 L 326.207031 367.5 C 326.207031 367.992188 326.160156 368.480469 326.0625 368.964844 C 325.96875 369.445312 325.824219 369.917969 325.636719 370.371094 C 325.449219 370.824219 325.21875 371.257812 324.945312 371.667969 C 324.671875 372.078125 324.359375 372.457031 324.011719 372.804688 C 323.664062 373.152344 323.285156 373.460938 322.878906 373.734375 C 322.46875 374.007812 322.035156 374.242188 321.582031 374.429688 C 321.128906 374.617188 320.660156 374.761719 320.175781 374.855469 C 319.691406 374.953125 319.207031 375 318.714844 375 L 56.082031 375 C 55.589844 375 55.105469 374.953125 54.621094 374.855469 C 54.140625 374.761719 53.671875 374.617188 53.214844 374.429688 C 52.761719 374.242188 52.328125 374.007812 51.921875 373.734375 C 51.511719 373.460938 51.132812 373.152344 50.785156 372.804688 C 50.4375 372.457031 50.125 372.078125 49.851562 371.667969 C 49.578125 371.257812 49.347656 370.824219 49.160156 370.371094 C 48.972656 369.917969 48.828125 369.445312 48.734375 368.964844 C 48.636719 368.480469 48.589844 367.992188 48.589844 367.5 L 48.589844 20.484375 C 48.589844 19.933594 48.660156 19.386719 48.808594 18.855469 C 48.953125 18.320312 49.167969 17.8125 49.449219 17.335938 C 49.730469 16.863281 50.074219 16.429688 50.472656 16.046875 C 50.871094 15.660156 51.3125 15.335938 51.796875 15.070312 C 52.386719 13.945312 53.050781 12.867188 53.789062 11.832031 C 54.527344 10.796875 55.332031 9.816406 56.203125 8.890625 C 57.074219 7.964844 58.003906 7.101562 58.992188 6.304688 C 59.980469 5.503906 61.015625 4.777344 62.105469 4.121094 C 63.191406 3.460938 64.316406 2.878906 65.484375 2.375 C 66.648438 1.871094 67.84375 1.449219 69.070312 1.105469 C 70.292969 0.765625 71.535156 0.507812 72.792969 0.335938 C 74.050781 0.164062 75.316406 0.0742188 76.585938 0.0742188 L 312.238281 0.0742188 C 312.632812 0.0703125 313.023438 0.101562 313.410156 0.171875 C 313.800781 0.238281 314.175781 0.34375 314.546875 0.480469 C 314.914062 0.621094 315.265625 0.792969 315.601562 1 C 315.9375 1.203125 316.25 1.441406 316.542969 1.703125 C 316.835938 1.96875 317.101562 2.257812 317.339844 2.570312 C 317.578125 2.886719 317.78125 3.21875 317.957031 3.570312 C 318.132812 3.921875 318.273438 4.289062 318.382812 4.667969 C 318.488281 5.046875 318.558594 5.433594 318.59375 5.828125 C 318.621094 6.246094 318.609375 6.667969 318.550781 7.085938 C 318.492188 7.503906 318.390625 7.910156 318.25 8.308594 C 318.109375 8.707031 317.929688 9.085938 317.707031 9.445312 C 317.488281 9.804688 317.234375 10.140625 316.949219 10.449219 C 316.660156 10.757812 316.34375 11.03125 316 11.277344 C 315.652344 11.519531 315.289062 11.726562 314.902344 11.894531 C 314.515625 12.0625 314.113281 12.1875 313.703125 12.273438 C 313.289062 12.359375 312.871094 12.402344 312.449219 12.402344 L 76.96875 12.402344 C 68.484375 12.402344 61.230469 18.984375 60.917969 27.472656 C 60.898438 28 60.902344 28.527344 60.9375 29.050781 C 60.96875 29.578125 61.027344 30.097656 61.113281 30.617188 C 61.199219 31.136719 61.308594 31.652344 61.445312 32.160156 C 61.582031 32.667969 61.746094 33.167969 61.933594 33.660156 C 62.121094 34.152344 62.332031 34.632812 62.566406 35.105469 C 62.800781 35.574219 63.058594 36.03125 63.339844 36.476562 C 63.625 36.921875 63.925781 37.351562 64.25 37.765625 C 64.574219 38.179688 64.921875 38.578125 65.285156 38.957031 C 65.648438 39.335938 66.03125 39.695312 66.433594 40.039062 C 66.832031 40.378906 67.25 40.699219 67.683594 40.996094 C 68.117188 41.296875 68.5625 41.574219 69.023438 41.828125 C 69.484375 42.082031 69.957031 42.3125 70.441406 42.515625 C 70.925781 42.722656 71.417969 42.90625 71.917969 43.0625 C 72.421875 43.21875 72.929688 43.351562 73.445312 43.457031 C 73.960938 43.5625 74.480469 43.640625 75.003906 43.695312 C 75.527344 43.75 76.050781 43.777344 76.578125 43.777344 L 94.164062 43.777344 L 94.164062 146.199219 L 113.648438 131.203125 L 133.132812 146.199219 L 133.132812 43.777344 L 318.527344 43.777344 C 319.03125 43.777344 319.53125 43.824219 320.023438 43.925781 C 320.519531 44.023438 321 44.167969 321.464844 44.359375 C 321.933594 44.554688 322.375 44.792969 322.792969 45.070312 C 323.214844 45.351562 323.601562 45.671875 323.957031 46.027344 C 324.3125 46.382812 324.632812 46.773438 324.914062 47.191406 C 325.191406 47.613281 325.429688 48.054688 325.621094 48.519531 C 325.816406 48.988281 325.960938 49.46875 326.058594 49.960938 C 326.160156 50.457031 326.207031 50.957031 326.207031 51.460938 Z M 326.207031 51.460938 " fill-opacity="1" fill-rule="nonzero"/></g></svg>